RangeenCBDT.ttx.ufo
<glyph name="comma" format="2">
  <advance width="190"/>
  <unicode hex="002C"/>
  <outline>
    <contour>
      <point x="135" y="-7" type="qcurve"/>
      <point x="135" y="13"/>
      <point x="118" y="48"/>
      <point x="103" y="48" type="qcurve"/>
      <point x="94" y="48"/>
      <point x="81" y="35"/>
      <point x="81" y="26" type="qcurve"/>
      <point x="81" y="22"/>
      <point x="91" y="-1"/>
      <point x="91" y="-7" type="qcurve"/>
      <point x="91" y="-20"/>
      <point x="55" y="-53"/>
      <point x="55" y="-64" type="qcurve"/>
      <point x="55" y="-73"/>
      <point x="68" y="-86"/>
      <point x="77" y="-86" type="qcurve"/>
      <point x="96" y="-86"/>
      <point x="135" y="-31"/>
    </contour>
    <contour>
      <point x="85" y="-7" type="qcurve"/>
      <point x="84" y="-1"/>
      <point x="76" y="20"/>
      <point x="76" y="26" type="qcurve"/>
      <point x="76" y="37"/>
      <point x="92" y="53"/>
      <point x="103" y="53" type="qcurve"/>
      <point x="120" y="53"/>
      <point x="140" y="16"/>
      <point x="140" y="-7" type="qcurve"/>
      <point x="140" y="-33"/>
      <point x="98" y="-91"/>
      <point x="77" y="-91" type="qcurve"/>
      <point x="66" y="-91"/>
      <point x="50" y="-75"/>
      <point x="50" y="-64" type="qcurve"/>
      <point x="50" y="-51"/>
      <point x="83" y="-18"/>
    </contour>
  </outline>
</glyph>
<glyph name="hyphen" format="2">
  <advance width="502"/>
  <unicode hex="002D"/>
  <outline>
    <contour>
      <point x="55" y="420"/>
      <point x="55" y="402"/>
      <point x="68" y="389"/>
      <point x="77" y="389" type="qcurve"/>
      <point x="425" y="389" type="line"/>
      <point x="434" y="389"/>
      <point x="447" y="402"/>
      <point x="447" y="420"/>
      <point x="434" y="433"/>
      <point x="425" y="433" type="qcurve"/>
      <point x="77" y="433" type="line"/>
      <point x="68" y="433"/>
    </contour>
    <contour>
      <point x="452" y="422"/>
      <point x="452" y="400"/>
      <point x="436" y="384"/>
      <point x="425" y="384" type="qcurve"/>
      <point x="77" y="384" type="line"/>
      <point x="66" y="384"/>
      <point x="50" y="400"/>
      <point x="50" y="422"/>
      <point x="66" y="438"/>
      <point x="77" y="438" type="qcurve"/>
      <point x="425" y="438" type="line"/>
      <point x="436" y="438"/>
    </contour>
  </outline>
</glyph>
<glyph name="period" format="2">
  <advance width="154"/>
  <unicode hex="002E"/>
  <outline>
    <contour>
      <point x="86" y="51"/>
      <point x="68" y="51"/>
      <point x="55" y="38"/>
      <point x="55" y="20"/>
      <point x="68" y="7"/>
      <point x="86" y="7"/>
      <point x="99" y="20"/>
      <point x="99" y="38"/>
    </contour>
    <contour>
      <point x="88" y="2"/>
      <point x="66" y="2"/>
      <point x="50" y="18"/>
      <point x="50" y="40"/>
      <point x="66" y="56"/>
      <point x="88" y="56"/>
      <point x="104" y="40"/>
      <point x="104" y="18"/>
    </contour>
  </outline>
</glyph>
<glyph name="at" format="2">
  <advance width="772"/>
  <unicode hex="0040"/>
  <outline>
    <contour>
      <point x="278" y="328" type="qcurve"/>
      <point x="302" y="328"/>
      <point x="390" y="274"/>
      <point x="419" y="274" type="qcurve"/>
      <point x="428" y="274"/>
      <point x="441" y="287"/>
      <point x="441" y="305"/>
      <point x="428" y="318"/>
      <point x="419" y="318" type="qcurve"/>
      <point x="398" y="318"/>
      <point x="309" y="372"/>
      <point x="278" y="372" type="qcurve"/>
      <point x="246" y="372"/>
      <point x="203" y="343"/>
      <point x="182" y="289"/>
      <point x="174" y="233"/>
      <point x="174" y="196" type="qcurve"/>
      <point x="175" y="176" type="line"/>
      <point x="175" y="83"/>
      <point x="314" y="-20"/>
      <point x="410" y="-20" type="qcurve"/>
      <point x="455" y="-20"/>
      <point x="502" y="48"/>
      <point x="504" y="99" type="qcurve"/>
      <point x="504" y="102"/>
      <point x="507" y="102" type="qcurve"/>
      <point x="518" y="102"/>
      <point x="548" y="59"/>
      <point x="588" y="16"/>
      <point x="611" y="16" type="qcurve"/>
      <point x="672" y="16"/>
      <point x="717" y="106"/>
      <point x="717" y="185" type="qcurve"/>
      <point x="717" y="303"/>
      <point x="533" y="477"/>
      <point x="413" y="477" type="qcurve"/>
      <point x="246" y="477"/>
      <point x="55" y="332"/>
      <point x="55" y="179" type="qcurve"/>
      <point x="55" y="89"/>
      <point x="126" y="-78"/>
      <point x="269" y="-191"/>
      <point x="359" y="-191" type="qcurve"/>
      <point x="407" y="-192" type="line"/>
      <point x="455" y="-192"/>
      <point x="591" y="-194"/>
      <point x="638" y="-194" type="qcurve"/>
      <point x="670" y="-194"/>
      <point x="717" y="-141"/>
      <point x="717" y="-109" type="qcurve"/>
      <point x="717" y="-100"/>
      <point x="704" y="-87"/>
      <point x="695" y="-87" type="qcurve"/>
      <point x="683" y="-87"/>
      <point x="664" y="-113"/>
      <point x="664" y="-127" type="qcurve"/>
      <point x="664" y="-137"/>
      <point x="648" y="-150"/>
      <point x="638" y="-150" type="qcurve"/>
      <point x="576" y="-150"/>
      <point x="468" y="-148" type="qcurve"/>
      <point x="359" y="-147" type="line"/>
      <point x="282" y="-147"/>
      <point x="160" y="-46"/>
      <point x="99" y="101"/>
      <point x="99" y="179" type="qcurve"/>
      <point x="99" y="314"/>
      <point x="261" y="433"/>
      <point x="413" y="433" type="qcurve"/>
      <point x="513" y="433"/>
      <point x="673" y="284"/>
      <point x="673" y="185" type="qcurve"/>
      <point x="673" y="156"/>
      <point x="670" y="122"/>
      <point x="659" y="80"/>
      <point x="632" y="60"/>
      <point x="611" y="60" type="qcurve"/>
      <point x="594" y="60"/>
      <point x="563" y="95"/>
      <point x="543" y="138"/>
      <point x="511" y="173"/>
      <point x="492" y="173" type="qcurve"/>
      <point x="471" y="173"/>
      <point x="460" y="140"/>
      <point x="460" y="110" type="qcurve"/>
      <point x="460" y="75"/>
      <point x="437" y="24"/>
      <point x="410" y="24" type="qcurve"/>
      <point x="330" y="24"/>
      <point x="219" y="102"/>
      <point x="219" y="176" type="qcurve"/>
      <point x="219" y="193" type="line"/>
      <point x="219" y="223"/>
      <point x="222" y="258"/>
      <point x="232" y="305"/>
      <point x="257" y="328"/>
    </contour>
    <contour>
      <point x="104" y="179" type="qcurve"/>
      <point x="104" y="102"/>
      <point x="163" y="-43"/>
      <point x="283" y="-142"/>
      <point x="359" y="-142" type="qcurve"/>
      <point x="360" y="-142"/>
      <point x="576" y="-145"/>
      <point x="638" y="-145" type="qcurve"/>
      <point x="646" y="-145"/>
      <point x="659" y="-134"/>
      <point x="659" y="-127" type="qcurve"/>
      <point x="659" y="-110"/>
      <point x="681" y="-82"/>
      <point x="695" y="-82" type="qcurve"/>
      <point x="706" y="-82"/>
      <point x="722" y="-98"/>
      <point x="722" y="-109" type="qcurve"/>
      <point x="722" y="-144"/>
      <point x="672" y="-199"/>
      <point x="638" y="-199" type="qcurve"/>
      <point x="589" y="-199"/>
      <point x="453" y="-202"/>
      <point x="391" y="-203"/>
      <point x="304" y="-196"/>
      <point x="254" y="-178"/>
      <point x="194" y="-142"/>
      <point x="165" y="-113" type="qcurve"/>
      <point x="110" y="-58"/>
      <point x="50" y="97"/>
      <point x="50" y="179" type="qcurve"/>
      <point x="50" y="334"/>
      <point x="245" y="482"/>
      <point x="413" y="482" type="qcurve"/>
      <point x="534" y="482"/>
      <point x="722" y="305"/>
      <point x="722" y="185" type="qcurve"/>
      <point x="722" y="134"/>
      <point x="707" y="63"/>
      <point x="655" y="11"/>
      <point x="611" y="11" type="qcurve"/>
      <point x="603" y="11"/>
      <point x="588" y="14"/>
      <point x="573" y="22"/>
      <point x="562" y="28"/>
      <point x="548" y="42"/>
      <point x="540" y="49"/>
      <point x="527" y="67"/>
      <point x="523" y="72"/>
      <point x="509" y="91"/>
      <point x="509" y="92" type="qcurve"/>
      <point x="505" y="42"/>
      <point x="456" y="-25"/>
      <point x="410" y="-25" type="qcurve"/>
      <point x="312" y="-25"/>
      <point x="170" y="81"/>
      <point x="170" y="176" type="qcurve"/>
      <point x="169" y="196" type="line"/>
      <point x="169" y="377"/>
      <point x="278" y="377" type="qcurve"/>
      <point x="310" y="377"/>
      <point x="398" y="323"/>
      <point x="419" y="323" type="qcurve"/>
      <point x="430" y="323"/>
      <point x="446" y="307"/>
      <point x="446" y="285"/>
      <point x="430" y="269"/>
      <point x="419" y="269" type="qcurve"/>
      <point x="389" y="269"/>
      <point x="301" y="323"/>
      <point x="278" y="323" type="qcurve"/>
      <point x="259" y="323"/>
      <point x="235" y="301"/>
      <point x="226" y="254"/>
      <point x="224" y="222"/>
      <point x="224" y="193" type="qcurve"/>
      <point x="224" y="176" type="line"/>
      <point x="224" y="104"/>
      <point x="332" y="29"/>
      <point x="410" y="29" type="qcurve"/>
      <point x="455" y="29"/>
      <point x="455" y="110" type="qcurve"/>
      <point x="455" y="130"/>
      <point x="459" y="156"/>
      <point x="476" y="178"/>
      <point x="492" y="178" type="qcurve"/>
      <point x="511" y="178"/>
      <point x="545" y="143"/>
      <point x="564" y="100"/>
      <point x="594" y="65"/>
      <point x="611" y="65" type="qcurve"/>
      <point x="631" y="65"/>
      <point x="656" y="84"/>
      <point x="666" y="124"/>
      <point x="668" y="156"/>
      <point x="668" y="185" type="qcurve"/>
      <point x="668" y="282"/>
      <point x="511" y="428"/>
      <point x="413" y="428" type="qcurve"/>
      <point x="262" y="428"/>
      <point x="104" y="312"/>
    </contour>
  </outline>
</glyph>
<glyph name="D" format="2">
  <advance width="507"/>
  <unicode hex="0044"/>
  <outline>
    <contour>
      <point x="191" y="784" type="qcurve"/>
      <point x="137" y="784"/>
      <point x="55" y="725"/>
      <point x="55" y="678" type="qcurve"/>
      <point x="55" y="669"/>
      <point x="68" y="656"/>
      <point x="77" y="656" type="qcurve"/>
      <point x="92" y="656"/>
      <point x="118" y="714"/>
      <point x="120" y="716" type="qcurve"/>
      <point x="144" y="740"/>
      <point x="191" y="740" type="qcurve"/>
      <point x="240" y="740"/>
      <point x="314" y="698"/>
      <point x="327" y="660" type="qcurve"/>
      <point x="407" y="424" type="line"/>
      <point x="407" y="423" type="line"/>
      <point x="396" y="292" type="line"/>
      <point x="391" y="230"/>
      <point x="307" y="96"/>
      <point x="257" y="96" type="qcurve"/>
      <point x="190" y="96"/>
      <point x="190" y="103" type="qcurve"/>
      <point x="190" y="122" type="line"/>
      <point x="190" y="167"/>
      <point x="165" y="357"/>
      <point x="165" y="401" type="qcurve"/>
      <point x="165" y="408" type="line"/>
      <point x="165" y="676" type="line"/>
      <point x="165" y="685"/>
      <point x="152" y="698"/>
      <point x="134" y="698"/>
      <point x="121" y="685"/>
      <point x="121" y="676" type="qcurve"/>
      <point x="121" y="408" type="line"/>
      <point x="121" y="407"/>
      <point x="120" y="402"/>
      <point x="120" y="401" type="qcurve"/>
      <point x="120" y="356"/>
      <point x="145" y="165"/>
      <point x="145" y="121" type="qcurve"/>
      <point x="145" y="108"/>
      <point x="120" y="90"/>
      <point x="89" y="79"/>
      <point x="64" y="50"/>
      <point x="64" y="29" type="qcurve"/>
      <point x="64" y="5"/>
      <point x="113" y="-24"/>
      <point x="141" y="-24" type="qcurve"/>
      <point x="161" y="-24"/>
      <point x="183" y="56"/>
      <point x="187" y="56" type="qcurve"/>
      <point x="198" y="56"/>
      <point x="245" y="52"/>
      <point x="257" y="52" type="qcurve"/>
      <point x="327" y="52"/>
      <point x="434" y="208"/>
      <point x="440" y="284" type="qcurve"/>
      <point x="452" y="424" type="line"/>
      <point x="452" y="426" type="line"/>
      <point x="452" y="431"/>
      <point x="451" y="433" type="qcurve"/>
      <point x="369" y="674" type="line"/>
      <point x="351" y="725"/>
      <point x="253" y="784"/>
    </contour>
    <contour>
      <point x="50" y="678" type="qcurve"/>
      <point x="50" y="727"/>
      <point x="135" y="789"/>
      <point x="191" y="789" type="qcurve"/>
      <point x="254" y="789"/>
      <point x="356" y="729"/>
      <point x="374" y="676" type="qcurve"/>
      <point x="456" y="435" type="line"/>
      <point x="457" y="432"/>
      <point x="457" y="426" type="qcurve"/>
      <point x="457" y="424" type="line"/>
      <point x="445" y="284" type="line"/>
      <point x="441" y="235"/>
      <point x="394" y="129"/>
      <point x="307" y="47"/>
      <point x="257" y="47" type="qcurve"/>
      <point x="233" y="47"/>
      <point x="189" y="51" type="qcurve"/>
      <point x="173" y="-29"/>
      <point x="141" y="-29" type="qcurve"/>
      <point x="111" y="-29"/>
      <point x="59" y="3"/>
      <point x="59" y="29" type="qcurve"/>
      <point x="59" y="49"/>
      <point x="84" y="79"/>
      <point x="115" y="93"/>
      <point x="140" y="111"/>
      <point x="140" y="121" type="qcurve"/>
      <point x="140" y="165"/>
      <point x="115" y="356"/>
      <point x="115" y="401" type="qcurve"/>
      <point x="115" y="402"/>
      <point x="116" y="407"/>
      <point x="116" y="408" type="qcurve"/>
      <point x="116" y="676" type="line"/>
      <point x="116" y="687"/>
      <point x="132" y="703"/>
      <point x="154" y="703"/>
      <point x="170" y="687"/>
      <point x="170" y="676" type="qcurve"/>
      <point x="170" y="408" type="line"/>
      <point x="170" y="401" type="line"/>
      <point x="170" y="357"/>
      <point x="195" y="167"/>
      <point x="195" y="122" type="qcurve"/>
      <point x="195" y="105" type="line"/>
      <point x="200" y="105"/>
      <point x="247" y="101"/>
      <point x="257" y="101" type="qcurve"/>
      <point x="287" y="101"/>
      <point x="334" y="146"/>
      <point x="355" y="194"/>
      <point x="385" y="280"/>
      <point x="391" y="293" type="qcurve"/>
      <point x="402" y="423" type="line"/>
      <point x="322" y="658" type="line"/>
      <point x="309" y="694"/>
      <point x="239" y="735"/>
      <point x="191" y="735" type="qcurve"/>
      <point x="151" y="735"/>
      <point x="111" y="704"/>
      <point x="104" y="672" type="qcurve"/>
      <point x="99" y="651"/>
      <point x="77" y="651" type="qcurve"/>
      <point x="66" y="651"/>
      <point x="50" y="667"/>
    </contour>
  </outline>
</glyph>
<glyph name="J" format="2">
  <advance width="420"/>
  <unicode hex="004A"/>
  <outline>
    <contour>
      <point x="243" y="238" type="line"/>
      <point x="243" y="238"/>
      <point x="242" y="236" type="qcurve"/>
      <point x="240" y="235"/>
      <point x="236" y="232"/>
      <point x="235" y="231" type="qcurve"/>
      <point x="235" y="233"/>
      <point x="236" y="238"/>
      <point x="236" y="239" type="qcurve"/>
      <point x="236" y="240" type="line"/>
      <point x="236" y="239" type="line"/>
      <point x="238" y="239"/>
      <point x="240" y="238" type="qcurve"/>
    </contour>
    <contour>
      <point x="243" y="238" type="line"/>
    </contour>
    <contour>
      <point x="144" y="132" type="qcurve"/>
      <point x="144" y="38"/>
      <point x="158" y="26" type="qcurve"/>
      <point x="187" y="26"/>
      <point x="228" y="85"/>
      <point x="228" y="126" type="qcurve"/>
      <point x="228" y="200"/>
      <point x="229" y="221" type="qcurve"/>
      <point x="168" y="181"/>
      <point x="153" y="159" type="qcurve"/>
      <point x="144" y="145"/>
    </contour>
    <contour>
      <point x="158" y="22" type="qcurve"/>
      <point x="140" y="22"/>
      <point x="140" y="132" type="qcurve"/>
      <point x="140" y="147"/>
      <point x="164" y="180"/>
      <point x="184" y="197"/>
      <point x="233" y="229"/>
      <point x="235" y="231" type="qcurve"/>
      <point x="232" y="177"/>
      <point x="232" y="126" type="qcurve"/>
      <point x="232" y="83"/>
      <point x="189" y="22"/>
    </contour>
    <contour>
      <point x="167" y="-20" type="qcurve"/>
      <point x="206" y="-20"/>
      <point x="269" y="43"/>
      <point x="269" y="84" type="qcurve"/>
      <point x="269" y="120"/>
      <point x="268" y="264"/>
      <point x="268" y="299" type="qcurve"/>
      <point x="268" y="312"/>
      <point x="304" y="354" type="qcurve"/>
      <point x="340" y="395" type="line"/>
      <point x="364" y="467" type="line"/>
      <point x="365" y="469"/>
      <point x="365" y="474" type="qcurve"/>
      <point x="365" y="483"/>
      <point x="352" y="496"/>
      <point x="343" y="496" type="qcurve"/>
      <point x="328" y="496"/>
      <point x="322" y="481" type="qcurve"/>
      <point x="299" y="413" type="line"/>
      <point x="280" y="377"/>
      <point x="270" y="377" type="qcurve"/>
      <point x="267" y="377"/>
      <point x="267" y="379" type="qcurve"/>
      <point x="267" y="382" type="line"/>
      <point x="267" y="441"/>
      <point x="215" y="662"/>
      <point x="215" y="718" type="qcurve"/>
      <point x="215" y="736" type="line"/>
      <point x="215" y="815"/>
      <point x="186" y="815" type="qcurve"/>
      <point x="162" y="815"/>
      <point x="162" y="784" type="qcurve"/>
      <point x="162" y="783"/>
      <point x="163" y="775"/>
      <point x="163" y="772" type="qcurve"/>
      <point x="163" y="768"/>
      <point x="159" y="754"/>
      <point x="159" y="748" type="qcurve"/>
      <point x="159" y="729"/>
      <point x="126" y="691"/>
      <point x="88" y="664"/>
      <point x="55" y="620"/>
      <point x="55" y="594" type="qcurve"/>
      <point x="55" y="543"/>
      <point x="114" y="459"/>
      <point x="161" y="459" type="qcurve"/>
      <point x="176" y="459"/>
      <point x="203" y="486"/>
      <point x="208" y="486" type="qcurve"/>
      <point x="214" y="486"/>
      <point x="223" y="401"/>
      <point x="223" y="382" type="qcurve"/>
      <point x="223" y="336"/>
      <point x="186" y="254"/>
      <point x="139" y="203"/>
      <point x="85" y="131"/>
      <point x="74" y="99" type="qcurve"/>
      <point x="71" y="90"/>
      <point x="71" y="80" type="qcurve"/>
      <point x="71" y="47"/>
      <point x="134" y="-20"/>
    </contour>
    <contour>
      <point x="186" y="820" type="qcurve"/>
      <point x="220" y="820"/>
      <point x="220" y="736" type="qcurve"/>
      <point x="220" y="718" type="line"/>
      <point x="220" y="662"/>
      <point x="272" y="444"/>
      <point x="272" y="386" type="qcurve"/>
      <point x="278" y="393"/>
      <point x="292" y="413"/>
      <point x="294" y="415" type="qcurve"/>
      <point x="317" y="483" type="line"/>
      <point x="322" y="501"/>
      <point x="343" y="501" type="qcurve"/>
      <point x="354" y="501"/>
      <point x="370" y="485"/>
      <point x="370" y="474" type="qcurve"/>
      <point x="370" y="468"/>
      <point x="369" y="465" type="qcurve"/>
      <point x="345" y="393" type="line"/>
      <point x="342" y="384"/>
      <point x="318" y="351"/>
      <point x="279" y="305"/>
      <point x="273" y="298" type="qcurve"/>
      <point x="274" y="227"/>
      <point x="274" y="84" type="qcurve"/>
      <point x="274" y="41"/>
      <point x="209" y="-25"/>
      <point x="167" y="-25" type="qcurve"/>
      <point x="131" y="-25"/>
      <point x="66" y="44"/>
      <point x="66" y="80" type="qcurve"/>
      <point x="66" y="95"/>
      <point x="79" y="129"/>
      <point x="90" y="147"/>
      <point x="120" y="186"/>
      <point x="123" y="191" type="qcurve"/>
      <point x="164" y="249"/>
      <point x="218" y="317" type="qcurve"/>
      <point x="218" y="382" type="line"/>
      <point x="218" y="419"/>
      <point x="207" y="478" type="qcurve"/>
      <point x="183" y="454"/>
      <point x="161" y="454" type="qcurve"/>
      <point x="112" y="454"/>
      <point x="50" y="541"/>
      <point x="50" y="594" type="qcurve"/>
      <point x="50" y="620"/>
      <point x="82" y="665"/>
      <point x="122" y="692"/>
      <point x="154" y="729"/>
      <point x="154" y="748" type="qcurve"/>
      <point x="154" y="756"/>
      <point x="157" y="776"/>
      <point x="157" y="784" type="qcurve"/>
      <point x="157" y="820"/>
    </contour>
    <contour>
      <point x="200" y="592" type="qcurve"/>
      <point x="200" y="562"/>
      <point x="175" y="516"/>
      <point x="137" y="516"/>
      <point x="111" y="561"/>
      <point x="111" y="623"/>
      <point x="137" y="668"/>
      <point x="175" y="668"/>
      <point x="200" y="623"/>
    </contour>
    <contour>
      <point x="156" y="520" type="qcurve"/>
      <point x="172" y="520"/>
      <point x="195" y="564"/>
      <point x="195" y="592" type="qcurve"/>
      <point x="195" y="622"/>
      <point x="171" y="664"/>
      <point x="141" y="664"/>
      <point x="116" y="622"/>
      <point x="116" y="562"/>
      <point x="141" y="520"/>
    </contour>
  </outline>
</glyph>
<glyph name="O" format="2">
  <advance width="563"/>
  <unicode hex="004F"/>
  <outline>
    <contour>
      <point x="105" y="289" type="qcurve"/>
      <point x="105" y="110"/>
      <point x="202" y="41" type="qcurve"/>
      <point x="206" y="41" type="line"/>
      <point x="226" y="41"/>
      <point x="307" y="29"/>
      <point x="326" y="29" type="qcurve"/>
      <point x="361" y="29"/>
      <point x="426" y="182"/>
      <point x="458" y="340"/>
      <point x="458" y="375" type="qcurve"/>
      <point x="458" y="454"/>
      <point x="407" y="577" type="qcurve"/>
      <point x="405" y="550"/>
      <point x="386" y="484"/>
      <point x="344" y="425"/>
      <point x="318" y="425" type="qcurve"/>
      <point x="307" y="425"/>
      <point x="290" y="441"/>
      <point x="290" y="452" type="qcurve"/>
      <point x="290" y="466"/>
      <point x="301" y="474" type="qcurve"/>
      <point x="353" y="513"/>
      <point x="353" y="592" type="qcurve"/>
      <point x="353" y="650"/>
      <point x="293" y="741"/>
      <point x="241" y="741" type="qcurve"/>
      <point x="181" y="741"/>
      <point x="117" y="644"/>
      <point x="117" y="578" type="qcurve"/>
      <point x="117" y="532" type="line"/>
      <point x="117" y="493"/>
      <point x="105" y="329"/>
    </contour>
    <contour>
      <point x="241" y="746" type="qcurve"/>
      <point x="295" y="746"/>
      <point x="358" y="653"/>
      <point x="358" y="592" type="qcurve"/>
      <point x="358" y="511"/>
      <point x="304" y="470" type="qcurve"/>
      <point x="295" y="463"/>
      <point x="295" y="452" type="qcurve"/>
      <point x="295" y="443"/>
      <point x="309" y="430"/>
      <point x="318" y="430" type="qcurve"/>
      <point x="344" y="430"/>
      <point x="385" y="510"/>
      <point x="404" y="591"/>
      <point x="405" y="591" type="qcurve"/>
      <point x="424" y="591"/>
      <point x="463" y="407"/>
      <point x="463" y="375" type="qcurve"/>
      <point x="462" y="336"/>
      <point x="430" y="178"/>
      <point x="363" y="24"/>
      <point x="326" y="24" type="qcurve"/>
      <point x="306" y="24"/>
      <point x="226" y="36"/>
      <point x="206" y="36" type="qcurve"/>
      <point x="201" y="36" type="line"/>
      <point x="196" y="36"/>
      <point x="170" y="62" type="qcurve"/>
      <point x="100" y="132"/>
      <point x="100" y="289" type="qcurve"/>
      <point x="100" y="329"/>
      <point x="112" y="493"/>
      <point x="112" y="532" type="qcurve"/>
      <point x="112" y="578" type="line"/>
      <point x="112" y="646"/>
      <point x="179" y="746"/>
    </contour>
    <contour>
      <point x="240" y="791" type="qcurve"/>
      <point x="159" y="791"/>
      <point x="67" y="662"/>
      <point x="67" y="578" type="qcurve"/>
      <point x="67" y="532" type="line"/>
      <point x="66" y="507"/>
      <point x="55" y="335"/>
      <point x="55" y="289" type="qcurve"/>
      <point x="55" y="78"/>
      <point x="182" y="-5" type="qcurve"/>
      <point x="188" y="-8"/>
      <point x="194" y="-8" type="qcurve"/>
      <point x="206" y="-8" type="line"/>
      <point x="224" y="-8"/>
      <point x="306" y="-20"/>
      <point x="326" y="-20" type="qcurve"/>
      <point x="368" y="-20"/>
      <point x="441" y="74"/>
      <point x="484" y="208"/>
      <point x="508" y="335"/>
      <point x="508" y="376" type="qcurve"/>
      <point x="508" y="526"/>
      <point x="391" y="718" type="qcurve"/>
      <point x="384" y="728"/>
      <point x="372" y="728" type="qcurve"/>
      <point x="370" y="728"/>
      <point x="364" y="727"/>
      <point x="363" y="727" type="qcurve"/>
      <point x="361" y="727"/>
      <point x="353" y="736"/>
      <point x="345" y="747"/>
      <point x="344" y="748" type="qcurve"/>
      <point x="301" y="791"/>
    </contour>
    <contour>
      <point x="326" y="-25" type="qcurve"/>
      <point x="305" y="-25"/>
      <point x="224" y="-13"/>
      <point x="206" y="-13" type="qcurve"/>
      <point x="194" y="-13" type="line"/>
      <point x="174" y="-13"/>
      <point x="134" y="27" type="qcurve"/>
      <point x="86" y="75"/>
      <point x="50" y="199"/>
      <point x="50" y="289" type="qcurve"/>
      <point x="50" y="335"/>
      <point x="61" y="507"/>
      <point x="62" y="532" type="qcurve"/>
      <point x="62" y="578" type="line"/>
      <point x="62" y="664"/>
      <point x="157" y="796"/>
      <point x="240" y="796" type="qcurve"/>
      <point x="316" y="796"/>
      <point x="364" y="732" type="qcurve"/>
      <point x="367" y="733"/>
      <point x="372" y="733" type="qcurve"/>
      <point x="387" y="733"/>
      <point x="395" y="720" type="qcurve"/>
      <point x="513" y="526"/>
      <point x="513" y="376" type="qcurve"/>
      <point x="513" y="333"/>
      <point x="488" y="204"/>
      <point x="445" y="70"/>
      <point x="369" y="-25"/>
    </contour>
  </outline>
</glyph>
<glyph name="j" format="2">
  <advance width="280"/>
  <unicode hex="006A"/>
  <outline>
    <contour>
      <point x="206" y="504" type="line"/>
      <point x="206" y="516"/>
      <point x="185" y="542"/>
      <point x="173" y="542" type="qcurve"/>
      <point x="146" y="542"/>
      <point x="143" y="500" type="qcurve"/>
      <point x="143" y="472"/>
      <point x="177" y="472" type="qcurve"/>
      <point x="189" y="472"/>
      <point x="206" y="488"/>
      <point x="206" y="500" type="qcurve"/>
    </contour>
    <contour>
      <point x="276" y="92" type="qcurve"/>
      <point x="276" y="104"/>
      <point x="262" y="122"/>
      <point x="251" y="122" type="qcurve"/>
      <point x="242" y="122"/>
      <point x="229" y="109"/>
      <point x="229" y="100" type="qcurve"/>
      <point x="229" y="88" type="line"/>
      <point x="229" y="83"/>
      <point x="213" y="54"/>
      <point x="210" y="54" type="qcurve"/>
      <point x="205" y="54"/>
      <point x="178" y="201"/>
      <point x="178" y="216" type="qcurve"/>
      <point x="178" y="235"/>
      <point x="198" y="315"/>
      <point x="198" y="336" type="qcurve"/>
      <point x="198" y="361" type="line"/>
      <point x="198" y="368"/>
      <point x="200" y="396"/>
      <point x="200" y="404" type="qcurve"/>
      <point x="200" y="417"/>
      <point x="178" y="436"/>
      <point x="165" y="436" type="qcurve"/>
      <point x="146" y="436"/>
      <point x="128" y="396"/>
      <point x="128" y="377" type="qcurve"/>
      <point x="128" y="372"/>
      <point x="129" y="350"/>
      <point x="129" y="344" type="qcurve"/>
      <point x="129" y="336"/>
      <point x="127" y="303"/>
      <point x="127" y="295" type="qcurve"/>
      <point x="127" y="283"/>
      <point x="132" y="234"/>
      <point x="132" y="223" type="qcurve"/>
      <point x="132" y="201"/>
      <point x="92" y="163"/>
      <point x="45" y="139"/>
      <point x="5" y="111"/>
      <point x="5" y="98" type="qcurve"/>
      <point x="5" y="89"/>
      <point x="18" y="76"/>
      <point x="27" y="76" type="qcurve"/>
      <point x="81" y="76"/>
      <point x="140" y="148" type="qcurve"/>
      <point x="140" y="149"/>
      <point x="142" y="149" type="qcurve"/>
      <point x="147" y="149"/>
      <point x="171" y="14"/>
      <point x="171" y="-1" type="qcurve"/>
      <point x="171" y="-18"/>
      <point x="117" y="-119"/>
      <point x="117" y="-152" type="qcurve"/>
      <point x="117" y="-159" type="line"/>
      <point x="117" y="-162"/>
      <point x="114" y="-173"/>
      <point x="114" y="-176" type="qcurve"/>
      <point x="114" y="-203"/>
      <point x="157" y="-238"/>
      <point x="183" y="-238" type="qcurve"/>
      <point x="206" y="-238"/>
      <point x="228" y="-184"/>
      <point x="228" y="-154" type="qcurve"/>
      <point x="228" y="-130"/>
      <point x="218" y="-37"/>
      <point x="218" y="-15" type="qcurve"/>
      <point x="218" y="-1"/>
      <point x="276" y="67"/>
    </contour>
    <contour>
      <point x="138" y="500" type="qcurve"/>
      <point x="138" y="517"/>
      <point x="155" y="547"/>
      <point x="173" y="547" type="qcurve"/>
      <point x="187" y="547"/>
      <point x="211" y="519"/>
      <point x="211" y="504" type="qcurve"/>
      <point x="211" y="500" type="line"/>
      <point x="211" y="485"/>
      <point x="192" y="467"/>
      <point x="177" y="467" type="qcurve"/>
      <point x="161" y="467"/>
      <point x="138" y="484"/>
    </contour>
    <contour>
      <point x="165" y="441" type="qcurve"/>
      <point x="180" y="441"/>
      <point x="205" y="419"/>
      <point x="205" y="404" type="qcurve"/>
      <point x="205" y="396"/>
      <point x="203" y="368"/>
      <point x="203" y="361" type="qcurve"/>
      <point x="203" y="336" type="line"/>
      <point x="203" y="270"/>
      <point x="183" y="216" type="qcurve"/>
      <point x="187" y="187"/>
      <point x="209" y="73"/>
      <point x="211" y="64" type="qcurve"/>
      <point x="220" y="78"/>
      <point x="224" y="89" type="qcurve"/>
      <point x="224" y="100" type="line"/>
      <point x="224" y="111"/>
      <point x="240" y="127"/>
      <point x="251" y="127" type="qcurve"/>
      <point x="264" y="127"/>
      <point x="281" y="107"/>
      <point x="281" y="92" type="qcurve"/>
      <point x="281" y="80"/>
      <point x="274" y="55"/>
      <point x="258" y="29"/>
      <point x="247" y="13"/>
      <point x="225" y="-13"/>
      <point x="223" y="-16" type="qcurve"/>
      <point x="233" y="-106"/>
      <point x="233" y="-154" type="qcurve"/>
      <point x="233" y="-186"/>
      <point x="209" y="-243"/>
      <point x="183" y="-243" type="qcurve"/>
      <point x="155" y="-243"/>
      <point x="109" y="-205"/>
      <point x="109" y="-176" type="qcurve"/>
      <point x="109" y="-168"/>
      <point x="112" y="-159" type="qcurve"/>
      <point x="112" y="-152" type="line"/>
      <point x="112" y="-74"/>
      <point x="166" y="0" type="qcurve"/>
      <point x="163" y="21"/>
      <point x="140" y="140" type="qcurve"/>
      <point x="119" y="114"/>
      <point x="57" y="71"/>
      <point x="27" y="71" type="qcurve"/>
      <point x="16" y="71"/>
      <point x="0" y="87"/>
      <point x="0" y="98" type="qcurve"/>
      <point x="0" y="119"/>
      <point x="19" y="124" type="qcurve"/>
      <point x="93" y="146"/>
      <point x="127" y="224" type="qcurve"/>
      <point x="122" y="262"/>
      <point x="122" y="295" type="qcurve"/>
      <point x="122" y="303"/>
      <point x="124" y="336"/>
      <point x="124" y="344" type="qcurve"/>
      <point x="124" y="349"/>
      <point x="123" y="371"/>
      <point x="123" y="377" type="qcurve"/>
      <point x="123" y="397"/>
      <point x="144" y="441"/>
    </contour>
  </outline>
</glyph>
<glyph name="t" format="2">
  <advance width="410"/>
  <unicode hex="0074"/>
  <outline>
    <contour>
      <point x="55" y="570" type="line"/>
      <point x="63" y="570"/>
      <point x="101" y="558"/>
      <point x="113" y="558" type="qcurve"/>
      <point x="118" y="558"/>
      <point x="118" y="555" type="qcurve"/>
      <point x="119" y="523" type="line"/>
      <point x="119" y="522" type="line"/>
      <point x="127" y="444" type="line"/>
      <point x="128" y="429"/>
      <point x="145" y="348"/>
      <point x="145" y="325" type="qcurve"/>
      <point x="145" y="272"/>
      <point x="57" y="146"/>
      <point x="13" y="109" type="qcurve"/>
      <point x="5" y="103"/>
      <point x="5" y="92" type="qcurve"/>
      <point x="5" y="83"/>
      <point x="18" y="70"/>
      <point x="27" y="70" type="qcurve"/>
      <point x="49" y="70"/>
      <point x="103" y="144"/>
      <point x="146" y="219"/>
      <point x="154" y="219" type="qcurve"/>
      <point x="157" y="219"/>
      <point x="163" y="161"/>
      <point x="166" y="93"/>
      <point x="167" y="89" type="qcurve"/>
      <point x="173" y="49" type="line"/>
      <point x="177" y="19"/>
      <point x="233" y="-11"/>
      <point x="270" y="-11" type="qcurve"/>
      <point x="274" y="-11"/>
      <point x="292" y="-10"/>
      <point x="297" y="-10" type="qcurve"/>
      <point x="323" y="-10"/>
      <point x="374" y="26"/>
      <point x="384" y="46" type="qcurve"/>
      <point x="404" y="86" type="line"/>
      <point x="406" y="89"/>
      <point x="406" y="96" type="qcurve"/>
      <point x="406" y="105"/>
      <point x="392" y="118"/>
      <point x="383" y="118" type="qcurve"/>
      <point x="368" y="118"/>
      <point x="363" y="106" type="qcurve"/>
      <point x="346" y="71" type="line"/>
      <point x="341" y="61"/>
      <point x="308" y="34"/>
      <point x="297" y="34" type="qcurve"/>
      <point x="282" y="34" type="line"/>
      <point x="245" y="34"/>
      <point x="220" y="42"/>
      <point x="217" y="60" type="qcurve"/>
      <point x="212" y="94" type="line"/>
      <point x="190" y="242"/>
      <point x="190" y="320" type="qcurve"/>
      <point x="190" y="343"/>
      <point x="213" y="574"/>
      <point x="221" y="575" type="qcurve"/>
      <point x="235" y="577"/>
      <point x="241" y="577" type="qcurve"/>
      <point x="242" y="577" type="line"/>
      <point x="322" y="531" type="line"/>
      <point x="326" y="528"/>
      <point x="333" y="528" type="qcurve"/>
      <point x="342" y="528"/>
      <point x="356" y="541"/>
      <point x="356" y="550" type="qcurve"/>
      <point x="356" y="562"/>
      <point x="345" y="569" type="qcurve"/>
      <point x="259" y="619" type="line"/>
      <point x="254" y="622"/>
      <point x="247" y="622" type="qcurve"/>
      <point x="243" y="622" type="line"/>
      <point x="240" y="622"/>
      <point x="226" y="621"/>
      <point x="222" y="621" type="qcurve"/>
      <point x="220" y="621"/>
      <point x="220" y="624" type="qcurve"/>
      <point x="220" y="638" type="line"/>
      <point x="220" y="642"/>
      <point x="220" y="649" type="qcurve"/>
      <point x="220" y="682"/>
      <point x="218" y="720"/>
      <point x="210" y="777"/>
      <point x="187" y="806"/>
      <point x="169" y="806" type="qcurve"/>
      <point x="155" y="806"/>
      <point x="133" y="786"/>
      <point x="131" y="775" type="qcurve"/>
      <point x="121" y="699" type="line"/>
      <point x="121" y="698" type="line"/>
      <point x="115" y="628" type="line"/>
      <point x="115" y="626" type="line"/>
      <point x="115" y="622"/>
      <point x="116" y="608"/>
      <point x="116" y="602"/>
      <point x="113" y="602" type="qcurve"/>
      <point x="105" y="602"/>
      <point x="67" y="614"/>
      <point x="55" y="614" type="qcurve"/>
      <point x="51" y="614" type="line"/>
      <point x="42" y="614"/>
      <point x="29" y="601"/>
      <point x="29" y="583"/>
      <point x="42" y="570"/>
      <point x="51" y="570" type="qcurve"/>
    </contour>
    <contour>
      <point x="55" y="619" type="line"/>
      <point x="68" y="619"/>
      <point x="104" y="609"/>
      <point x="111" y="608" type="qcurve"/>
      <point x="111" y="611"/>
      <point x="110" y="623"/>
      <point x="110" y="626" type="qcurve"/>
      <point x="110" y="628" type="line"/>
      <point x="116" y="698" type="line"/>
      <point x="116" y="700" type="line"/>
      <point x="126" y="776" type="line"/>
      <point x="128" y="789"/>
      <point x="153" y="811"/>
      <point x="169" y="811" type="qcurve"/>
      <point x="183" y="811"/>
      <point x="203" y="798"/>
      <point x="215" y="768"/>
      <point x="222" y="744"/>
      <point x="225" y="697"/>
      <point x="225" y="676"/>
      <point x="225" y="651" type="qcurve"/>
      <point x="225" y="642"/>
      <point x="225" y="638" type="qcurve"/>
      <point x="225" y="626" type="line"/>
      <point x="231" y="627"/>
      <point x="243" y="627" type="qcurve"/>
      <point x="247" y="627" type="line"/>
      <point x="255" y="627"/>
      <point x="261" y="624" type="qcurve"/>
      <point x="347" y="574" type="line"/>
      <point x="361" y="565"/>
      <point x="361" y="550" type="qcurve"/>
      <point x="361" y="539"/>
      <point x="344" y="523"/>
      <point x="333" y="523" type="qcurve"/>
      <point x="326" y="523"/>
      <point x="320" y="526" type="qcurve"/>
      <point x="240" y="572" type="line"/>
      <point x="230" y="572"/>
      <point x="224" y="571" type="qcurve"/>
      <point x="219" y="401"/>
      <point x="196" y="319" type="qcurve"/>
      <point x="199" y="283"/>
      <point x="214" y="135"/>
      <point x="217" y="95" type="qcurve"/>
      <point x="222" y="61" type="line"/>
      <point x="231" y="44"/>
      <point x="244" y="39"/>
      <point x="282" y="39" type="qcurve"/>
      <point x="297" y="39" type="line"/>
      <point x="305" y="39"/>
      <point x="321" y="51"/>
      <point x="339" y="71"/>
      <point x="342" y="74" type="qcurve"/>
      <point x="359" y="108" type="line"/>
      <point x="366" y="123"/>
      <point x="383" y="123" type="qcurve"/>
      <point x="394" y="123"/>
      <point x="411" y="107"/>
      <point x="411" y="96" type="qcurve"/>
      <point x="411" y="90"/>
      <point x="408" y="84" type="qcurve"/>
      <point x="388" y="44" type="line"/>
      <point x="377" y="23"/>
      <point x="325" y="-15"/>
      <point x="297" y="-15" type="qcurve"/>
      <point x="292" y="-15"/>
      <point x="274" y="-16"/>
      <point x="270" y="-16" type="qcurve"/>
      <point x="232" y="-16"/>
      <point x="173" y="17"/>
      <point x="168" y="48" type="qcurve"/>
      <point x="162" y="88" type="line"/>
      <point x="159" y="109"/>
      <point x="154" y="190"/>
      <point x="152" y="208" type="qcurve"/>
      <point x="79" y="65"/>
      <point x="27" y="65" type="qcurve"/>
      <point x="16" y="65"/>
      <point x="0" y="81"/>
      <point x="0" y="92" type="qcurve"/>
      <point x="0" y="101"/>
      <point x="9" y="114"/>
      <point x="30" y="132"/>
      <point x="31" y="133" type="qcurve"/>
      <point x="104" y="206"/>
      <point x="140" y="326" type="qcurve"/>
      <point x="138" y="342" type="line"/>
      <point x="124" y="418"/>
      <point x="122" y="443" type="qcurve"/>
      <point x="114" y="521" type="line"/>
      <point x="113" y="531"/>
      <point x="113" y="553" type="qcurve"/>
      <point x="101" y="553"/>
      <point x="63" y="565"/>
      <point x="55" y="565" type="qcurve"/>
      <point x="51" y="565" type="line"/>
      <point x="40" y="565"/>
      <point x="24" y="581"/>
      <point x="24" y="603"/>
      <point x="40" y="619"/>
      <point x="51" y="619" type="qcurve"/>
    </contour>
  </outline>
</glyph>
<glyph name="braceleft" format="2">
  <advance width="306"/>
  <unicode hex="007B"/>
  <outline>
    <contour>
      <point x="204" y="807" type="qcurve"/>
      <point x="159" y="807"/>
      <point x="114" y="736"/>
      <point x="114" y="686" type="qcurve"/>
      <point x="114" y="658"/>
      <point x="131" y="534"/>
      <point x="131" y="506" type="qcurve"/>
      <point x="131" y="486"/>
      <point x="68" y="430"/>
      <point x="68" y="407" type="qcurve"/>
      <point x="68" y="398"/>
      <point x="81" y="385"/>
      <point x="90" y="385" type="qcurve"/>
      <point x="97" y="385" type="line"/>
      <point x="115" y="385"/>
      <point x="126" y="307"/>
      <point x="125" y="195"/>
      <point x="131" y="83"/>
      <point x="171" y="5"/>
      <point x="211" y="5" type="qcurve"/>
      <point x="238" y="5"/>
      <point x="238" y="28" type="qcurve"/>
      <point x="238" y="37"/>
      <point x="225" y="50"/>
      <point x="216" y="50" type="qcurve"/>
      <point x="211" y="50" type="line"/>
      <point x="185" y="50"/>
      <point x="164" y="219"/>
      <point x="148" y="406"/>
      <point x="128" y="420" type="qcurve"/>
      <point x="127" y="420"/>
      <point x="127" y="422" type="qcurve"/>
      <point x="127" y="431"/>
      <point x="175" y="484"/>
      <point x="175" y="506" type="qcurve"/>
      <point x="175" y="534"/>
      <point x="159" y="659"/>
      <point x="159" y="687" type="qcurve"/>
      <point x="159" y="723"/>
      <point x="180" y="759"/>
      <point x="208" y="763" type="qcurve"/>
      <point x="226" y="767"/>
      <point x="226" y="785" type="qcurve"/>
      <point x="226" y="794"/>
      <point x="213" y="807"/>
    </contour>
    <contour>
      <point x="211" y="0" type="qcurve"/>
      <point x="171" y="0"/>
      <point x="128" y="78"/>
      <point x="120" y="190"/>
      <point x="121" y="302"/>
      <point x="112" y="380"/>
      <point x="97" y="380" type="qcurve"/>
      <point x="90" y="380" type="line"/>
      <point x="79" y="380"/>
      <point x="63" y="396"/>
      <point x="63" y="407" type="qcurve"/>
      <point x="63" y="432"/>
      <point x="126" y="486"/>
      <point x="126" y="506" type="qcurve"/>
      <point x="126" y="533"/>
      <point x="109" y="658"/>
      <point x="109" y="686" type="qcurve"/>
      <point x="109" y="737"/>
      <point x="158" y="812"/>
      <point x="204" y="812" type="qcurve"/>
      <point x="215" y="812"/>
      <point x="231" y="796"/>
      <point x="231" y="785" type="qcurve"/>
      <point x="231" y="771"/>
      <point x="210" y="752"/>
      <point x="185" y="742"/>
      <point x="164" y="712"/>
      <point x="164" y="687" type="qcurve"/>
      <point x="164" y="660"/>
      <point x="180" y="534"/>
      <point x="180" y="506" type="qcurve"/>
      <point x="180" y="469"/>
      <point x="133" y="422" type="qcurve"/>
      <point x="152" y="408"/>
      <point x="170" y="223"/>
      <point x="190" y="55"/>
      <point x="211" y="55" type="qcurve"/>
      <point x="216" y="55" type="line"/>
      <point x="227" y="55"/>
      <point x="243" y="39"/>
      <point x="243" y="28" type="qcurve"/>
      <point x="243" y="0"/>
    </contour>
  </outline>
</glyph>
<glyph name="F.1" format="2">
  <advance width="586"/>
  <outline>
    <contour>
      <point x="103" y="419" type="qcurve"/>
      <point x="111" y="419" type="line"/>
      <point x="126" y="419"/>
      <point x="143" y="416" type="qcurve"/>
      <point x="160" y="412"/>
      <point x="181" y="407" type="qcurve"/>
      <point x="202" y="401"/>
      <point x="212" y="399" type="qcurve"/>
      <point x="212" y="399"/>
      <point x="213" y="399" type="qcurve"/>
      <point x="299" y="395" type="line"/>
      <point x="304" y="395"/>
      <point x="304" y="400" type="qcurve"/>
      <point x="304" y="405"/>
      <point x="299" y="405" type="qcurve"/>
      <point x="214" y="409" type="line"/>
      <point x="203" y="411"/>
      <point x="182" y="417" type="qcurve"/>
      <point x="161" y="422"/>
      <point x="144" y="426" type="qcurve"/>
      <point x="126" y="429"/>
      <point x="111" y="429" type="qcurve"/>
      <point x="103" y="429" type="line"/>
      <point x="98" y="429"/>
      <point x="98" y="424" type="qcurve"/>
      <point x="98" y="419"/>
    </contour>
    <contour>
      <point x="181" y="286" type="qcurve"/>
      <point x="181" y="261"/>
      <point x="182" y="238" type="qcurve"/>
      <point x="179" y="224"/>
      <point x="179" y="199" type="qcurve"/>
      <point x="179" y="186"/>
      <point x="180" y="160" type="qcurve"/>
      <point x="181" y="134"/>
      <point x="181" y="122" type="qcurve"/>
      <point x="181" y="69"/>
      <point x="168" y="40" type="qcurve"/>
      <point x="154" y="11"/>
      <point x="115" y="11" type="qcurve"/>
      <point x="112" y="11"/>
      <point x="109" y="11" type="qcurve"/>
      <point x="85" y="12"/>
      <point x="77" y="16" type="qcurve"/>
      <point x="76" y="17"/>
      <point x="75" y="17" type="qcurve"/>
      <point x="70" y="17"/>
      <point x="70" y="12" type="qcurve"/>
      <point x="70" y="9"/>
      <point x="73" y="8" type="qcurve"/>
      <point x="82" y="2"/>
      <point x="109" y="1" type="qcurve"/>
      <point x="134" y="-1"/>
      <point x="152" y="9" type="qcurve"/>
      <point x="169" y="18"/>
      <point x="177" y="37" type="qcurve"/>
      <point x="185" y="56"/>
      <point x="188" y="76" type="qcurve"/>
      <point x="191" y="95"/>
      <point x="191" y="122" type="qcurve"/>
      <point x="191" y="134"/>
      <point x="190" y="160" type="qcurve"/>
      <point x="189" y="186"/>
      <point x="189" y="199" type="qcurve"/>
      <point x="189" y="223"/>
      <point x="192" y="237" type="qcurve"/>
      <point x="192" y="237"/>
      <point x="192" y="238" type="qcurve"/>
      <point x="191" y="261"/>
      <point x="191" y="286" type="qcurve"/>
      <point x="191" y="326"/>
      <point x="196" y="407" type="qcurve"/>
      <point x="200" y="488"/>
      <point x="200" y="529" type="qcurve"/>
      <point x="200" y="548"/>
      <point x="200" y="550" type="qcurve"/>
      <point x="198" y="569"/>
      <point x="198" y="608" type="qcurve"/>
      <point x="197" y="647"/>
      <point x="196" y="665" type="qcurve"/>
      <point x="213" y="665"/>
      <point x="236" y="675" type="qcurve"/>
      <point x="258" y="684"/>
      <point x="272" y="693" type="qcurve"/>
      <point x="286" y="701"/>
      <point x="314" y="720" type="qcurve"/>
      <point x="390" y="771"/>
      <point x="426" y="777" type="qcurve"/>
      <point x="433" y="778"/>
      <point x="440" y="778" type="qcurve"/>
      <point x="460" y="778"/>
      <point x="473" y="769" type="qcurve"/>
      <point x="486" y="759"/>
      <point x="486" y="740" type="qcurve"/>
      <point x="486" y="738"/>
      <point x="487" y="737" type="qcurve"/>
      <point x="492" y="731"/>
      <point x="496" y="714" type="qcurve"/>
      <point x="499" y="696"/>
      <point x="503" y="689" type="qcurve"/>
      <point x="504" y="687"/>
      <point x="507" y="687" type="qcurve"/>
      <point x="512" y="687"/>
      <point x="512" y="692" type="qcurve"/>
      <point x="512" y="693"/>
      <point x="511" y="695" type="qcurve"/>
      <point x="508" y="700"/>
      <point x="505" y="714" type="qcurve"/>
      <point x="501" y="734"/>
      <point x="496" y="742" type="qcurve"/>
      <point x="495" y="759"/>
      <point x="472" y="775" type="qcurve"/>
      <point x="449" y="791"/>
      <point x="439" y="791" type="qcurve"/>
      <point x="438" y="791"/>
      <point x="438" y="791" type="qcurve"/>
      <point x="438" y="790"/>
      <point x="440" y="788" type="qcurve"/>
      <point x="432" y="788"/>
      <point x="424" y="787" type="qcurve"/>
      <point x="406" y="784"/>
      <point x="384" y="774" type="qcurve"/>
      <point x="362" y="763"/>
      <point x="348" y="755" type="qcurve"/>
      <point x="334" y="746"/>
      <point x="308" y="728" type="qcurve"/>
      <point x="282" y="711"/>
      <point x="267" y="702" type="qcurve"/>
      <point x="251" y="692"/>
      <point x="231" y="684" type="qcurve"/>
      <point x="210" y="675"/>
      <point x="195" y="675" type="qcurve"/>
      <point x="189" y="729"/>
      <point x="163" y="759" type="qcurve"/>
      <point x="163" y="759"/>
      <point x="162" y="760" type="qcurve"/>
      <point x="112" y="808" type="line"/>
      <point x="111" y="809"/>
      <point x="109" y="809" type="qcurve"/>
      <point x="104" y="809"/>
      <point x="104" y="804" type="qcurve"/>
      <point x="102" y="748" type="line"/>
      <point x="102" y="746"/>
      <point x="104" y="744" type="qcurve"/>
      <point x="111" y="738"/>
      <point x="125" y="718" type="qcurve"/>
      <point x="135" y="703"/>
      <point x="141" y="695" type="qcurve"/>
      <point x="147" y="687"/>
      <point x="160" y="678" type="qcurve"/>
      <point x="172" y="668"/>
      <point x="186" y="666" type="qcurve"/>
      <point x="187" y="647"/>
      <point x="188" y="608" type="qcurve"/>
      <point x="188" y="569"/>
      <point x="190" y="550" type="qcurve"/>
      <point x="190" y="540"/>
      <point x="190" y="529" type="qcurve"/>
      <point x="190" y="488"/>
      <point x="186" y="407" type="qcurve"/>
      <point x="181" y="326"/>
    </contour>
    <contour>
      <point x="155" y="753" type="line"/>
      <point x="178" y="725"/>
      <point x="184" y="676" type="qcurve"/>
      <point x="174" y="679"/>
      <point x="164" y="687" type="qcurve"/>
      <point x="154" y="695"/>
      <point x="148" y="703" type="qcurve"/>
      <point x="142" y="710"/>
      <point x="133" y="724" type="qcurve"/>
      <point x="119" y="743"/>
      <point x="112" y="750" type="qcurve"/>
      <point x="114" y="793" type="line"/>
    </contour>
  </outline>
</glyph>
<glyph name="J.1" format="2">
  <advance width="420"/>
  <outline>
    <contour>
      <point x="153" y="487" type="qcurve"/>
      <point x="122" y="487"/>
      <point x="101" y="525" type="qcurve"/>
      <point x="80" y="563"/>
      <point x="80" y="594" type="qcurve"/>
      <point x="80" y="608"/>
      <point x="89" y="623" type="qcurve"/>
      <point x="97" y="637"/>
      <point x="106" y="646" type="qcurve"/>
      <point x="115" y="655"/>
      <point x="132" y="671" type="qcurve"/>
      <point x="150" y="686"/>
      <point x="158" y="695" type="qcurve"/>
      <point x="166" y="703"/>
      <point x="175" y="718" type="qcurve"/>
      <point x="184" y="733"/>
      <point x="184" y="748" type="qcurve"/>
      <point x="185" y="740"/>
      <point x="186" y="736" type="qcurve"/>
      <point x="186" y="726"/>
      <point x="186" y="717" type="qcurve"/>
      <point x="186" y="659"/>
      <point x="212" y="549" type="qcurve"/>
      <point x="238" y="439"/>
      <point x="238" y="382" type="qcurve"/>
      <point x="238" y="350"/>
      <point x="238" y="309" type="qcurve"/>
      <point x="174" y="227"/>
      <point x="139" y="178" type="qcurve"/>
      <point x="86" y="102"/>
      <point x="86" y="80" type="qcurve"/>
      <point x="86" y="55"/>
      <point x="119" y="22" type="qcurve"/>
      <point x="144" y="-3"/>
      <point x="165" y="-3" type="qcurve"/>
      <point x="192" y="-3"/>
      <point x="219" y="20" type="qcurve"/>
      <point x="245" y="43"/>
      <point x="248" y="69" type="qcurve"/>
      <point x="248" y="70"/>
      <point x="248" y="70" type="qcurve"/>
      <point x="248" y="72"/>
      <point x="249" y="77" type="qcurve"/>
      <point x="250" y="81"/>
      <point x="250" y="84" type="qcurve"/>
      <point x="250" y="92"/>
      <point x="248" y="306" type="qcurve"/>
      <point x="316" y="392"/>
      <point x="321" y="399" type="qcurve"/>
      <point x="322" y="400"/>
      <point x="322" y="400" type="qcurve"/>
      <point x="346" y="472" type="line"/>
      <point x="346" y="473"/>
      <point x="346" y="474" type="qcurve"/>
      <point x="346" y="479"/>
      <point x="341" y="479" type="qcurve"/>
      <point x="337" y="479"/>
      <point x="336" y="476" type="qcurve"/>
      <point x="312" y="404" type="line"/>
      <point x="306" y="395"/>
      <point x="248" y="322" type="qcurve"/>
      <point x="248" y="355"/>
      <point x="248" y="382" type="qcurve"/>
      <point x="248" y="440"/>
      <point x="222" y="550" type="qcurve"/>
      <point x="196" y="660"/>
      <point x="196" y="717" type="qcurve"/>
      <point x="196" y="720"/>
      <point x="196" y="727" type="qcurve"/>
      <point x="196" y="733"/>
      <point x="196" y="736" type="qcurve"/>
      <point x="196" y="737"/>
      <point x="196" y="737" type="qcurve"/>
      <point x="195" y="741"/>
      <point x="194" y="751" type="qcurve"/>
      <point x="192" y="760"/>
      <point x="191" y="772" type="qcurve"/>
      <point x="190" y="783"/>
      <point x="189" y="788" type="qcurve"/>
      <point x="188" y="797"/>
      <point x="183" y="797" type="qcurve"/>
      <point x="178" y="797"/>
      <point x="178" y="793" type="qcurve"/>
      <point x="178" y="792"/>
      <point x="178" y="792" type="qcurve"/>
      <point x="178" y="791"/>
      <point x="178" y="789" type="qcurve"/>
      <point x="178" y="787"/>
      <point x="178" y="786" type="qcurve"/>
      <point x="178" y="781"/>
      <point x="178" y="772" type="qcurve"/>
      <point x="178" y="768"/>
      <point x="176" y="761" type="qcurve"/>
      <point x="174" y="753"/>
      <point x="174" y="748" type="qcurve"/>
      <point x="174" y="736"/>
      <point x="167" y="723" type="qcurve"/>
      <point x="159" y="710"/>
      <point x="151" y="702" type="qcurve"/>
      <point x="142" y="693"/>
      <point x="125" y="678" type="qcurve"/>
      <point x="107" y="662"/>
      <point x="98" y="653" type="qcurve"/>
      <point x="89" y="644"/>
      <point x="80" y="627" type="qcurve"/>
      <point x="70" y="610"/>
      <point x="70" y="594" type="qcurve"/>
      <point x="70" y="559"/>
      <point x="94" y="518" type="qcurve"/>
      <point x="117" y="477"/>
      <point x="152" y="477" type="qcurve"/>
      <point x="155" y="476"/>
      <point x="158" y="476" type="qcurve"/>
      <point x="171" y="476"/>
      <point x="187" y="492" type="qcurve"/>
      <point x="200" y="505"/>
      <point x="207" y="505" type="qcurve"/>
      <point x="212" y="505"/>
      <point x="212" y="510" type="qcurve"/>
      <point x="212" y="515"/>
      <point x="207" y="515" type="qcurve"/>
      <point x="196" y="515"/>
      <point x="180" y="500" type="qcurve"/>
      <point x="166" y="486"/>
      <point x="158" y="486" type="qcurve"/>
      <point x="158" y="486"/>
      <point x="156" y="487" type="qcurve"/>
      <point x="154" y="487"/>
    </contour>
    <contour>
      <point x="238" y="293" type="qcurve"/>
      <point x="240" y="110"/>
      <point x="240" y="84" type="qcurve"/>
      <point x="240" y="82"/>
      <point x="239" y="78" type="qcurve"/>
      <point x="238" y="73"/>
      <point x="238" y="70" type="qcurve"/>
      <point x="235" y="49"/>
      <point x="212" y="28" type="qcurve"/>
      <point x="188" y="7"/>
      <point x="165" y="7" type="qcurve"/>
      <point x="149" y="7"/>
      <point x="126" y="29" type="qcurve"/>
      <point x="96" y="59"/>
      <point x="96" y="80" type="qcurve"/>
      <point x="96" y="99"/>
      <point x="147" y="172" type="qcurve"/>
      <point x="180" y="218"/>
    </contour>
  </outline>
</glyph>
<glyph name="K.0" format="2">
  <advance width="896"/>
  <outline>
    <contour>
      <point x="278" y="739" type="qcurve"/>
      <point x="288" y="641"/>
      <point x="288" y="523" type="qcurve"/>
      <point x="288" y="302"/>
      <point x="256" y="156" type="qcurve"/>
      <point x="191" y="20"/>
      <point x="185" y="7" type="qcurve"/>
      <point x="182" y="2"/>
      <point x="182" y="-4" type="qcurve"/>
      <point x="182" y="-14"/>
      <point x="190" y="-21" type="qcurve"/>
      <point x="197" y="-29"/>
      <point x="207" y="-29" type="qcurve"/>
      <point x="214" y="-29"/>
      <point x="221" y="-25" type="qcurve"/>
      <point x="229" y="-20"/>
      <point x="237" y="-12" type="qcurve"/>
      <point x="278" y="29"/>
      <point x="303" y="139" type="qcurve"/>
      <point x="366" y="270"/>
      <point x="415" y="345" type="qcurve"/>
      <point x="418" y="324"/>
      <point x="427" y="300" type="qcurve"/>
      <point x="456" y="220"/>
      <point x="533" y="142" type="qcurve"/>
      <point x="594" y="81"/>
      <point x="668" y="43" type="qcurve"/>
      <point x="742" y="5"/>
      <point x="817" y="5" type="qcurve"/>
      <point x="841" y="5"/>
      <point x="857" y="21" type="qcurve"/>
      <point x="867" y="31"/>
      <point x="877" y="55" type="qcurve"/>
      <point x="882" y="68"/>
      <point x="884" y="70" type="qcurve"/>
      <point x="892" y="77"/>
      <point x="892" y="88" type="qcurve"/>
      <point x="892" y="98"/>
      <point x="885" y="106" type="qcurve"/>
      <point x="877" y="113"/>
      <point x="867" y="113" type="qcurve"/>
      <point x="847" y="113"/>
      <point x="831" y="74" type="qcurve"/>
      <point x="825" y="60"/>
      <point x="821" y="56" type="qcurve"/>
      <point x="820" y="55"/>
      <point x="817" y="55" type="qcurve"/>
      <point x="755" y="55"/>
      <point x="689" y="89" type="qcurve"/>
      <point x="623" y="123"/>
      <point x="569" y="177" type="qcurve"/>
      <point x="499" y="247"/>
      <point x="474" y="317" type="qcurve"/>
      <point x="464" y="344"/>
      <point x="464" y="366" type="qcurve"/>
      <point x="464" y="374"/>
      <point x="466" y="382" type="qcurve"/>
      <point x="474" y="381"/>
      <point x="483" y="381" type="qcurve"/>
      <point x="550" y="381"/>
      <point x="615" y="405" type="qcurve"/>
      <point x="679" y="429"/>
      <point x="724" y="473" type="qcurve"/>
      <point x="764" y="514"/>
      <point x="779" y="566" type="qcurve"/>
      <point x="786" y="591"/>
      <point x="786" y="618" type="qcurve"/>
      <point x="786" y="666"/>
      <point x="764" y="716" type="qcurve"/>
      <point x="757" y="731"/>
      <point x="741" y="731" type="qcurve"/>
      <point x="732" y="731"/>
      <point x="722" y="726" type="qcurve"/>
      <point x="713" y="722"/>
      <point x="703" y="714" type="qcurve"/>
      <point x="685" y="701"/>
      <point x="657" y="674" type="qcurve"/>
      <point x="638" y="654"/>
      <point x="598" y="612" type="qcurve"/>
      <point x="569" y="580"/>
      <point x="558" y="569" type="qcurve"/>
      <point x="548" y="559"/>
      <point x="544" y="556" type="qcurve"/>
      <point x="506" y="528"/>
      <point x="472" y="494" type="qcurve"/>
      <point x="395" y="417"/>
      <point x="328" y="297" type="qcurve"/>
      <point x="338" y="404"/>
      <point x="338" y="523" type="qcurve"/>
      <point x="338" y="667"/>
      <point x="324" y="779" type="qcurve"/>
      <point x="323" y="788"/>
      <point x="316" y="795" type="qcurve"/>
      <point x="308" y="801"/>
      <point x="299" y="801" type="qcurve"/>
      <point x="293" y="801"/>
      <point x="287" y="798" type="qcurve"/>
      <point x="271" y="790" type="line"/>
      <point x="254" y="783"/>
      <point x="226" y="775" type="qcurve"/>
      <point x="197" y="767"/>
      <point x="173" y="767" type="qcurve"/>
      <point x="125" y="767" type="line"/>
      <point x="115" y="767"/>
      <point x="108" y="760" type="qcurve"/>
      <point x="100" y="752"/>
      <point x="100" y="742" type="qcurve"/>
      <point x="100" y="732"/>
      <point x="108" y="725" type="qcurve"/>
      <point x="115" y="717"/>
      <point x="125" y="717" type="qcurve"/>
      <point x="173" y="717" type="line"/>
      <point x="221" y="717"/>
    </contour>
    <contour>
      <point x="736" y="618" type="qcurve"/>
      <point x="736" y="598"/>
      <point x="730" y="579" type="qcurve"/>
      <point x="712" y="512"/>
      <point x="639" y="472" type="qcurve"/>
      <point x="565" y="431"/>
      <point x="482" y="431" type="qcurve"/>
      <point x="525" y="480"/>
      <point x="574" y="516" type="qcurve"/>
      <point x="581" y="521"/>
      <point x="593" y="533" type="qcurve"/>
      <point x="608" y="548"/>
      <point x="643" y="585" type="qcurve"/>
      <point x="677" y="622"/>
      <point x="693" y="638" type="qcurve"/>
      <point x="714" y="659"/>
      <point x="728" y="670" type="qcurve"/>
      <point x="736" y="643"/>
    </contour>
  </outline>
</glyph>
<glyph name="K.1" format="2">
  <advance width="896"/>
  <outline>
    <contour>
      <point x="75" y="737" type="qcurve"/>
      <point x="123" y="737" type="line"/>
      <point x="180" y="737"/>
      <point x="245" y="768" type="qcurve"/>
      <point x="258" y="660"/>
      <point x="258" y="523" type="qcurve"/>
      <point x="258" y="298"/>
      <point x="225" y="149" type="qcurve"/>
      <point x="156" y="6"/>
      <point x="153" y="-2" type="qcurve"/>
      <point x="152" y="-3"/>
      <point x="152" y="-4" type="qcurve"/>
      <point x="152" y="-9"/>
      <point x="157" y="-9" type="qcurve"/>
      <point x="158" y="-9"/>
      <point x="160" y="-8" type="qcurve"/>
      <point x="206" y="22"/>
      <point x="234" y="146" type="qcurve"/>
      <point x="265" y="210"/>
      <point x="290" y="256" type="qcurve"/>
      <point x="314" y="302"/>
      <point x="349" y="356" type="qcurve"/>
      <point x="383" y="409"/>
      <point x="424" y="453" type="qcurve"/>
      <point x="465" y="497"/>
      <point x="512" y="532" type="qcurve"/>
      <point x="523" y="540"/>
      <point x="570" y="591" type="qcurve"/>
      <point x="625" y="650"/>
      <point x="649" y="672" type="qcurve"/>
      <point x="675" y="696"/>
      <point x="688" y="700" type="qcurve"/>
      <point x="706" y="658"/>
      <point x="706" y="618" type="qcurve"/>
      <point x="706" y="556"/>
      <point x="664" y="508" type="qcurve"/>
      <point x="622" y="459"/>
      <point x="561" y="435" type="qcurve"/>
      <point x="499" y="411"/>
      <point x="433" y="411" type="qcurve"/>
      <point x="416" y="411"/>
      <point x="400" y="413" type="qcurve"/>
      <point x="399" y="413"/>
      <point x="399" y="413" type="qcurve"/>
      <point x="396" y="413"/>
      <point x="395" y="410" type="qcurve"/>
      <point x="384" y="391"/>
      <point x="384" y="366" type="qcurve"/>
      <point x="384" y="319"/>
      <point x="418" y="260" type="qcurve"/>
      <point x="452" y="200"/>
      <point x="505" y="148" type="qcurve"/>
      <point x="557" y="96"/>
      <point x="629" y="61" type="qcurve"/>
      <point x="700" y="25"/>
      <point x="767" y="25" type="qcurve"/>
      <point x="779" y="25"/>
      <point x="788" y="32" type="qcurve"/>
      <point x="797" y="39"/>
      <point x="801" y="45" type="qcurve"/>
      <point x="804" y="51"/>
      <point x="808" y="63" type="qcurve"/>
      <point x="815" y="79"/>
      <point x="820" y="84" type="qcurve"/>
      <point x="822" y="86"/>
      <point x="822" y="88" type="qcurve"/>
      <point x="822" y="93"/>
      <point x="817" y="93" type="qcurve"/>
      <point x="815" y="93"/>
      <point x="814" y="92" type="qcurve"/>
      <point x="807" y="85"/>
      <point x="799" y="66" type="qcurve"/>
      <point x="792" y="50"/>
      <point x="786" y="43" type="qcurve"/>
      <point x="780" y="35"/>
      <point x="767" y="35" type="qcurve"/>
      <point x="702" y="35"/>
      <point x="633" y="70" type="qcurve"/>
      <point x="563" y="105"/>
      <point x="512" y="156" type="qcurve"/>
      <point x="461" y="206"/>
      <point x="428" y="264" type="qcurve"/>
      <point x="394" y="321"/>
      <point x="394" y="366" type="qcurve"/>
      <point x="394" y="387"/>
      <point x="402" y="403" type="qcurve"/>
      <point x="417" y="401"/>
      <point x="433" y="401" type="qcurve"/>
      <point x="501" y="401"/>
      <point x="565" y="426" type="qcurve"/>
      <point x="628" y="451"/>
      <point x="672" y="502" type="qcurve"/>
      <point x="716" y="552"/>
      <point x="716" y="618" type="qcurve"/>
      <point x="716" y="661"/>
      <point x="696" y="708" type="qcurve"/>
      <point x="694" y="711"/>
      <point x="691" y="711" type="qcurve"/>
      <point x="677" y="711"/>
      <point x="642" y="680" type="qcurve"/>
      <point x="618" y="657"/>
      <point x="563" y="598" type="qcurve"/>
      <point x="516" y="548"/>
      <point x="506" y="540" type="qcurve"/>
      <point x="422" y="478"/>
      <point x="362" y="392" type="qcurve"/>
      <point x="301" y="305"/>
      <point x="242" y="186" type="qcurve"/>
      <point x="268" y="328"/>
      <point x="268" y="523" type="qcurve"/>
      <point x="268" y="666"/>
      <point x="254" y="777" type="qcurve"/>
      <point x="253" y="781"/>
      <point x="249" y="781" type="qcurve"/>
      <point x="248" y="781"/>
      <point x="247" y="780" type="qcurve"/>
      <point x="229" y="772" type="line"/>
      <point x="212" y="764"/>
      <point x="181" y="756" type="qcurve"/>
      <point x="150" y="747"/>
      <point x="123" y="747" type="qcurve"/>
      <point x="75" y="747" type="line"/>
      <point x="70" y="747"/>
      <point x="70" y="742" type="qcurve"/>
      <point x="70" y="737"/>
    </contour>
    <contour>
      <point x="174" y="19" type="qcurve"/>
      <point x="186" y="45"/>
      <point x="210" y="95" type="qcurve"/>
      <point x="194" y="45"/>
    </contour>
  </outline>
</glyph>
<glyph name="L.0" format="2">
  <advance width="663"/>
  <outline>
    <contour>
      <point x="260" y="154" type="qcurve"/>
      <point x="222" y="179"/>
      <point x="180" y="179" type="qcurve"/>
      <point x="180" y="179"/>
      <point x="179" y="179" type="qcurve"/>
      <point x="165" y="181"/>
      <point x="156" y="181" type="qcurve"/>
      <point x="152" y="181"/>
      <point x="149" y="181" type="qcurve"/>
      <point x="130" y="179"/>
      <point x="119" y="168" type="qcurve"/>
      <point x="108" y="157"/>
      <point x="108" y="139" type="qcurve"/>
      <point x="108" y="130"/>
      <point x="110" y="121" type="qcurve"/>
      <point x="117" y="77"/>
      <point x="145" y="39" type="qcurve"/>
      <point x="172" y="0"/>
      <point x="213" y="-7" type="qcurve"/>
      <point x="215" y="-7"/>
      <point x="217" y="-7" type="qcurve"/>
      <point x="242" y="-7"/>
      <point x="261" y="12" type="qcurve"/>
      <point x="278" y="29"/>
      <point x="290" y="60" type="qcurve"/>
      <point x="313" y="36"/>
      <point x="328" y="23" type="qcurve"/>
      <point x="342" y="10"/>
      <point x="370" y="-3" type="qcurve"/>
      <point x="398" y="-17"/>
      <point x="428" y="-17" type="qcurve"/>
      <point x="432" y="-17"/>
      <point x="436" y="-17" type="qcurve"/>
      <point x="502" y="-14"/>
      <point x="542" y="-2" type="qcurve"/>
      <point x="589" y="12"/>
      <point x="617" y="40" type="qcurve"/>
      <point x="658" y="82"/>
      <point x="658" y="152" type="qcurve"/>
      <point x="658" y="168"/>
      <point x="651" y="176" type="qcurve"/>
      <point x="623" y="204" type="line"/>
      <point x="615" y="211"/>
      <point x="605" y="211" type="qcurve"/>
      <point x="595" y="211"/>
      <point x="588" y="204" type="qcurve"/>
      <point x="580" y="196"/>
      <point x="580" y="186" type="qcurve"/>
      <point x="580" y="176"/>
      <point x="587" y="168" type="qcurve"/>
      <point x="608" y="148" type="line"/>
      <point x="607" y="101"/>
      <point x="581" y="76" type="qcurve"/>
      <point x="562" y="57"/>
      <point x="527" y="46" type="qcurve"/>
      <point x="493" y="36"/>
      <point x="434" y="33" type="qcurve"/>
      <point x="431" y="33"/>
      <point x="428" y="33" type="qcurve"/>
      <point x="404" y="33"/>
      <point x="384" y="45" type="qcurve"/>
      <point x="364" y="56"/>
      <point x="340" y="80" type="qcurve"/>
      <point x="334" y="86"/>
      <point x="323" y="98" type="qcurve"/>
      <point x="311" y="110"/>
      <point x="305" y="116" type="qcurve"/>
      <point x="318" y="184"/>
      <point x="318" y="253" type="qcurve"/>
      <point x="318" y="293"/>
      <point x="307" y="362" type="qcurve"/>
      <point x="296" y="431"/>
      <point x="294" y="448" type="qcurve"/>
      <point x="293" y="473"/>
      <point x="284" y="532" type="qcurve"/>
      <point x="276" y="586"/>
      <point x="274" y="614" type="qcurve"/>
      <point x="362" y="644"/>
      <point x="386" y="710" type="qcurve"/>
      <point x="393" y="729"/>
      <point x="393" y="749" type="qcurve"/>
      <point x="393" y="768"/>
      <point x="387" y="787" type="qcurve"/>
      <point x="385" y="793"/>
      <point x="381" y="798" type="qcurve"/>
      <point x="373" y="805"/>
      <point x="354" y="805" type="qcurve"/>
      <point x="294" y="805"/>
      <point x="260" y="772" type="qcurve"/>
      <point x="226" y="738"/>
      <point x="222" y="670" type="qcurve"/>
      <point x="222" y="662"/>
      <point x="222" y="653" type="qcurve"/>
      <point x="208" y="651"/>
      <point x="194" y="651" type="qcurve"/>
      <point x="174" y="666"/>
      <point x="163" y="704" type="qcurve"/>
      <point x="156" y="730"/>
      <point x="150" y="785" type="qcurve"/>
      <point x="149" y="794"/>
      <point x="142" y="801" type="qcurve"/>
      <point x="134" y="807"/>
      <point x="125" y="807" type="qcurve"/>
      <point x="115" y="807"/>
      <point x="108" y="800" type="qcurve"/>
      <point x="100" y="792"/>
      <point x="100" y="782" type="qcurve"/>
      <point x="100" y="781"/>
      <point x="100" y="779" type="qcurve"/>
      <point x="106" y="720"/>
      <point x="115" y="690" type="qcurve"/>
      <point x="128" y="646"/>
      <point x="152" y="621" type="qcurve"/>
      <point x="163" y="611"/>
      <point x="175" y="604" type="qcurve"/>
      <point x="181" y="601"/>
      <point x="194" y="601" type="qcurve"/>
      <point x="209" y="601"/>
      <point x="224" y="603" type="qcurve"/>
      <point x="227" y="578"/>
      <point x="234" y="525" type="qcurve"/>
      <point x="243" y="468"/>
      <point x="244" y="445" type="qcurve"/>
      <point x="244" y="444"/>
      <point x="244" y="443" type="qcurve"/>
      <point x="246" y="425"/>
      <point x="257" y="358" type="qcurve"/>
      <point x="268" y="290"/>
      <point x="268" y="253" type="qcurve"/>
      <point x="268" y="207"/>
    </contour>
    <contour>
      <point x="343" y="749" type="qcurve"/>
      <point x="343" y="738"/>
      <point x="339" y="727" type="qcurve"/>
      <point x="333" y="711"/>
      <point x="320" y="697" type="qcurve"/>
      <point x="302" y="679"/>
      <point x="272" y="667" type="qcurve"/>
      <point x="275" y="716"/>
      <point x="295" y="736" type="qcurve"/>
      <point x="312" y="753"/>
      <point x="343" y="755" type="qcurve"/>
      <point x="343" y="752"/>
    </contour>
    <contour>
      <point x="177" y="129" type="qcurve"/>
      <point x="178" y="129"/>
      <point x="179" y="129" type="qcurve"/>
      <point x="180" y="129"/>
      <point x="180" y="129" type="qcurve"/>
      <point x="215" y="129"/>
      <point x="250" y="99" type="qcurve"/>
      <point x="246" y="85"/>
      <point x="242" y="75" type="qcurve"/>
      <point x="234" y="56"/>
      <point x="226" y="48" type="qcurve"/>
      <point x="222" y="44"/>
      <point x="219" y="43" type="qcurve"/>
      <point x="196" y="49"/>
      <point x="180" y="76" type="qcurve"/>
      <point x="163" y="102"/>
      <point x="160" y="129" type="qcurve"/>
      <point x="160" y="130"/>
      <point x="159" y="131" type="qcurve"/>
      <point x="166" y="131"/>
      <point x="173" y="129" type="qcurve"/>
      <point x="175" y="129"/>
    </contour>
  </outline>
</glyph>
<glyph name="L.1" format="2">
  <advance width="663"/>
  <outline>
    <contour>
      <point x="225" y="118" type="qcurve"/>
      <point x="178" y="159"/>
      <point x="130" y="159" type="qcurve"/>
      <point x="129" y="159"/>
      <point x="127" y="159" type="qcurve"/>
      <point x="114" y="161"/>
      <point x="106" y="161" type="qcurve"/>
      <point x="78" y="161"/>
      <point x="78" y="139" type="qcurve"/>
      <point x="78" y="133"/>
      <point x="80" y="125" type="qcurve"/>
      <point x="85" y="88"/>
      <point x="109" y="54" type="qcurve"/>
      <point x="132" y="19"/>
      <point x="166" y="13" type="qcurve"/>
      <point x="167" y="13"/>
      <point x="167" y="13" type="qcurve"/>
      <point x="209" y="13"/>
      <point x="230" y="98" type="qcurve"/>
      <point x="236" y="93"/>
      <point x="254" y="74" type="qcurve"/>
      <point x="272" y="55"/>
      <point x="282" y="47" type="qcurve"/>
      <point x="291" y="38"/>
      <point x="308" y="26" type="qcurve"/>
      <point x="324" y="13"/>
      <point x="342" y="8" type="qcurve"/>
      <point x="359" y="3"/>
      <point x="378" y="3" type="qcurve"/>
      <point x="382" y="3"/>
      <point x="385" y="3" type="qcurve"/>
      <point x="418" y="5"/>
      <point x="443" y="8" type="qcurve"/>
      <point x="467" y="11"/>
      <point x="496" y="21" type="qcurve"/>
      <point x="525" y="31"/>
      <point x="544" y="46" type="qcurve"/>
      <point x="563" y="61"/>
      <point x="576" y="88" type="qcurve"/>
      <point x="588" y="115"/>
      <point x="588" y="152" type="qcurve"/>
      <point x="588" y="160"/>
      <point x="587" y="162" type="qcurve"/>
      <point x="559" y="190" type="line"/>
      <point x="557" y="191"/>
      <point x="555" y="191" type="qcurve"/>
      <point x="550" y="191"/>
      <point x="550" y="186" type="qcurve"/>
      <point x="550" y="184"/>
      <point x="551" y="182" type="qcurve"/>
      <point x="578" y="156" type="line"/>
      <point x="578" y="154"/>
      <point x="578" y="152" type="qcurve"/>
      <point x="578" y="118"/>
      <point x="567" y="93" type="qcurve"/>
      <point x="555" y="68"/>
      <point x="538" y="54" type="qcurve"/>
      <point x="520" y="39"/>
      <point x="493" y="30" type="qcurve"/>
      <point x="465" y="21"/>
      <point x="441" y="18" type="qcurve"/>
      <point x="417" y="15"/>
      <point x="385" y="13" type="qcurve"/>
      <point x="381" y="13"/>
      <point x="378" y="13" type="qcurve"/>
      <point x="354" y="13"/>
      <point x="331" y="25" type="qcurve"/>
      <point x="308" y="36"/>
      <point x="295" y="48" type="qcurve"/>
      <point x="281" y="60"/>
      <point x="258" y="84" type="qcurve"/>
      <point x="241" y="102"/>
      <point x="233" y="110" type="qcurve"/>
      <point x="247" y="173"/>
      <point x="248" y="248" type="qcurve"/>
      <point x="248" y="251"/>
      <point x="248" y="253" type="qcurve"/>
      <point x="248" y="292"/>
      <point x="237" y="361" type="qcurve"/>
      <point x="226" y="429"/>
      <point x="224" y="446" type="qcurve"/>
      <point x="223" y="471"/>
      <point x="214" y="529" type="qcurve"/>
      <point x="204" y="596"/>
      <point x="202" y="629" type="qcurve"/>
      <point x="253" y="642"/>
      <point x="288" y="673" type="qcurve"/>
      <point x="323" y="704"/>
      <point x="323" y="749" type="qcurve"/>
      <point x="323" y="765"/>
      <point x="318" y="781" type="qcurve"/>
      <point x="317" y="785"/>
      <point x="304" y="785" type="qcurve"/>
      <point x="192" y="785"/>
      <point x="192" y="651" type="qcurve"/>
      <point x="192" y="644"/>
      <point x="192" y="636" type="qcurve"/>
      <point x="167" y="631"/>
      <point x="144" y="631" type="qcurve"/>
      <point x="141" y="631"/>
      <point x="138" y="631" type="qcurve"/>
      <point x="118" y="643"/>
      <point x="105" y="672" type="qcurve"/>
      <point x="92" y="701"/>
      <point x="88" y="723" type="qcurve"/>
      <point x="84" y="745"/>
      <point x="80" y="781" type="qcurve"/>
      <point x="80" y="787"/>
      <point x="75" y="787" type="qcurve"/>
      <point x="70" y="787"/>
      <point x="70" y="782" type="qcurve"/>
      <point x="70" y="781" type="line"/>
      <point x="73" y="758"/>
      <point x="74" y="747" type="qcurve"/>
      <point x="75" y="736"/>
      <point x="80" y="713" type="qcurve"/>
      <point x="85" y="689"/>
      <point x="91" y="675" type="qcurve"/>
      <point x="97" y="661"/>
      <point x="109" y="646" type="qcurve"/>
      <point x="120" y="630"/>
      <point x="135" y="622" type="qcurve"/>
      <point x="136" y="621"/>
      <point x="144" y="621" type="qcurve"/>
      <point x="167" y="621"/>
      <point x="193" y="626" type="qcurve"/>
      <point x="194" y="594"/>
      <point x="204" y="528" type="qcurve"/>
      <point x="213" y="469"/>
      <point x="214" y="446" type="qcurve"/>
      <point x="214" y="445" type="line"/>
      <point x="216" y="428"/>
      <point x="227" y="360" type="qcurve"/>
      <point x="238" y="291"/>
      <point x="238" y="253" type="qcurve"/>
      <point x="238" y="183"/>
    </contour>
    <contour>
      <point x="202" y="651" type="qcurve"/>
      <point x="202" y="710"/>
      <point x="225" y="743" type="qcurve"/>
      <point x="247" y="775"/>
      <point x="304" y="775" type="qcurve"/>
      <point x="306" y="775"/>
      <point x="309" y="775" type="qcurve"/>
      <point x="313" y="762"/>
      <point x="313" y="749" type="qcurve"/>
      <point x="313" y="710"/>
      <point x="281" y="681" type="qcurve"/>
      <point x="249" y="652"/>
      <point x="202" y="639" type="qcurve"/>
      <point x="202" y="645"/>
    </contour>
    <contour>
      <point x="222" y="106" type="qcurve"/>
      <point x="203" y="24"/>
      <point x="167" y="23" type="qcurve"/>
      <point x="138" y="28"/>
      <point x="117" y="60" type="qcurve"/>
      <point x="95" y="92"/>
      <point x="90" y="127" type="qcurve"/>
      <point x="88" y="134"/>
      <point x="88" y="139" type="qcurve"/>
      <point x="88" y="151"/>
      <point x="106" y="151" type="qcurve"/>
      <point x="114" y="151"/>
      <point x="126" y="149" type="qcurve"/>
      <point x="127" y="149"/>
      <point x="128" y="149" type="qcurve"/>
      <point x="128" y="149"/>
      <point x="129" y="149" type="qcurve"/>
      <point x="130" y="149"/>
      <point x="130" y="149" type="qcurve"/>
      <point x="176" y="149"/>
    </contour>
  </outline>
</glyph>
<glyph name="T.0" format="2">
  <advance width="526"/>
  <outline>
    <contour>
      <point x="195" y="650" type="qcurve"/>
      <point x="195" y="662"/>
      <point x="186" y="669" type="qcurve"/>
      <point x="162" y="689"/>
      <point x="151" y="750" type="qcurve"/>
      <point x="150" y="755"/>
      <point x="150" y="757" type="qcurve"/>
      <point x="158" y="759"/>
      <point x="170" y="759" type="qcurve"/>
      <point x="185" y="759"/>
      <point x="209" y="750" type="qcurve"/>
      <point x="223" y="745"/>
      <point x="289" y="712" type="qcurve"/>
      <point x="355" y="678"/>
      <point x="392" y="671" type="qcurve"/>
      <point x="405" y="669"/>
      <point x="416" y="669" type="qcurve"/>
      <point x="421" y="669"/>
      <point x="425" y="670" type="qcurve"/>
      <point x="425" y="37" type="line"/>
      <point x="420" y="28"/>
      <point x="417" y="24" type="qcurve"/>
      <point x="416" y="25"/>
      <point x="416" y="25" type="qcurve"/>
      <point x="376" y="51"/>
      <point x="373" y="53" type="qcurve"/>
      <point x="373" y="74" type="line"/>
      <point x="373" y="84"/>
      <point x="366" y="92" type="qcurve"/>
      <point x="358" y="99"/>
      <point x="348" y="99" type="qcurve"/>
      <point x="338" y="99"/>
      <point x="331" y="92" type="qcurve"/>
      <point x="323" y="84"/>
      <point x="323" y="74" type="qcurve"/>
      <point x="323" y="40" type="line"/>
      <point x="323" y="27"/>
      <point x="334" y="19" type="qcurve"/>
      <point x="344" y="12"/>
      <point x="388" y="-17" type="qcurve"/>
      <point x="403" y="-27"/>
      <point x="418" y="-27" type="qcurve"/>
      <point x="431" y="-27"/>
      <point x="442" y="-19" type="qcurve"/>
      <point x="453" y="-11"/>
      <point x="458" y="-4" type="qcurve"/>
      <point x="463" y="2"/>
      <point x="470" y="14" type="qcurve"/>
      <point x="475" y="23"/>
      <point x="475" y="30" type="qcurve"/>
      <point x="475" y="684" type="line"/>
      <point x="476" y="687" type="line"/>
      <point x="504" y="708"/>
      <point x="520" y="751" type="qcurve"/>
      <point x="521" y="756"/>
      <point x="521" y="760" type="qcurve"/>
      <point x="521" y="764"/>
      <point x="520" y="767" type="qcurve"/>
      <point x="515" y="783"/>
      <point x="506" y="792" type="qcurve"/>
      <point x="494" y="804"/>
      <point x="479" y="804" type="qcurve"/>
      <point x="463" y="804"/>
      <point x="452" y="793" type="qcurve"/>
      <point x="441" y="782"/>
      <point x="437" y="762" type="qcurve"/>
      <point x="430" y="720" type="line"/>
      <point x="425" y="719"/>
      <point x="418" y="719" type="qcurve"/>
      <point x="410" y="719"/>
      <point x="401" y="721" type="qcurve"/>
      <point x="370" y="726"/>
      <point x="297" y="764" type="qcurve"/>
      <point x="249" y="788"/>
      <point x="227" y="797" type="qcurve"/>
      <point x="194" y="809"/>
      <point x="170" y="809" type="qcurve"/>
      <point x="130" y="809"/>
      <point x="113" y="793" type="qcurve"/>
      <point x="100" y="779"/>
      <point x="100" y="757" type="qcurve"/>
      <point x="100" y="750"/>
      <point x="101" y="742" type="qcurve"/>
      <point x="114" y="670"/>
      <point x="146" y="638" type="qcurve"/>
      <point x="159" y="625"/>
      <point x="170" y="625" type="qcurve"/>
      <point x="180" y="625"/>
      <point x="188" y="633" type="qcurve"/>
      <point x="195" y="640"/>
    </contour>
  </outline>
</glyph>
<glyph name="X.0" format="2">
  <advance width="940"/>
  <outline>
    <contour>
      <point x="151" y="531" type="qcurve"/>
      <point x="150" y="530"/>
      <point x="150" y="528" type="qcurve"/>
      <point x="150" y="516"/>
      <point x="158" y="508" type="qcurve"/>
      <point x="165" y="499"/>
      <point x="176" y="499" type="qcurve"/>
      <point x="186" y="499"/>
      <point x="194" y="507" type="qcurve"/>
      <point x="201" y="514"/>
      <point x="201" y="524" type="qcurve"/>
      <point x="201" y="526"/>
      <point x="201" y="528" type="qcurve"/>
      <point x="201" y="531"/>
      <point x="201" y="533" type="qcurve"/>
      <point x="201" y="537"/>
      <point x="200" y="540" type="qcurve"/>
      <point x="186" y="589"/>
      <point x="186" y="664" type="qcurve"/>
      <point x="186" y="668"/>
      <point x="186" y="677" type="qcurve"/>
      <point x="186" y="685"/>
      <point x="186" y="688" type="qcurve"/>
      <point x="190" y="699"/>
      <point x="201" y="710" type="qcurve"/>
      <point x="220" y="730"/>
      <point x="250" y="740" type="qcurve"/>
      <point x="280" y="751"/>
      <point x="323" y="751" type="qcurve"/>
      <point x="364" y="751"/>
      <point x="377" y="738" type="qcurve"/>
      <point x="383" y="732"/>
      <point x="392" y="711" type="qcurve"/>
      <point x="409" y="675"/>
      <point x="429" y="656" type="qcurve"/>
      <point x="439" y="583" type="line"/>
      <point x="433" y="460" type="line"/>
      <point x="384" y="325" type="line"/>
      <point x="332" y="295"/>
      <point x="302" y="277" type="qcurve"/>
      <point x="271" y="259"/>
      <point x="230" y="230" type="qcurve"/>
      <point x="188" y="201"/>
      <point x="156" y="174" type="qcurve"/>
      <point x="156" y="173" type="line"/>
      <point x="114" y="135"/>
      <point x="101" y="80" type="qcurve"/>
      <point x="100" y="77"/>
      <point x="100" y="74" type="qcurve"/>
      <point x="100" y="52"/>
      <point x="113" y="14" type="qcurve"/>
      <point x="125" y="-21"/>
      <point x="140" y="-37" type="qcurve"/>
      <point x="154" y="-50"/>
      <point x="170" y="-50" type="qcurve"/>
      <point x="211" y="-50"/>
      <point x="250" y="-12" type="qcurve"/>
      <point x="282" y="20"/>
      <point x="330" y="109" type="qcurve"/>
      <point x="356" y="157"/>
      <point x="366" y="169" type="qcurve"/>
      <point x="368" y="171"/>
      <point x="369" y="174" type="qcurve"/>
      <point x="417" y="270" type="line"/>
      <point x="418" y="271"/>
      <point x="418" y="272" type="qcurve"/>
      <point x="425" y="290" type="line"/>
      <point x="467" y="314"/>
      <point x="489" y="327" type="qcurve"/>
      <point x="496" y="267"/>
      <point x="519" y="212" type="qcurve"/>
      <point x="541" y="156"/>
      <point x="577" y="110" type="qcurve"/>
      <point x="612" y="63"/>
      <point x="665" y="34" type="qcurve"/>
      <point x="718" y="4"/>
      <point x="781" y="1" type="qcurve"/>
      <point x="797" y="0"/>
      <point x="808" y="0" type="qcurve"/>
      <point x="835" y="0"/>
      <point x="855" y="5" type="qcurve"/>
      <point x="887" y="11"/>
      <point x="907" y="31" type="qcurve"/>
      <point x="936" y="60"/>
      <point x="936" y="116" type="qcurve"/>
      <point x="936" y="123"/>
      <point x="932" y="130" type="qcurve"/>
      <point x="927" y="137"/>
      <point x="911" y="148" type="qcurve"/>
      <point x="905" y="151"/>
      <point x="895" y="158" type="qcurve"/>
      <point x="884" y="164"/>
      <point x="880" y="167" type="qcurve"/>
      <point x="875" y="170"/>
      <point x="870" y="171" type="qcurve"/>
      <point x="834" y="177" type="line"/>
      <point x="832" y="177"/>
      <point x="830" y="177" type="qcurve"/>
      <point x="820" y="177"/>
      <point x="813" y="170" type="qcurve"/>
      <point x="805" y="162"/>
      <point x="805" y="152" type="qcurve"/>
      <point x="805" y="143"/>
      <point x="811" y="136" type="qcurve"/>
      <point x="817" y="129"/>
      <point x="826" y="127" type="qcurve"/>
      <point x="857" y="122" type="line"/>
      <point x="877" y="110"/>
      <point x="886" y="104" type="qcurve"/>
      <point x="884" y="78"/>
      <point x="872" y="66" type="qcurve"/>
      <point x="855" y="50"/>
      <point x="807" y="50" type="qcurve"/>
      <point x="796" y="50"/>
      <point x="783" y="51" type="qcurve"/>
      <point x="699" y="55"/>
      <point x="636" y="118" type="qcurve"/>
      <point x="593" y="161"/>
      <point x="567" y="225" type="qcurve"/>
      <point x="541" y="288"/>
      <point x="537" y="356" type="qcurve"/>
      <point x="593" y="391"/>
      <point x="636" y="425" type="qcurve"/>
      <point x="678" y="459"/>
      <point x="720" y="505" type="qcurve"/>
      <point x="762" y="551"/>
      <point x="789" y="609" type="qcurve"/>
      <point x="815" y="667"/>
      <point x="825" y="733" type="qcurve"/>
      <point x="826" y="742"/>
      <point x="826" y="753" type="qcurve"/>
      <point x="826" y="759"/>
      <point x="826" y="771" type="qcurve"/>
      <point x="825" y="783"/>
      <point x="825" y="788" type="qcurve"/>
      <point x="825" y="802"/>
      <point x="815" y="812" type="qcurve"/>
      <point x="803" y="824"/>
      <point x="779" y="824" type="qcurve"/>
      <point x="773" y="824"/>
      <point x="764" y="823" type="qcurve"/>
      <point x="755" y="822"/>
      <point x="752" y="822" type="qcurve"/>
      <point x="656" y="822"/>
      <point x="592" y="758" type="qcurve"/>
      <point x="539" y="705"/>
      <point x="512" y="611" type="qcurve"/>
      <point x="487" y="523"/>
      <point x="487" y="411" type="qcurve"/>
      <point x="486" y="397"/>
      <point x="486" y="384" type="qcurve"/>
      <point x="470" y="374"/>
      <point x="451" y="363" type="qcurve"/>
      <point x="481" y="446" type="line"/>
      <point x="483" y="450"/>
      <point x="483" y="454" type="qcurve"/>
      <point x="489" y="583" type="line"/>
      <point x="489" y="583"/>
      <point x="489" y="584" type="qcurve"/>
      <point x="489" y="586"/>
      <point x="489" y="588" type="qcurve"/>
      <point x="477" y="672" type="line"/>
      <point x="475" y="681"/>
      <point x="468" y="687" type="qcurve"/>
      <point x="452" y="701"/>
      <point x="438" y="732" type="qcurve"/>
      <point x="425" y="760"/>
      <point x="413" y="773" type="qcurve"/>
      <point x="385" y="801"/>
      <point x="323" y="801" type="qcurve"/>
      <point x="271" y="801"/>
      <point x="233" y="788" type="qcurve"/>
      <point x="200" y="775"/>
      <point x="173" y="752" type="qcurve"/>
      <point x="145" y="729"/>
      <point x="137" y="698" type="qcurve"/>
      <point x="136" y="695"/>
      <point x="136" y="692" type="qcurve"/>
      <point x="136" y="687"/>
      <point x="136" y="678" type="qcurve"/>
      <point x="136" y="668"/>
      <point x="136" y="664" type="qcurve"/>
      <point x="136" y="585"/>
    </contour>
    <contour>
      <point x="775" y="774" type="qcurve"/>
      <point x="776" y="759"/>
      <point x="776" y="753" type="qcurve"/>
      <point x="776" y="745"/>
      <point x="775" y="741" type="qcurve"/>
      <point x="757" y="610"/>
      <point x="658" y="511" type="qcurve"/>
      <point x="610" y="464"/>
      <point x="537" y="416" type="qcurve"/>
      <point x="538" y="518"/>
      <point x="560" y="597" type="qcurve"/>
      <point x="583" y="679"/>
      <point x="627" y="723" type="qcurve"/>
      <point x="676" y="772"/>
      <point x="752" y="772" type="qcurve"/>
      <point x="757" y="772"/>
      <point x="765" y="773" type="qcurve"/>
      <point x="772" y="773"/>
    </contour>
    <contour>
      <point x="150" y="72" type="qcurve"/>
      <point x="160" y="110"/>
      <point x="190" y="136" type="qcurve"/>
      <point x="246" y="186"/>
      <point x="350" y="247" type="qcurve"/>
      <point x="326" y="199" type="line"/>
      <point x="313" y="183"/>
      <point x="286" y="133" type="qcurve"/>
      <point x="241" y="51"/>
      <point x="214" y="24" type="qcurve"/>
      <point x="193" y="3"/>
      <point x="175" y="0" type="qcurve"/>
      <point x="167" y="11"/>
      <point x="160" y="30" type="qcurve"/>
      <point x="153" y="52"/>
    </contour>
  </outline>
</glyph>
<glyph name="a.0" format="2">
  <advance width="564"/>
  <outline>
    <contour>
      <point x="144" y="183" type="qcurve"/>
      <point x="144" y="235"/>
      <point x="160" y="285" type="qcurve"/>
      <point x="175" y="335"/>
      <point x="203" y="371" type="qcurve"/>
      <point x="234" y="394"/>
      <point x="269" y="394" type="qcurve"/>
      <point x="297" y="394"/>
      <point x="326" y="379" type="qcurve"/>
      <point x="353" y="378"/>
      <point x="372" y="372" type="qcurve"/>
      <point x="373" y="366"/>
      <point x="373" y="361" type="qcurve"/>
      <point x="373" y="355"/>
      <point x="372" y="348" type="qcurve"/>
      <point x="375" y="329"/>
      <point x="375" y="311" type="qcurve"/>
      <point x="375" y="234"/>
      <point x="322" y="172" type="qcurve"/>
      <point x="261" y="119"/>
      <point x="162" y="83" type="qcurve"/>
      <point x="144" y="128"/>
    </contour>
    <contour>
      <point x="245" y="44" type="qcurve"/>
      <point x="240" y="44"/>
      <point x="235" y="44" type="qcurve"/>
      <point x="294" y="74"/>
      <point x="334" y="112" type="qcurve"/>
      <point x="337" y="87"/>
      <point x="348" y="67" type="qcurve"/>
      <point x="300" y="44"/>
    </contour>
    <contour>
      <point x="465" y="143" type="qcurve"/>
      <point x="465" y="150"/>
      <point x="464" y="159" type="qcurve"/>
      <point x="463" y="168"/>
      <point x="462" y="173" type="qcurve"/>
      <point x="460" y="214"/>
      <point x="456" y="218" type="qcurve"/>
      <point x="433" y="241" type="line"/>
      <point x="445" y="274"/>
      <point x="445" y="311" type="qcurve"/>
      <point x="445" y="329"/>
      <point x="442" y="348" type="qcurve"/>
      <point x="443" y="355"/>
      <point x="443" y="360" type="qcurve"/>
      <point x="443" y="380"/>
      <point x="431" y="393" type="qcurve"/>
      <point x="395" y="428" type="line"/>
      <point x="376" y="448"/>
      <point x="326" y="449" type="qcurve"/>
      <point x="297" y="464"/>
      <point x="269" y="464" type="qcurve"/>
      <point x="223" y="464"/>
      <point x="184" y="426" type="qcurve"/>
      <point x="149" y="390" type="line"/>
      <point x="114" y="356"/>
      <point x="94" y="300" type="qcurve"/>
      <point x="73" y="243"/>
      <point x="73" y="183" type="qcurve"/>
      <point x="73" y="117"/>
      <point x="99" y="66" type="qcurve"/>
      <point x="99" y="65"/>
      <point x="100" y="63" type="qcurve"/>
      <point x="75" y="56"/>
      <point x="35" y="47" type="qcurve"/>
      <point x="24" y="45"/>
      <point x="16" y="36" type="qcurve"/>
      <point x="8" y="26"/>
      <point x="8" y="13" type="qcurve"/>
      <point x="8" y="-1"/>
      <point x="18" y="-11" type="qcurve"/>
      <point x="28" y="-21"/>
      <point x="43" y="-21" type="qcurve"/>
      <point x="46" y="-21"/>
      <point x="50" y="-20" type="qcurve"/>
      <point x="98" y="-10"/>
      <point x="143" y="6" type="qcurve"/>
      <point x="156" y="-7" type="line"/>
      <point x="166" y="-17"/>
      <point x="180" y="-17" type="qcurve"/>
      <point x="181" y="-17"/>
      <point x="182" y="-17" type="qcurve"/>
      <point x="211" y="-27"/>
      <point x="245" y="-27" type="qcurve"/>
      <point x="331" y="-27"/>
      <point x="387" y="23" type="qcurve"/>
      <point x="399" y="11" type="line"/>
      <point x="424" y="-14"/>
      <point x="464" y="-14" type="qcurve"/>
      <point x="470" y="-14"/>
      <point x="484" y="-26" type="qcurve"/>
      <point x="504" y="-41"/>
      <point x="515" y="-41" type="qcurve"/>
      <point x="521" y="-41" type="line"/>
      <point x="532" y="-36"/>
      <point x="554" y="-26" type="qcurve"/>
      <point x="576" y="-16"/>
      <point x="587" y="-11" type="qcurve"/>
      <point x="606" y="-2"/>
      <point x="606" y="18" type="qcurve"/>
      <point x="606" y="31"/>
      <point x="597" y="41" type="qcurve"/>
      <point x="587" y="50"/>
      <point x="573" y="50" type="qcurve"/>
      <point x="566" y="50"/>
      <point x="560" y="47" type="qcurve"/>
      <point x="521" y="29" type="line"/>
      <point x="515" y="29" type="line"/>
      <point x="504" y="29"/>
      <point x="484" y="45" type="qcurve"/>
      <point x="470" y="56"/>
      <point x="464" y="56" type="qcurve"/>
      <point x="445" y="56"/>
      <point x="428" y="63" type="qcurve"/>
      <point x="430" y="65" type="line"/>
      <point x="465" y="99"/>
    </contour>
  </outline>
</glyph>
<glyph name="ampersand.1" format="2">
  <advance width="433"/>
  <outline>
    <contour>
      <point x="279" y="547" type="qcurve"/>
      <point x="279" y="555"/>
      <point x="278" y="563" type="qcurve"/>
      <point x="277" y="570"/>
      <point x="277" y="593" type="qcurve"/>
      <point x="276" y="671"/>
      <point x="268" y="705" type="qcurve"/>
      <point x="256" y="757"/>
      <point x="225" y="757" type="qcurve"/>
      <point x="194" y="757"/>
      <point x="172" y="733" type="qcurve"/>
      <point x="161" y="722"/>
      <point x="154" y="717" type="qcurve"/>
      <point x="152" y="716"/>
      <point x="151" y="715" type="qcurve"/>
      <point x="124" y="646" type="line"/>
      <point x="124" y="645"/>
      <point x="124" y="644" type="qcurve"/>
      <point x="124" y="491" type="line"/>
      <point x="124" y="490"/>
      <point x="124" y="489" type="qcurve"/>
      <point x="131" y="475"/>
      <point x="136" y="445" type="qcurve"/>
      <point x="140" y="414"/>
      <point x="149" y="399" type="qcurve"/>
      <point x="154" y="389"/>
      <point x="160" y="376" type="qcurve"/>
      <point x="117" y="336"/>
      <point x="94" y="300" type="qcurve"/>
      <point x="70" y="264"/>
      <point x="70" y="215" type="qcurve"/>
      <point x="70" y="134"/>
      <point x="128" y="108" type="qcurve"/>
      <point x="163" y="93"/>
      <point x="237" y="93" type="qcurve"/>
      <point x="265" y="93"/>
      <point x="294" y="125" type="qcurve"/>
      <point x="335" y="64" type="line"/>
      <point x="337" y="62"/>
      <point x="339" y="62" type="qcurve"/>
      <point x="344" y="62"/>
      <point x="344" y="67" type="qcurve"/>
      <point x="344" y="69"/>
      <point x="343" y="70" type="qcurve"/>
      <point x="301" y="133" type="line"/>
      <point x="308" y="142"/>
      <point x="314" y="152" type="qcurve"/>
      <point x="334" y="182"/>
      <point x="347" y="216" type="qcurve"/>
      <point x="359" y="250"/>
      <point x="359" y="272" type="qcurve"/>
      <point x="359" y="277"/>
      <point x="354" y="277" type="qcurve"/>
      <point x="349" y="277"/>
      <point x="349" y="272" type="qcurve"/>
      <point x="349" y="253"/>
      <point x="337" y="220" type="qcurve"/>
      <point x="325" y="186"/>
      <point x="306" y="157" type="qcurve"/>
      <point x="301" y="149"/>
      <point x="295" y="142" type="qcurve"/>
      <point x="241" y="221" type="line"/>
      <point x="229" y="239"/>
      <point x="217" y="265" type="qcurve"/>
      <point x="205" y="290"/>
      <point x="192" y="324" type="qcurve"/>
      <point x="179" y="358"/>
      <point x="172" y="374" type="qcurve"/>
      <point x="175" y="377"/>
      <point x="180" y="381" type="qcurve"/>
      <point x="204" y="404"/>
      <point x="217" y="417" type="qcurve"/>
      <point x="229" y="430"/>
      <point x="247" y="452" type="qcurve"/>
      <point x="264" y="474"/>
      <point x="272" y="497" type="qcurve"/>
      <point x="279" y="520"/>
    </contour>
    <contour>
      <point x="225" y="747" type="qcurve"/>
      <point x="248" y="747"/>
      <point x="258" y="703" type="qcurve"/>
      <point x="266" y="669"/>
      <point x="267" y="593" type="qcurve"/>
      <point x="267" y="569"/>
      <point x="268" y="563" type="qcurve"/>
      <point x="269" y="554"/>
      <point x="269" y="547" type="qcurve"/>
      <point x="269" y="521"/>
      <point x="262" y="499" type="qcurve"/>
      <point x="254" y="477"/>
      <point x="236" y="455" type="qcurve"/>
      <point x="217" y="432"/>
      <point x="206" y="420" type="qcurve"/>
      <point x="194" y="408"/>
      <point x="168" y="384" type="qcurve"/>
      <point x="162" y="395"/>
      <point x="157" y="403" type="qcurve"/>
      <point x="149" y="418"/>
      <point x="145" y="449" type="qcurve"/>
      <point x="140" y="479"/>
      <point x="134" y="492" type="qcurve"/>
      <point x="134" y="643" type="line"/>
      <point x="160" y="710" type="line"/>
      <point x="168" y="715"/>
      <point x="179" y="727" type="qcurve"/>
      <point x="186" y="734"/>
      <point x="190" y="738" type="qcurve"/>
      <point x="194" y="741"/>
      <point x="203" y="744" type="qcurve"/>
      <point x="212" y="747"/>
    </contour>
    <contour>
      <point x="80" y="215" type="qcurve"/>
      <point x="80" y="260"/>
      <point x="102" y="295" type="qcurve"/>
      <point x="123" y="329"/>
      <point x="164" y="367" type="qcurve"/>
      <point x="171" y="352"/>
      <point x="184" y="318" type="qcurve"/>
      <point x="197" y="284"/>
      <point x="209" y="259" type="qcurve"/>
      <point x="220" y="234"/>
      <point x="233" y="215" type="qcurve"/>
      <point x="288" y="134" type="line"/>
      <point x="261" y="103"/>
      <point x="237" y="103" type="qcurve"/>
      <point x="165" y="103"/>
      <point x="132" y="118" type="qcurve"/>
      <point x="80" y="140"/>
    </contour>
  </outline>
</glyph>
<glyph name="asciicircum.0" format="2">
  <advance width="676"/>
  <outline>
    <contour>
      <point x="-97" y="239" type="line"/>
      <point x="-132" y="274" type="line"/>
      <point x="-167" y="239" type="line"/>
      <point x="-132" y="204" type="line"/>
    </contour>
    <contour>
      <point x="436" y="709" type="qcurve"/>
      <point x="436" y="725"/>
      <point x="422" y="734" type="qcurve"/>
      <point x="225" y="859" type="line"/>
      <point x="29" y="734" type="line"/>
      <point x="15" y="725"/>
      <point x="15" y="709" type="qcurve"/>
      <point x="15" y="696"/>
      <point x="24" y="688" type="qcurve"/>
      <point x="33" y="679"/>
      <point x="45" y="679" type="qcurve"/>
      <point x="54" y="679"/>
      <point x="61" y="684" type="qcurve"/>
      <point x="225" y="789" type="line"/>
      <point x="390" y="684" type="line"/>
      <point x="397" y="679"/>
      <point x="406" y="679" type="qcurve"/>
      <point x="418" y="679"/>
      <point x="427" y="688" type="qcurve"/>
      <point x="436" y="696"/>
    </contour>
  </outline>
</glyph>
<glyph name="b.0" format="2">
  <advance width="576"/>
  <outline>
    <contour>
      <point x="565" y="227" type="qcurve"/>
      <point x="565" y="247"/>
      <point x="553" y="270" type="qcurve"/>
      <point x="571" y="285"/>
      <point x="574" y="293" type="qcurve"/>
      <point x="604" y="368" type="line"/>
      <point x="607" y="404" type="line"/>
      <point x="607" y="405"/>
      <point x="607" y="407" type="qcurve"/>
      <point x="607" y="421"/>
      <point x="597" y="432" type="qcurve"/>
      <point x="587" y="442"/>
      <point x="572" y="442" type="qcurve"/>
      <point x="558" y="442"/>
      <point x="548" y="433" type="qcurve"/>
      <point x="538" y="423"/>
      <point x="537" y="410" type="qcurve"/>
      <point x="535" y="381"/>
      <point x="534" y="368" type="qcurve"/>
      <point x="517" y="325" type="line"/>
      <point x="511" y="332"/>
      <point x="506" y="337" type="qcurve"/>
      <point x="471" y="372" type="line"/>
      <point x="451" y="392"/>
      <point x="428" y="399" type="qcurve"/>
      <point x="404" y="406"/>
      <point x="368" y="406" type="qcurve"/>
      <point x="361" y="406"/>
      <point x="350" y="395" type="qcurve"/>
      <point x="314" y="360" type="line"/>
      <point x="309" y="355"/>
      <point x="304" y="348" type="qcurve"/>
      <point x="320" y="419"/>
      <point x="320" y="491" type="qcurve"/>
      <point x="320" y="498"/>
      <point x="319" y="524" type="qcurve"/>
      <point x="319" y="526"/>
      <point x="320" y="530" type="qcurve"/>
      <point x="320" y="534"/>
      <point x="320" y="535" type="qcurve"/>
      <point x="320" y="599"/>
      <point x="295" y="710" type="qcurve"/>
      <point x="294" y="717"/>
      <point x="291" y="736" type="qcurve"/>
      <point x="287" y="755"/>
      <point x="285" y="765" type="qcurve"/>
      <point x="282" y="774"/>
      <point x="277" y="788" type="qcurve"/>
      <point x="271" y="801"/>
      <point x="263" y="809" type="qcurve"/>
      <point x="228" y="844" type="line"/>
      <point x="215" y="856"/>
      <point x="197" y="856" type="qcurve"/>
      <point x="189" y="855"/>
      <point x="183" y="849" type="qcurve"/>
      <point x="148" y="813" type="line"/>
      <point x="142" y="808"/>
      <point x="136" y="796" type="qcurve"/>
      <point x="129" y="783"/>
      <point x="126" y="779" type="qcurve"/>
      <point x="120" y="772"/>
      <point x="116" y="763" type="qcurve"/>
      <point x="111" y="754"/>
      <point x="109" y="748" type="qcurve"/>
      <point x="106" y="742"/>
      <point x="102" y="730" type="qcurve"/>
      <point x="97" y="717"/>
      <point x="96" y="713" type="qcurve"/>
      <point x="86" y="608"/>
      <point x="78" y="527" type="qcurve"/>
      <point x="84" y="341" type="line"/>
      <point x="99" y="233" type="line"/>
      <point x="113" y="180"/>
      <point x="114" y="179" type="qcurve"/>
      <point x="124" y="165"/>
      <point x="138" y="131" type="qcurve"/>
      <point x="115" y="98"/>
      <point x="89" y="70" type="qcurve"/>
      <point x="70" y="53"/>
      <point x="16" y="12" type="qcurve"/>
      <point x="5" y="3"/>
      <point x="5" y="-11" type="qcurve"/>
      <point x="5" y="-22"/>
      <point x="13" y="-30" type="qcurve"/>
      <point x="21" y="-39"/>
      <point x="33" y="-39" type="qcurve"/>
      <point x="42" y="-39"/>
      <point x="50" y="-33" type="qcurve"/>
      <point x="80" y="-11"/>
      <point x="107" y="16" type="qcurve"/>
      <point x="154" y="63"/>
      <point x="165" y="75" type="qcurve"/>
      <point x="171" y="65"/>
      <point x="178" y="58" type="qcurve"/>
      <point x="213" y="23" type="line"/>
      <point x="228" y="8"/>
      <point x="248" y="6" type="qcurve"/>
      <point x="264" y="4"/>
      <point x="318" y="-7" type="qcurve"/>
      <point x="372" y="-18"/>
      <point x="404" y="-18" type="qcurve"/>
      <point x="439" y="-18"/>
      <point x="468" y="11" type="qcurve"/>
      <point x="503" y="46" type="line"/>
      <point x="545" y="89"/>
      <point x="562" y="170" type="qcurve"/>
      <point x="565" y="185"/>
      <point x="565" y="213" type="qcurve"/>
      <point x="565" y="215"/>
      <point x="565" y="220" type="qcurve"/>
      <point x="565" y="225"/>
    </contour>
    <contour>
      <point x="249" y="535" type="qcurve"/>
      <point x="249" y="534"/>
      <point x="249" y="530" type="qcurve"/>
      <point x="249" y="526"/>
      <point x="249" y="524" type="qcurve"/>
      <point x="250" y="498"/>
      <point x="250" y="491" type="qcurve"/>
      <point x="250" y="337"/>
      <point x="179" y="199" type="qcurve"/>
      <point x="177" y="204"/>
      <point x="174" y="216" type="qcurve"/>
      <point x="171" y="227"/>
      <point x="169" y="233" type="qcurve"/>
      <point x="154" y="341" type="line"/>
      <point x="148" y="527" type="line"/>
      <point x="157" y="608"/>
      <point x="166" y="713" type="qcurve"/>
      <point x="168" y="717"/>
      <point x="173" y="730" type="qcurve"/>
      <point x="177" y="742"/>
      <point x="180" y="748" type="qcurve"/>
      <point x="182" y="754"/>
      <point x="187" y="763" type="qcurve"/>
      <point x="191" y="772"/>
      <point x="196" y="779" type="qcurve"/>
      <point x="198" y="782"/>
      <point x="201" y="786" type="qcurve"/>
      <point x="204" y="785"/>
      <point x="207" y="785" type="qcurve"/>
      <point x="212" y="774"/>
      <point x="215" y="762" type="qcurve"/>
      <point x="217" y="750"/>
      <point x="220" y="734" type="qcurve"/>
      <point x="223" y="717"/>
      <point x="225" y="710" type="qcurve"/>
      <point x="249" y="599"/>
    </contour>
    <contour>
      <point x="495" y="227" type="qcurve"/>
      <point x="495" y="225"/>
      <point x="495" y="220" type="qcurve"/>
      <point x="495" y="215"/>
      <point x="495" y="213" type="qcurve"/>
      <point x="495" y="185"/>
      <point x="492" y="170" type="qcurve"/>
      <point x="479" y="108"/>
      <point x="449" y="67" type="qcurve"/>
      <point x="428" y="53"/>
      <point x="404" y="52" type="qcurve"/>
      <point x="372" y="52"/>
      <point x="318" y="63" type="qcurve"/>
      <point x="264" y="74"/>
      <point x="248" y="76" type="qcurve"/>
      <point x="240" y="77"/>
      <point x="232" y="81" type="qcurve"/>
      <point x="224" y="94"/>
      <point x="209" y="131" type="qcurve"/>
      <point x="268" y="216"/>
      <point x="296" y="319" type="qcurve"/>
      <point x="308" y="289"/>
      <point x="319" y="278" type="qcurve"/>
      <point x="354" y="243" type="line"/>
      <point x="366" y="231"/>
      <point x="383" y="231" type="qcurve"/>
      <point x="404" y="224"/>
      <point x="423" y="224" type="qcurve"/>
      <point x="442" y="224"/>
      <point x="458" y="231" type="qcurve"/>
      <point x="481" y="239"/>
      <point x="493" y="240" type="qcurve"/>
      <point x="495" y="233"/>
    </contour>
    <contour>
      <point x="458" y="301" type="qcurve"/>
      <point x="442" y="295"/>
      <point x="423" y="295" type="qcurve"/>
      <point x="404" y="295"/>
      <point x="383" y="301" type="qcurve"/>
      <point x="378" y="301"/>
      <point x="374" y="302" type="qcurve"/>
      <point x="371" y="309"/>
      <point x="364" y="326" type="qcurve"/>
      <point x="364" y="330"/>
      <point x="367" y="336" type="qcurve"/>
      <point x="368" y="336"/>
      <point x="368" y="336" type="qcurve"/>
      <point x="424" y="336"/>
      <point x="453" y="316" type="qcurve"/>
      <point x="456" y="313"/>
      <point x="462" y="303" type="qcurve"/>
      <point x="460" y="302"/>
    </contour>
  </outline>
</glyph>
<glyph name="backslash.1" format="2">
  <advance width="386"/>
  <outline>
    <contour>
      <point x="311" y="107" type="qcurve"/>
      <point x="311" y="108"/>
      <point x="311" y="109" type="qcurve"/>
      <point x="80" y="667" type="line"/>
      <point x="78" y="670"/>
      <point x="75" y="670" type="qcurve"/>
      <point x="70" y="670"/>
      <point x="70" y="665" type="qcurve"/>
      <point x="70" y="664"/>
      <point x="70" y="663" type="qcurve"/>
      <point x="301" y="105" type="line"/>
      <point x="303" y="102"/>
      <point x="306" y="102" type="qcurve"/>
      <point x="311" y="102"/>
    </contour>
  </outline>
</glyph>
<glyph name="bar.0" format="2">
  <advance width="226"/>
  <outline>
    <contour>
      <point x="198" y="0" type="qcurve"/>
      <point x="198" y="781" type="line"/>
      <point x="198" y="796"/>
      <point x="188" y="806" type="qcurve"/>
      <point x="178" y="816"/>
      <point x="163" y="816" type="qcurve"/>
      <point x="148" y="816"/>
      <point x="138" y="806" type="qcurve"/>
      <point x="128" y="796"/>
      <point x="128" y="781" type="qcurve"/>
      <point x="128" y="0" type="line"/>
      <point x="128" y="-15"/>
      <point x="138" y="-25" type="qcurve"/>
      <point x="148" y="-35"/>
      <point x="163" y="-35" type="qcurve"/>
      <point x="178" y="-35"/>
      <point x="188" y="-25" type="qcurve"/>
      <point x="198" y="-15"/>
    </contour>
  </outline>
</glyph>
<glyph name="bar.1" format="2">
  <advance width="226"/>
  <outline>
    <contour>
      <point x="30" y="0" type="qcurve"/>
      <point x="30" y="781" type="line"/>
      <point x="30" y="786"/>
      <point x="25" y="786" type="qcurve"/>
      <point x="20" y="786"/>
      <point x="20" y="781" type="qcurve"/>
      <point x="20" y="0" type="line"/>
      <point x="20" y="-5"/>
      <point x="25" y="-5" type="qcurve"/>
      <point x="30" y="-5"/>
    </contour>
  </outline>
</glyph>
<glyph name="bracketleft.1" format="2">
  <advance width="256"/>
  <outline>
    <contour>
      <point x="80" y="813" type="line"/>
      <point x="177" y="813" type="line"/>
      <point x="182" y="813"/>
      <point x="182" y="818" type="qcurve"/>
      <point x="182" y="823"/>
      <point x="177" y="823" type="qcurve"/>
      <point x="75" y="823" type="line"/>
      <point x="70" y="823"/>
      <point x="70" y="818" type="qcurve"/>
      <point x="70" y="-202" type="line"/>
      <point x="70" y="-207"/>
      <point x="75" y="-207" type="qcurve"/>
      <point x="177" y="-207" type="line"/>
      <point x="182" y="-207"/>
      <point x="182" y="-202" type="qcurve"/>
      <point x="182" y="-197"/>
      <point x="177" y="-197" type="qcurve"/>
      <point x="80" y="-197" type="line"/>
    </contour>
  </outline>
</glyph>
<glyph name="colon.0" format="2">
  <advance width="154"/>
  <outline>
    <contour>
      <point x="108" y="422" type="qcurve"/>
      <point x="115" y="414"/>
      <point x="125" y="414" type="qcurve"/>
      <point x="135" y="414"/>
      <point x="143" y="422" type="qcurve"/>
      <point x="150" y="429"/>
      <point x="150" y="439" type="qcurve"/>
      <point x="150" y="449"/>
      <point x="143" y="457" type="qcurve"/>
      <point x="135" y="464"/>
      <point x="125" y="464" type="qcurve"/>
      <point x="115" y="464"/>
      <point x="108" y="457" type="qcurve"/>
      <point x="100" y="449"/>
      <point x="100" y="439" type="qcurve"/>
      <point x="100" y="429"/>
    </contour>
    <contour>
      <point x="108" y="12" type="qcurve"/>
      <point x="115" y="4"/>
      <point x="125" y="4" type="qcurve"/>
      <point x="135" y="4"/>
      <point x="143" y="12" type="qcurve"/>
      <point x="150" y="19"/>
      <point x="150" y="29" type="qcurve"/>
      <point x="150" y="39"/>
      <point x="143" y="47" type="qcurve"/>
      <point x="135" y="54"/>
      <point x="125" y="54" type="qcurve"/>
      <point x="115" y="54"/>
      <point x="108" y="47" type="qcurve"/>
      <point x="100" y="39"/>
      <point x="100" y="29" type="qcurve"/>
      <point x="100" y="19"/>
    </contour>
  </outline>
</glyph>
<glyph name="equal.0" format="2">
  <advance width="502"/>
  <outline>
    <contour>
      <point x="125" y="347" type="qcurve"/>
      <point x="473" y="347" type="line"/>
      <point x="483" y="347"/>
      <point x="491" y="355" type="qcurve"/>
      <point x="498" y="362"/>
      <point x="498" y="372" type="qcurve"/>
      <point x="498" y="382"/>
      <point x="491" y="390" type="qcurve"/>
      <point x="483" y="397"/>
      <point x="473" y="397" type="qcurve"/>
      <point x="125" y="397" type="line"/>
      <point x="115" y="397"/>
      <point x="108" y="390" type="qcurve"/>
      <point x="100" y="382"/>
      <point x="100" y="372" type="qcurve"/>
      <point x="100" y="362"/>
      <point x="108" y="355" type="qcurve"/>
      <point x="115" y="347"/>
    </contour>
    <contour>
      <point x="125" y="447" type="qcurve"/>
      <point x="473" y="447" type="line"/>
      <point x="483" y="447"/>
      <point x="491" y="455" type="qcurve"/>
      <point x="498" y="462"/>
      <point x="498" y="472" type="qcurve"/>
      <point x="498" y="482"/>
      <point x="491" y="490" type="qcurve"/>
      <point x="483" y="497"/>
      <point x="473" y="497" type="qcurve"/>
      <point x="125" y="497" type="line"/>
      <point x="115" y="497"/>
      <point x="108" y="490" type="qcurve"/>
      <point x="100" y="482"/>
      <point x="100" y="472" type="qcurve"/>
      <point x="100" y="462"/>
      <point x="108" y="455" type="qcurve"/>
      <point x="115" y="447"/>
    </contour>
  </outline>
</glyph>
<glyph name="exclam.1" format="2">
  <advance width="163"/>
  <outline>
    <contour>
      <point x="80" y="812" type="line"/>
      <point x="80" y="817"/>
      <point x="75" y="817" type="qcurve"/>
      <point x="70" y="817"/>
      <point x="70" y="812" type="qcurve"/>
      <point x="70" y="812"/>
      <point x="76" y="323" type="qcurve"/>
      <point x="76" y="318"/>
      <point x="81" y="318" type="qcurve"/>
      <point x="86" y="318"/>
      <point x="86" y="323" type="qcurve"/>
    </contour>
    <contour>
      <point x="79" y="203" type="qcurve"/>
      <point x="79" y="137" type="line"/>
      <point x="79" y="132"/>
      <point x="84" y="132" type="qcurve"/>
      <point x="89" y="132"/>
      <point x="89" y="137" type="qcurve"/>
      <point x="89" y="203" type="line"/>
      <point x="89" y="208"/>
      <point x="84" y="208" type="qcurve"/>
      <point x="79" y="208"/>
    </contour>
  </outline>
</glyph>
<glyph name="g.1" format="2">
  <advance width="470"/>
  <outline>
    <contour>
      <point x="-16" y="52" type="qcurve"/>
      <point x="-7" y="52"/>
      <point x="0" y="57" type="qcurve"/>
      <point x="7" y="61"/>
      <point x="15" y="69" type="qcurve"/>
      <point x="50" y="104" type="line"/>
      <point x="54" y="108"/>
      <point x="62" y="117" type="qcurve"/>
      <point x="70" y="126"/>
      <point x="70" y="126" type="qcurve"/>
      <point x="101" y="157"/>
      <point x="111" y="172" type="qcurve"/>
      <point x="119" y="196" type="line"/>
      <point x="121" y="201"/>
      <point x="121" y="207" type="qcurve"/>
      <point x="121" y="220"/>
      <point x="111" y="230" type="qcurve"/>
      <point x="101" y="240"/>
      <point x="88" y="240" type="qcurve"/>
      <point x="63" y="240"/>
      <point x="56" y="217" type="qcurve"/>
      <point x="41" y="172" type="line"/>
      <point x="34" y="162"/>
      <point x="25" y="152" type="qcurve"/>
      <point x="4" y="131"/>
      <point x="0" y="128" type="qcurve"/>
      <point x="0" y="127"/>
      <point x="-32" y="107" type="qcurve"/>
      <point x="-46" y="99"/>
      <point x="-46" y="82" type="qcurve"/>
      <point x="-46" y="70"/>
      <point x="-37" y="61" type="qcurve"/>
      <point x="-28" y="52"/>
    </contour>
    <contour>
      <point x="254" y="71" type="qcurve"/>
      <point x="275" y="71"/>
      <point x="289" y="74" type="qcurve"/>
      <point x="289" y="22" type="line"/>
      <point x="283" y="20"/>
      <point x="256" y="14" type="qcurve"/>
      <point x="229" y="8"/>
      <point x="219" y="5" type="qcurve"/>
      <point x="208" y="1"/>
      <point x="191" y="-7" type="qcurve"/>
      <point x="174" y="-15"/>
      <point x="165" y="-24" type="qcurve"/>
      <point x="129" y="-59" type="line"/>
      <point x="109" y="-80"/>
      <point x="109" y="-114" type="qcurve"/>
      <point x="108" y="-119"/>
      <point x="108" y="-123" type="qcurve"/>
      <point x="108" y="-150"/>
      <point x="127" y="-180" type="qcurve"/>
      <point x="130" y="-192"/>
      <point x="139" y="-201" type="qcurve"/>
      <point x="174" y="-237" type="line"/>
      <point x="194" y="-256"/>
      <point x="228" y="-256" type="qcurve"/>
      <point x="233" y="-256"/>
      <point x="238" y="-255" type="qcurve"/>
      <point x="242" y="-256"/>
      <point x="247" y="-256" type="qcurve"/>
      <point x="262" y="-256"/>
      <point x="275" y="-243" type="qcurve"/>
      <point x="311" y="-208" type="line"/>
      <point x="316" y="-202"/>
      <point x="321" y="-194" type="qcurve"/>
      <point x="339" y="-142" type="line"/>
      <point x="349" y="-82" type="line"/>
      <point x="357" y="-21" type="line"/>
      <point x="363" y="-16"/>
      <point x="369" y="-11" type="qcurve"/>
      <point x="404" y="25" type="line"/>
      <point x="417" y="37"/>
      <point x="423" y="54" type="qcurve"/>
      <point x="425" y="58"/>
      <point x="443" y="78" type="qcurve"/>
      <point x="451" y="92" type="line"/>
      <point x="455" y="99"/>
      <point x="455" y="107" type="qcurve"/>
      <point x="455" y="120"/>
      <point x="446" y="129" type="qcurve"/>
      <point x="437" y="138"/>
      <point x="425" y="138" type="qcurve"/>
      <point x="407" y="138"/>
      <point x="398" y="122" type="qcurve"/>
      <point x="373" y="78" type="line"/>
      <point x="360" y="64" type="line"/>
      <point x="361" y="129" type="line"/>
      <point x="371" y="142"/>
      <point x="371" y="154" type="qcurve"/>
      <point x="371" y="167"/>
      <point x="361" y="176" type="qcurve"/>
      <point x="361" y="192" type="line"/>
      <point x="355" y="322" type="line"/>
      <point x="350" y="336" type="line"/>
      <point x="344" y="350"/>
      <point x="336" y="367" type="qcurve"/>
      <point x="328" y="384"/>
      <point x="323" y="389" type="qcurve"/>
      <point x="287" y="424" type="line"/>
      <point x="287" y="425"/>
      <point x="286" y="425" type="qcurve"/>
      <point x="253" y="449"/>
      <point x="221" y="449" type="qcurve"/>
      <point x="181" y="449"/>
      <point x="146" y="414" type="qcurve"/>
      <point x="110" y="379" type="line"/>
      <point x="80" y="348"/>
      <point x="62" y="301" type="qcurve"/>
      <point x="43" y="253"/>
      <point x="43" y="210" type="qcurve"/>
      <point x="43" y="208"/>
      <point x="43" y="206" type="qcurve"/>
      <point x="43" y="132"/>
      <point x="61" y="114" type="qcurve"/>
      <point x="96" y="79" type="line"/>
      <point x="109" y="66"/>
      <point x="140" y="66" type="qcurve"/>
      <point x="158" y="66"/>
      <point x="196" y="71" type="qcurve"/>
      <point x="205" y="72"/>
      <point x="218" y="72" type="qcurve"/>
      <point x="224" y="72"/>
      <point x="236" y="72" type="qcurve"/>
      <point x="248" y="71"/>
    </contour>
    <contour>
      <point x="247" y="-186" type="qcurve"/>
      <point x="242" y="-186"/>
      <point x="238" y="-185" type="qcurve"/>
      <point x="233" y="-185"/>
      <point x="228" y="-185" type="qcurve"/>
      <point x="211" y="-185"/>
      <point x="197" y="-180" type="qcurve"/>
      <point x="179" y="-150"/>
      <point x="179" y="-123" type="qcurve"/>
      <point x="179" y="-119"/>
      <point x="179" y="-114" type="qcurve"/>
      <point x="179" y="-94"/>
      <point x="186" y="-79" type="qcurve"/>
      <point x="195" y="-74"/>
      <point x="209" y="-69" type="qcurve"/>
      <point x="222" y="-65"/>
      <point x="231" y="-63" type="qcurve"/>
      <point x="239" y="-61"/>
      <point x="258" y="-56" type="qcurve"/>
      <point x="277" y="-52"/>
      <point x="282" y="-50" type="qcurve"/>
      <point x="281" y="-68"/>
      <point x="269" y="-142" type="qcurve"/>
      <point x="254" y="-185" type="line"/>
      <point x="250" y="-186"/>
    </contour>
    <contour>
      <point x="254" y="142" type="qcurve"/>
      <point x="248" y="142"/>
      <point x="236" y="142" type="qcurve"/>
      <point x="224" y="142"/>
      <point x="218" y="142" type="qcurve"/>
      <point x="205" y="142"/>
      <point x="196" y="141" type="qcurve"/>
      <point x="158" y="136"/>
      <point x="140" y="136" type="qcurve"/>
      <point x="128" y="136"/>
      <point x="119" y="138" type="qcurve"/>
      <point x="113" y="159"/>
      <point x="113" y="206" type="qcurve"/>
      <point x="113" y="208"/>
      <point x="113" y="210" type="qcurve"/>
      <point x="113" y="246"/>
      <point x="127" y="287" type="qcurve"/>
      <point x="141" y="328"/>
      <point x="164" y="359" type="qcurve"/>
      <point x="191" y="378"/>
      <point x="221" y="378" type="qcurve"/>
      <point x="243" y="378"/>
      <point x="265" y="367" type="qcurve"/>
      <point x="275" y="347"/>
      <point x="285" y="322" type="qcurve"/>
      <point x="291" y="192" type="line"/>
      <point x="290" y="145" type="line"/>
      <point x="276" y="142"/>
    </contour>
  </outline>
</glyph>
<glyph name="greater.1" format="2">
  <advance width="388"/>
  <outline>
    <contour>
      <point x="70" y="635" type="qcurve"/>
      <point x="70" y="633"/>
      <point x="72" y="631" type="qcurve"/>
      <point x="302" y="411" type="line"/>
      <point x="83" y="179" type="line"/>
      <point x="82" y="178"/>
      <point x="82" y="176" type="qcurve"/>
      <point x="82" y="171"/>
      <point x="87" y="171" type="qcurve"/>
      <point x="89" y="171"/>
      <point x="91" y="173" type="qcurve"/>
      <point x="313" y="408" type="line"/>
      <point x="314" y="409"/>
      <point x="314" y="411" type="qcurve"/>
      <point x="314" y="413"/>
      <point x="312" y="415" type="qcurve"/>
      <point x="78" y="639" type="line"/>
      <point x="77" y="640"/>
      <point x="75" y="640" type="qcurve"/>
      <point x="70" y="640"/>
    </contour>
  </outline>
</glyph>
<glyph name="h.0" format="2">
  <advance width="651"/>
  <outline>
    <contour>
      <point x="481" y="130" type="qcurve"/>
      <point x="481" y="39"/>
      <point x="507" y="13" type="qcurve"/>
      <point x="542" y="-22" type="line"/>
      <point x="553" y="-33"/>
      <point x="569" y="-33" type="qcurve"/>
      <point x="573" y="-33"/>
      <point x="577" y="-32" type="qcurve"/>
      <point x="580" y="-31"/>
      <point x="584" y="-29" type="qcurve"/>
      <point x="588" y="-28"/>
      <point x="590" y="-27" type="qcurve"/>
      <point x="601" y="-24"/>
      <point x="625" y="8" type="qcurve"/>
      <point x="670" y="68" type="line"/>
      <point x="682" y="92" type="line"/>
      <point x="686" y="98"/>
      <point x="686" y="106" type="qcurve"/>
      <point x="686" y="119"/>
      <point x="677" y="128" type="qcurve"/>
      <point x="667" y="137"/>
      <point x="654" y="137" type="qcurve"/>
      <point x="635" y="137"/>
      <point x="626" y="120" type="qcurve"/>
      <point x="613" y="94"/>
      <point x="600" y="68" type="qcurve"/>
      <point x="578" y="39" type="line"/>
      <point x="573" y="37"/>
      <point x="569" y="37" type="qcurve"/>
      <point x="566" y="37"/>
      <point x="563" y="38" type="qcurve"/>
      <point x="552" y="69"/>
      <point x="552" y="130" type="qcurve"/>
      <point x="552" y="144"/>
      <point x="553" y="171" type="qcurve"/>
      <point x="554" y="197"/>
      <point x="554" y="209" type="qcurve"/>
      <point x="554" y="217"/>
      <point x="554" y="231" type="qcurve"/>
      <point x="553" y="245"/>
      <point x="553" y="251" type="qcurve"/>
      <point x="552" y="286"/>
      <point x="551" y="305" type="qcurve"/>
      <point x="550" y="324"/>
      <point x="542" y="351" type="qcurve"/>
      <point x="534" y="378"/>
      <point x="518" y="393" type="qcurve"/>
      <point x="483" y="429" type="line"/>
      <point x="470" y="441"/>
      <point x="452" y="448" type="qcurve"/>
      <point x="431" y="448"/>
      <point x="403" y="420" type="qcurve"/>
      <point x="367" y="384" type="line"/>
      <point x="355" y="372"/>
      <point x="333" y="344" type="qcurve"/>
      <point x="324" y="333"/>
      <point x="318" y="321" type="qcurve"/>
      <point x="312" y="308"/>
      <point x="306" y="289" type="qcurve"/>
      <point x="300" y="269"/>
      <point x="297" y="262" type="qcurve"/>
      <point x="291" y="304" type="line"/>
      <point x="314" y="355"/>
      <point x="328" y="413" type="qcurve"/>
      <point x="325" y="584" type="line"/>
      <point x="315" y="648"/>
      <point x="298" y="758" type="qcurve"/>
      <point x="295" y="764"/>
      <point x="290" y="782" type="qcurve"/>
      <point x="282" y="811"/>
      <point x="274" y="820" type="qcurve"/>
      <point x="238" y="855" type="line"/>
      <point x="231" y="862"/>
      <point x="221" y="862" type="qcurve"/>
      <point x="213" y="862"/>
      <point x="204" y="853" type="qcurve"/>
      <point x="194" y="843"/>
      <point x="186" y="827" type="qcurve"/>
      <point x="183" y="821" type="line"/>
      <point x="177" y="758" type="line"/>
      <point x="183" y="641" type="line"/>
      <point x="201" y="491" type="line"/>
      <point x="203" y="470"/>
      <point x="207" y="432" type="qcurve"/>
      <point x="210" y="394"/>
      <point x="214" y="363" type="qcurve"/>
      <point x="217" y="331"/>
      <point x="221" y="304" type="qcurve"/>
      <point x="189" y="233"/>
      <point x="146" y="183" type="qcurve"/>
      <point x="102" y="145"/>
      <point x="50" y="127" type="qcurve"/>
      <point x="28" y="119" type="line"/>
      <point x="6" y="111"/>
      <point x="6" y="88" type="qcurve"/>
      <point x="6" y="74"/>
      <point x="16" y="64" type="qcurve"/>
      <point x="25" y="54"/>
      <point x="39" y="54" type="qcurve"/>
      <point x="45" y="54"/>
      <point x="50" y="56" type="qcurve"/>
      <point x="113" y="79"/>
      <point x="164" y="129" type="qcurve"/>
      <point x="217" y="183"/>
      <point x="233" y="204" type="qcurve"/>
      <point x="234" y="203" type="line"/>
      <point x="234" y="182" type="line"/>
      <point x="243" y="104" type="line"/>
      <point x="249" y="-4" type="line"/>
      <point x="249" y="-17"/>
      <point x="259" y="-27" type="qcurve"/>
      <point x="269" y="-37"/>
      <point x="284" y="-37" type="qcurve"/>
      <point x="298" y="-37"/>
      <point x="309" y="-27" type="qcurve"/>
      <point x="318" y="-17"/>
      <point x="319" y="-4" type="qcurve"/>
      <point x="328" y="98" type="line"/>
      <point x="346" y="191" type="line"/>
      <point x="345" y="196"/>
      <point x="345" y="200" type="qcurve"/>
      <point x="345" y="209"/>
      <point x="351" y="223" type="qcurve"/>
      <point x="357" y="237"/>
      <point x="358" y="242" type="qcurve"/>
      <point x="365" y="254"/>
      <point x="378" y="291" type="qcurve"/>
      <point x="390" y="327"/>
      <point x="403" y="344" type="qcurve"/>
      <point x="415" y="358"/>
      <point x="419" y="364" type="qcurve"/>
      <point x="438" y="378"/>
      <point x="452" y="378" type="qcurve"/>
      <point x="458" y="375"/>
      <point x="463" y="373" type="qcurve"/>
      <point x="481" y="339"/>
      <point x="482" y="251" type="qcurve"/>
      <point x="482" y="245"/>
      <point x="483" y="231" type="qcurve"/>
      <point x="483" y="217"/>
      <point x="483" y="209" type="qcurve"/>
      <point x="483" y="197"/>
      <point x="482" y="171" type="qcurve"/>
      <point x="481" y="144"/>
    </contour>
  </outline>
</glyph>
<glyph name="nine.1" format="2">
  <advance width="312"/>
  <outline>
    <contour>
      <point x="211" y="108" type="qcurve"/>
      <point x="211" y="112"/>
      <point x="207" y="113" type="qcurve"/>
      <point x="198" y="115"/>
      <point x="175" y="116" type="qcurve"/>
      <point x="135" y="117"/>
      <point x="117" y="125" type="qcurve"/>
      <point x="80" y="141"/>
      <point x="80" y="198" type="qcurve"/>
      <point x="80" y="293"/>
      <point x="106" y="354" type="qcurve"/>
      <point x="126" y="400"/>
      <point x="150" y="400" type="qcurve"/>
      <point x="173" y="400"/>
      <point x="193" y="353" type="qcurve"/>
      <point x="218" y="293"/>
      <point x="226" y="194" type="qcurve"/>
      <point x="227" y="178"/>
      <point x="227" y="163" type="qcurve"/>
      <point x="227" y="117"/>
      <point x="214" y="70" type="qcurve"/>
      <point x="201" y="23"/>
      <point x="188" y="-5" type="qcurve"/>
      <point x="175" y="-33"/>
      <point x="148" y="-82" type="qcurve"/>
      <point x="107" y="-157"/>
      <point x="92" y="-198" type="qcurve"/>
      <point x="92" y="-199"/>
      <point x="92" y="-200" type="qcurve"/>
      <point x="92" y="-205"/>
      <point x="97" y="-205" type="qcurve"/>
      <point x="100" y="-205"/>
      <point x="102" y="-202" type="qcurve"/>
      <point x="117" y="-161"/>
      <point x="157" y="-87" type="qcurve"/>
      <point x="184" y="-37"/>
      <point x="197" y="-9" type="qcurve"/>
      <point x="210" y="19"/>
      <point x="224" y="68" type="qcurve"/>
      <point x="237" y="116"/>
      <point x="237" y="163" type="qcurve"/>
      <point x="237" y="179"/>
      <point x="236" y="195" type="qcurve"/>
      <point x="228" y="296"/>
      <point x="202" y="357" type="qcurve"/>
      <point x="180" y="410"/>
      <point x="150" y="410" type="qcurve"/>
      <point x="127" y="410"/>
      <point x="108" y="379" type="qcurve"/>
      <point x="70" y="318"/>
      <point x="70" y="198" type="qcurve"/>
      <point x="70" y="135"/>
      <point x="113" y="116" type="qcurve"/>
      <point x="132" y="108"/>
      <point x="174" y="106" type="qcurve"/>
      <point x="197" y="105"/>
      <point x="205" y="103" type="qcurve"/>
      <point x="205" y="103"/>
      <point x="206" y="103" type="qcurve"/>
      <point x="211" y="103"/>
    </contour>
  </outline>
</glyph>
<glyph name="numbersign.0" format="2">
  <advance width="565"/>
  <outline>
    <contour>
      <point x="125" y="230" type="qcurve"/>
      <point x="125" y="230"/>
      <point x="126" y="230" type="qcurve"/>
      <point x="537" y="239" type="line"/>
      <point x="547" y="239"/>
      <point x="554" y="246" type="qcurve"/>
      <point x="561" y="254"/>
      <point x="561" y="264" type="qcurve"/>
      <point x="561" y="274"/>
      <point x="554" y="282" type="qcurve"/>
      <point x="546" y="289"/>
      <point x="536" y="289" type="qcurve"/>
      <point x="536" y="289"/>
      <point x="535" y="289" type="qcurve"/>
      <point x="124" y="280" type="line"/>
      <point x="114" y="280"/>
      <point x="107" y="273" type="qcurve"/>
      <point x="100" y="265"/>
      <point x="100" y="255" type="qcurve"/>
      <point x="100" y="245"/>
      <point x="108" y="238" type="qcurve"/>
      <point x="115" y="230"/>
    </contour>
    <contour>
      <point x="125" y="430" type="qcurve"/>
      <point x="125" y="430"/>
      <point x="126" y="430" type="qcurve"/>
      <point x="537" y="439" type="line"/>
      <point x="547" y="439"/>
      <point x="554" y="446" type="qcurve"/>
      <point x="561" y="454"/>
      <point x="561" y="464" type="qcurve"/>
      <point x="561" y="474"/>
      <point x="554" y="482" type="qcurve"/>
      <point x="546" y="489"/>
      <point x="536" y="489" type="qcurve"/>
      <point x="536" y="489"/>
      <point x="535" y="489" type="qcurve"/>
      <point x="124" y="480" type="line"/>
      <point x="114" y="480"/>
      <point x="107" y="473" type="qcurve"/>
      <point x="100" y="465"/>
      <point x="100" y="455" type="qcurve"/>
      <point x="100" y="445"/>
      <point x="108" y="438" type="qcurve"/>
      <point x="115" y="430"/>
    </contour>
    <contour>
      <point x="449" y="567" type="qcurve"/>
      <point x="440" y="567"/>
      <point x="433" y="561" type="qcurve"/>
      <point x="426" y="555"/>
      <point x="424" y="546" type="qcurve"/>
      <point x="370" y="195" type="line"/>
      <point x="370" y="193"/>
      <point x="370" y="191" type="qcurve"/>
      <point x="370" y="181"/>
      <point x="378" y="174" type="qcurve"/>
      <point x="385" y="166"/>
      <point x="395" y="166" type="qcurve"/>
      <point x="404" y="166"/>
      <point x="411" y="172" type="qcurve"/>
      <point x="418" y="178"/>
      <point x="420" y="187" type="qcurve"/>
      <point x="474" y="538" type="line"/>
      <point x="474" y="540"/>
      <point x="474" y="542" type="qcurve"/>
      <point x="474" y="552"/>
      <point x="467" y="560" type="qcurve"/>
      <point x="459" y="567"/>
    </contour>
    <contour>
      <point x="248" y="567" type="qcurve"/>
      <point x="239" y="567"/>
      <point x="232" y="561" type="qcurve"/>
      <point x="225" y="555"/>
      <point x="223" y="546" type="qcurve"/>
      <point x="169" y="195" type="line"/>
      <point x="169" y="193"/>
      <point x="169" y="191" type="qcurve"/>
      <point x="169" y="181"/>
      <point x="177" y="174" type="qcurve"/>
      <point x="184" y="166"/>
      <point x="194" y="166" type="qcurve"/>
      <point x="203" y="166"/>
      <point x="210" y="172" type="qcurve"/>
      <point x="217" y="178"/>
      <point x="219" y="187" type="qcurve"/>
      <point x="273" y="538" type="line"/>
      <point x="273" y="540"/>
      <point x="273" y="542" type="qcurve"/>
      <point x="273" y="552"/>
      <point x="266" y="560" type="qcurve"/>
      <point x="258" y="567"/>
    </contour>
  </outline>
</glyph>
<glyph name="one.0" format="2">
  <advance width="313"/>
  <outline>
    <contour>
      <point x="125" y="-25" type="qcurve"/>
      <point x="205" y="-25" type="line"/>
      <point x="284" y="-25" type="line"/>
      <point x="294" y="-25"/>
      <point x="302" y="-17" type="qcurve"/>
      <point x="309" y="-10"/>
      <point x="309" y="0" type="qcurve"/>
      <point x="309" y="10"/>
      <point x="302" y="18" type="qcurve"/>
      <point x="294" y="25"/>
      <point x="284" y="25" type="qcurve"/>
      <point x="230" y="25" type="line"/>
      <point x="230" y="411" type="line"/>
      <point x="230" y="421"/>
      <point x="223" y="429" type="qcurve"/>
      <point x="215" y="436"/>
      <point x="205" y="436" type="qcurve"/>
      <point x="195" y="436"/>
      <point x="187" y="429" type="qcurve"/>
      <point x="124" y="367" type="line"/>
      <point x="117" y="359"/>
      <point x="117" y="349" type="qcurve"/>
      <point x="117" y="339"/>
      <point x="125" y="332" type="qcurve"/>
      <point x="132" y="324"/>
      <point x="142" y="324" type="qcurve"/>
      <point x="152" y="324"/>
      <point x="160" y="331" type="qcurve"/>
      <point x="180" y="351" type="line"/>
      <point x="180" y="25" type="line"/>
      <point x="125" y="25" type="line"/>
      <point x="115" y="25"/>
      <point x="108" y="18" type="qcurve"/>
      <point x="100" y="10"/>
      <point x="100" y="0" type="qcurve"/>
      <point x="100" y="-10"/>
      <point x="108" y="-17" type="qcurve"/>
      <point x="115" y="-25"/>
    </contour>
  </outline>
</glyph>
<glyph name="parenright.0" format="2">
  <advance width="208"/>
  <outline>
    <contour>
      <point x="125" y="-74" type="qcurve"/>
      <point x="138" y="-74"/>
      <point x="148" y="-64" type="qcurve"/>
      <point x="155" y="-57"/>
      <point x="161" y="-45" type="qcurve"/>
      <point x="166" y="-33"/>
      <point x="170" y="-15" type="qcurve"/>
      <point x="180" y="23"/>
      <point x="187" y="89" type="qcurve"/>
      <point x="204" y="242"/>
      <point x="204" y="467" type="qcurve"/>
      <point x="204" y="692"/>
      <point x="187" y="845" type="qcurve"/>
      <point x="180" y="911"/>
      <point x="170" y="949" type="qcurve"/>
      <point x="166" y="967"/>
      <point x="161" y="979" type="qcurve"/>
      <point x="155" y="991"/>
      <point x="148" y="998" type="qcurve"/>
      <point x="138" y="1008"/>
      <point x="125" y="1008" type="qcurve"/>
      <point x="115" y="1008"/>
      <point x="108" y="1001" type="qcurve"/>
      <point x="100" y="993"/>
      <point x="100" y="983" type="qcurve"/>
      <point x="100" y="968"/>
      <point x="114" y="961" type="qcurve"/>
      <point x="118" y="951"/>
      <point x="122" y="937" type="qcurve"/>
      <point x="130" y="902"/>
      <point x="137" y="840" type="qcurve"/>
      <point x="154" y="689"/>
      <point x="154" y="467" type="qcurve"/>
      <point x="154" y="272"/>
      <point x="141" y="126" type="qcurve"/>
      <point x="130" y="16"/>
      <point x="116" y="-21" type="qcurve"/>
      <point x="114" y="-27" type="line"/>
      <point x="100" y="-33"/>
      <point x="100" y="-49" type="qcurve"/>
      <point x="100" y="-59"/>
      <point x="108" y="-66" type="qcurve"/>
      <point x="115" y="-74"/>
    </contour>
  </outline>
</glyph>
<glyph name="period.0" format="2">
  <advance width="154"/>
  <outline>
    <contour>
      <point x="108" y="12" type="qcurve"/>
      <point x="115" y="4"/>
      <point x="125" y="4" type="qcurve"/>
      <point x="135" y="4"/>
      <point x="143" y="12" type="qcurve"/>
      <point x="150" y="19"/>
      <point x="150" y="29" type="qcurve"/>
      <point x="150" y="39"/>
      <point x="143" y="47" type="qcurve"/>
      <point x="135" y="54"/>
      <point x="125" y="54" type="qcurve"/>
      <point x="115" y="54"/>
      <point x="108" y="47" type="qcurve"/>
      <point x="100" y="39"/>
      <point x="100" y="29" type="qcurve"/>
      <point x="100" y="19"/>
    </contour>
  </outline>
</glyph>
<glyph name="period.1" format="2">
  <advance width="154"/>
  <outline>
    <contour>
      <point x="75" y="24" type="qcurve"/>
      <point x="80" y="24"/>
      <point x="80" y="29" type="qcurve"/>
      <point x="80" y="34"/>
      <point x="75" y="34" type="qcurve"/>
      <point x="70" y="34"/>
      <point x="70" y="29" type="qcurve"/>
      <point x="70" y="24"/>
    </contour>
  </outline>
</glyph>
<glyph name="plus.0" format="2">
  <advance width="434"/>
  <outline>
    <contour>
      <point x="231" y="554" type="qcurve"/>
      <point x="231" y="273" type="line"/>
      <point x="231" y="263"/>
      <point x="239" y="256" type="qcurve"/>
      <point x="246" y="248"/>
      <point x="256" y="248" type="qcurve"/>
      <point x="266" y="248"/>
      <point x="274" y="256" type="qcurve"/>
      <point x="281" y="263"/>
      <point x="281" y="273" type="qcurve"/>
      <point x="281" y="554" type="line"/>
      <point x="281" y="564"/>
      <point x="274" y="572" type="qcurve"/>
      <point x="266" y="579"/>
      <point x="256" y="579" type="qcurve"/>
      <point x="246" y="579"/>
      <point x="239" y="572" type="qcurve"/>
      <point x="231" y="564"/>
    </contour>
    <contour>
      <point x="125" y="386" type="qcurve"/>
      <point x="404" y="386" type="line"/>
      <point x="414" y="386"/>
      <point x="422" y="394" type="qcurve"/>
      <point x="429" y="401"/>
      <point x="429" y="411" type="qcurve"/>
      <point x="429" y="421"/>
      <point x="422" y="429" type="qcurve"/>
      <point x="414" y="436"/>
      <point x="404" y="436" type="qcurve"/>
      <point x="125" y="436" type="line"/>
      <point x="115" y="436"/>
      <point x="108" y="429" type="qcurve"/>
      <point x="100" y="421"/>
      <point x="100" y="411" type="qcurve"/>
      <point x="100" y="401"/>
      <point x="108" y="394" type="qcurve"/>
      <point x="115" y="386"/>
    </contour>
  </outline>
</glyph>
<glyph name="plus.1" format="2">
  <advance width="434"/>
  <outline>
    <contour>
      <point x="201" y="554" type="qcurve"/>
      <point x="201" y="273" type="line"/>
      <point x="201" y="268"/>
      <point x="206" y="268" type="qcurve"/>
      <point x="211" y="268"/>
      <point x="211" y="273" type="qcurve"/>
      <point x="211" y="554" type="line"/>
      <point x="211" y="559"/>
      <point x="206" y="559" type="qcurve"/>
      <point x="201" y="559"/>
    </contour>
    <contour>
      <point x="75" y="406" type="qcurve"/>
      <point x="354" y="406" type="line"/>
      <point x="359" y="406"/>
      <point x="359" y="411" type="qcurve"/>
      <point x="359" y="416"/>
      <point x="354" y="416" type="qcurve"/>
      <point x="75" y="416" type="line"/>
      <point x="70" y="416"/>
      <point x="70" y="411" type="qcurve"/>
      <point x="70" y="406"/>
    </contour>
  </outline>
</glyph>
<glyph name="quotedbl.0" format="2">
  <advance width="246"/>
  <outline>
    <contour>
      <point x="100" y="737" type="qcurve"/>
      <point x="100" y="736"/>
      <point x="100" y="736" type="qcurve"/>
      <point x="103" y="670" type="line"/>
      <point x="103" y="660"/>
      <point x="110" y="653" type="qcurve"/>
      <point x="118" y="646"/>
      <point x="128" y="646" type="qcurve"/>
      <point x="138" y="646"/>
      <point x="146" y="654" type="qcurve"/>
      <point x="153" y="661"/>
      <point x="153" y="671" type="qcurve"/>
      <point x="153" y="672"/>
      <point x="153" y="672" type="qcurve"/>
      <point x="150" y="738" type="line"/>
      <point x="150" y="748"/>
      <point x="143" y="755" type="qcurve"/>
      <point x="135" y="762"/>
      <point x="125" y="762" type="qcurve"/>
      <point x="115" y="762"/>
      <point x="108" y="755" type="qcurve"/>
      <point x="100" y="747"/>
    </contour>
    <contour>
      <point x="190" y="740" type="qcurve"/>
      <point x="190" y="739"/>
      <point x="190" y="739" type="qcurve"/>
      <point x="193" y="673" type="line"/>
      <point x="193" y="663"/>
      <point x="200" y="656" type="qcurve"/>
      <point x="208" y="649"/>
      <point x="218" y="649" type="qcurve"/>
      <point x="228" y="649"/>
      <point x="236" y="657" type="qcurve"/>
      <point x="243" y="664"/>
      <point x="243" y="674" type="qcurve"/>
      <point x="243" y="675"/>
      <point x="243" y="675" type="qcurve"/>
      <point x="240" y="741" type="line"/>
      <point x="240" y="751"/>
      <point x="233" y="758" type="qcurve"/>
      <point x="225" y="765"/>
      <point x="215" y="765" type="qcurve"/>
      <point x="205" y="765"/>
      <point x="198" y="758" type="qcurve"/>
      <point x="190" y="750"/>
    </contour>
  </outline>
</glyph>
<glyph name="quotesingle.0" format="2">
  <advance width="157"/>
  <outline>
    <contour>
      <point x="153" y="728" type="qcurve"/>
      <point x="153" y="738"/>
      <point x="146" y="746" type="qcurve"/>
      <point x="138" y="753"/>
      <point x="128" y="753" type="qcurve"/>
      <point x="118" y="753"/>
      <point x="110" y="746" type="qcurve"/>
      <point x="103" y="739"/>
      <point x="103" y="729" type="qcurve"/>
      <point x="100" y="618" type="line"/>
      <point x="100" y="617"/>
      <point x="100" y="617" type="qcurve"/>
      <point x="100" y="607"/>
      <point x="108" y="600" type="qcurve"/>
      <point x="115" y="592"/>
      <point x="125" y="592" type="qcurve"/>
      <point x="135" y="592"/>
      <point x="143" y="599" type="qcurve"/>
      <point x="150" y="606"/>
      <point x="150" y="616" type="qcurve"/>
      <point x="153" y="727" type="line"/>
      <point x="153" y="728"/>
    </contour>
  </outline>
</glyph>
<glyph name="slash.1" format="2">
  <advance width="386"/>
  <outline>
    <contour>
      <point x="75" y="102" type="qcurve"/>
      <point x="78" y="102"/>
      <point x="80" y="105" type="qcurve"/>
      <point x="311" y="663" type="line"/>
      <point x="311" y="664"/>
      <point x="311" y="665" type="qcurve"/>
      <point x="311" y="670"/>
      <point x="306" y="670" type="qcurve"/>
      <point x="303" y="670"/>
      <point x="301" y="667" type="qcurve"/>
      <point x="70" y="109" type="line"/>
      <point x="70" y="108"/>
      <point x="70" y="107" type="qcurve"/>
      <point x="70" y="102"/>
    </contour>
  </outline>
</glyph>
<glyph name="t.0" format="2">
  <advance width="410"/>
  <outline>
    <contour>
      <point x="134" y="545" type="qcurve"/>
      <point x="156" y="545"/>
      <point x="200" y="555" type="qcurve"/>
      <point x="243" y="565"/>
      <point x="264" y="565" type="qcurve"/>
      <point x="268" y="565" type="line"/>
      <point x="354" y="515" type="line"/>
      <point x="361" y="510"/>
      <point x="369" y="510" type="qcurve"/>
      <point x="382" y="510"/>
      <point x="391" y="519" type="qcurve"/>
      <point x="400" y="528"/>
      <point x="400" y="541" type="qcurve"/>
      <point x="400" y="559"/>
      <point x="385" y="567" type="qcurve"/>
      <point x="268" y="635" type="line"/>
      <point x="264" y="635" type="line"/>
      <point x="243" y="635"/>
      <point x="200" y="625" type="qcurve"/>
      <point x="156" y="615"/>
      <point x="134" y="615" type="qcurve"/>
      <point x="124" y="615"/>
      <point x="105" y="621" type="qcurve"/>
      <point x="86" y="627"/>
      <point x="76" y="627" type="qcurve"/>
      <point x="72" y="627" type="line"/>
      <point x="57" y="627"/>
      <point x="47" y="617" type="qcurve"/>
      <point x="37" y="607"/>
      <point x="37" y="592" type="qcurve"/>
      <point x="37" y="577"/>
      <point x="47" y="567" type="qcurve"/>
      <point x="57" y="557"/>
      <point x="72" y="557" type="qcurve"/>
      <point x="76" y="557" type="line"/>
      <point x="86" y="557"/>
      <point x="105" y="551" type="qcurve"/>
      <point x="124" y="545"/>
    </contour>
    <contour>
      <point x="318" y="-23" type="qcurve"/>
      <point x="339" y="-23"/>
      <point x="358" y="-4" type="qcurve"/>
      <point x="379" y="17" type="line"/>
      <point x="382" y="19"/>
      <point x="384" y="21" type="qcurve"/>
      <point x="411" y="39"/>
      <point x="419" y="56" type="qcurve"/>
      <point x="439" y="96" type="line"/>
      <point x="443" y="103"/>
      <point x="443" y="110" type="qcurve"/>
      <point x="443" y="123"/>
      <point x="434" y="133" type="qcurve"/>
      <point x="424" y="142"/>
      <point x="411" y="142" type="qcurve"/>
      <point x="392" y="142"/>
      <point x="383" y="124" type="qcurve"/>
      <point x="377" y="114"/>
      <point x="367" y="92" type="qcurve"/>
      <point x="356" y="70"/>
      <point x="350" y="60" type="qcurve"/>
      <point x="336" y="47"/>
      <point x="318" y="47" type="qcurve"/>
      <point x="314" y="47"/>
      <point x="307" y="47" type="qcurve"/>
      <point x="299" y="47"/>
      <point x="296" y="47" type="qcurve"/>
      <point x="264" y="47"/>
      <point x="252" y="51" type="qcurve"/>
      <point x="252" y="52"/>
      <point x="251" y="52" type="qcurve"/>
      <point x="245" y="92" type="line"/>
      <point x="235" y="210" type="line"/>
      <point x="234" y="229"/>
      <point x="230" y="267" type="qcurve"/>
      <point x="225" y="304"/>
      <point x="223" y="323" type="qcurve"/>
      <point x="245" y="399"/>
      <point x="247" y="476" type="qcurve"/>
      <point x="247" y="479"/>
      <point x="248" y="495" type="qcurve"/>
      <point x="253" y="584"/>
      <point x="253" y="640" type="qcurve"/>
      <point x="253" y="761"/>
      <point x="234" y="780" type="qcurve"/>
      <point x="198" y="816" type="line"/>
      <point x="194" y="819"/>
      <point x="190" y="819" type="qcurve"/>
      <point x="186" y="819"/>
      <point x="182" y="815" type="qcurve"/>
      <point x="173" y="807" type="line"/>
      <point x="140" y="780"/>
      <point x="139" y="772" type="qcurve"/>
      <point x="129" y="696" type="line"/>
      <point x="123" y="626" type="line"/>
      <point x="127" y="524" type="line"/>
      <point x="135" y="446" type="line"/>
      <point x="143" y="394"/>
      <point x="151" y="346" type="qcurve"/>
      <point x="153" y="323" type="line"/>
      <point x="119" y="208"/>
      <point x="52" y="131" type="qcurve"/>
      <point x="50" y="129"/>
      <point x="13" y="98" type="qcurve"/>
      <point x="3" y="90"/>
      <point x="3" y="78" type="qcurve"/>
      <point x="3" y="66"/>
      <point x="11" y="58" type="qcurve"/>
      <point x="19" y="50"/>
      <point x="31" y="50" type="qcurve"/>
      <point x="40" y="50"/>
      <point x="48" y="57" type="qcurve"/>
      <point x="59" y="66"/>
      <point x="70" y="77" type="qcurve"/>
      <point x="105" y="112" type="line"/>
      <point x="139" y="146"/>
      <point x="166" y="191" type="qcurve"/>
      <point x="175" y="92" type="line"/>
      <point x="181" y="52" type="line"/>
      <point x="189" y="35"/>
      <point x="197" y="27" type="qcurve"/>
      <point x="233" y="-8" type="line"/>
      <point x="242" y="-18"/>
      <point x="256" y="-20" type="qcurve"/>
      <point x="269" y="-23"/>
      <point x="296" y="-23" type="qcurve"/>
      <point x="299" y="-23"/>
      <point x="307" y="-23" type="qcurve"/>
      <point x="314" y="-23"/>
    </contour>
  </outline>
</glyph>
<glyph name="t.1" format="2">
  <advance width="410"/>
  <outline>
    <contour>
      <point x="85" y="545" type="qcurve"/>
      <point x="107" y="545"/>
      <point x="151" y="555" type="qcurve"/>
      <point x="194" y="565"/>
      <point x="215" y="565" type="qcurve"/>
      <point x="219" y="565" type="line"/>
      <point x="305" y="515" type="line"/>
      <point x="312" y="510"/>
      <point x="320" y="510" type="qcurve"/>
      <point x="333" y="510"/>
      <point x="342" y="519" type="qcurve"/>
      <point x="351" y="528"/>
      <point x="351" y="541" type="qcurve"/>
      <point x="351" y="559"/>
      <point x="336" y="567" type="qcurve"/>
      <point x="219" y="635" type="line"/>
      <point x="215" y="635" type="line"/>
      <point x="194" y="635"/>
      <point x="151" y="625" type="qcurve"/>
      <point x="107" y="615"/>
      <point x="85" y="615" type="qcurve"/>
      <point x="75" y="615"/>
      <point x="56" y="621" type="qcurve"/>
      <point x="37" y="627"/>
      <point x="27" y="627" type="qcurve"/>
      <point x="23" y="627" type="line"/>
      <point x="8" y="627"/>
      <point x="-2" y="617" type="qcurve"/>
      <point x="-12" y="607"/>
      <point x="-12" y="592" type="qcurve"/>
      <point x="-12" y="577"/>
      <point x="-2" y="567" type="qcurve"/>
      <point x="8" y="557"/>
      <point x="23" y="557" type="qcurve"/>
      <point x="27" y="557" type="line"/>
      <point x="37" y="557"/>
      <point x="56" y="551" type="qcurve"/>
      <point x="75" y="545"/>
    </contour>
    <contour>
      <point x="269" y="-23" type="qcurve"/>
      <point x="290" y="-23"/>
      <point x="309" y="-4" type="qcurve"/>
      <point x="330" y="17" type="line"/>
      <point x="333" y="19"/>
      <point x="335" y="21" type="qcurve"/>
      <point x="362" y="39"/>
      <point x="370" y="56" type="qcurve"/>
      <point x="390" y="96" type="line"/>
      <point x="394" y="103"/>
      <point x="394" y="110" type="qcurve"/>
      <point x="394" y="123"/>
      <point x="385" y="133" type="qcurve"/>
      <point x="375" y="142"/>
      <point x="362" y="142" type="qcurve"/>
      <point x="343" y="142"/>
      <point x="334" y="124" type="qcurve"/>
      <point x="301" y="60" type="line"/>
      <point x="287" y="47"/>
      <point x="269" y="47" type="qcurve"/>
      <point x="265" y="47"/>
      <point x="258" y="47" type="qcurve"/>
      <point x="250" y="47"/>
      <point x="247" y="47" type="qcurve"/>
      <point x="215" y="47"/>
      <point x="203" y="51" type="qcurve"/>
      <point x="203" y="52"/>
      <point x="202" y="52" type="qcurve"/>
      <point x="196" y="92" type="line"/>
      <point x="186" y="210" type="line"/>
      <point x="185" y="229"/>
      <point x="181" y="267" type="qcurve"/>
      <point x="176" y="304"/>
      <point x="174" y="323" type="qcurve"/>
      <point x="196" y="399"/>
      <point x="198" y="476" type="qcurve"/>
      <point x="198" y="479"/>
      <point x="199" y="495" type="qcurve"/>
      <point x="204" y="584"/>
      <point x="204" y="640" type="qcurve"/>
      <point x="204" y="761"/>
      <point x="185" y="780" type="qcurve"/>
      <point x="149" y="816" type="line"/>
      <point x="145" y="819"/>
      <point x="141" y="819" type="qcurve"/>
      <point x="137" y="819"/>
      <point x="133" y="815" type="qcurve"/>
      <point x="124" y="807" type="line"/>
      <point x="91" y="780"/>
      <point x="90" y="772" type="qcurve"/>
      <point x="80" y="696" type="line"/>
      <point x="74" y="626" type="line"/>
      <point x="78" y="524" type="line"/>
      <point x="86" y="446" type="line"/>
      <point x="94" y="394"/>
      <point x="102" y="346" type="qcurve"/>
      <point x="104" y="323" type="line"/>
      <point x="70" y="208"/>
      <point x="3" y="131" type="qcurve"/>
      <point x="1" y="129"/>
      <point x="-36" y="98" type="qcurve"/>
      <point x="-46" y="90"/>
      <point x="-46" y="78" type="qcurve"/>
      <point x="-46" y="66"/>
      <point x="-38" y="58" type="qcurve"/>
      <point x="-30" y="50"/>
      <point x="-18" y="50" type="qcurve"/>
      <point x="-9" y="50"/>
      <point x="-1" y="57" type="qcurve"/>
      <point x="10" y="66"/>
      <point x="21" y="77" type="qcurve"/>
      <point x="56" y="112" type="line"/>
      <point x="90" y="146"/>
      <point x="117" y="191" type="qcurve"/>
      <point x="126" y="92" type="line"/>
      <point x="132" y="52" type="line"/>
      <point x="140" y="35"/>
      <point x="148" y="27" type="qcurve"/>
      <point x="184" y="-8" type="line"/>
      <point x="193" y="-18"/>
      <point x="207" y="-20" type="qcurve"/>
      <point x="220" y="-23"/>
      <point x="247" y="-23" type="qcurve"/>
      <point x="250" y="-23"/>
      <point x="258" y="-23" type="qcurve"/>
      <point x="265" y="-23"/>
    </contour>
  </outline>
</glyph>
<glyph name="two.0" format="2">
  <advance width="410"/>
  <outline>
    <contour>
      <point x="282" y="436" type="qcurve"/>
      <point x="257" y="436"/>
      <point x="233" y="428" type="qcurve"/>
      <point x="209" y="420"/>
      <point x="197" y="412" type="qcurve"/>
      <point x="185" y="404"/>
      <point x="164" y="389" type="qcurve"/>
      <point x="133" y="366"/>
      <point x="114" y="356" type="qcurve"/>
      <point x="100" y="349"/>
      <point x="100" y="334" type="qcurve"/>
      <point x="100" y="324"/>
      <point x="108" y="317" type="qcurve"/>
      <point x="115" y="309"/>
      <point x="125" y="309" type="qcurve"/>
      <point x="131" y="309"/>
      <point x="136" y="312" type="qcurve"/>
      <point x="159" y="323"/>
      <point x="194" y="349" type="qcurve"/>
      <point x="213" y="363"/>
      <point x="223" y="369" type="qcurve"/>
      <point x="232" y="375"/>
      <point x="248" y="381" type="qcurve"/>
      <point x="264" y="386"/>
      <point x="282" y="386" type="qcurve"/>
      <point x="306" y="386"/>
      <point x="324" y="369" type="qcurve"/>
      <point x="337" y="356"/>
      <point x="345" y="334" type="qcurve"/>
      <point x="355" y="304"/>
      <point x="355" y="280" type="qcurve"/>
      <point x="355" y="245"/>
      <point x="333" y="214" type="qcurve"/>
      <point x="310" y="182"/>
      <point x="288" y="160" type="qcurve"/>
      <point x="260" y="132"/>
      <point x="199" y="89" type="qcurve"/>
      <point x="141" y="47"/>
      <point x="109" y="19" type="qcurve"/>
      <point x="100" y="11"/>
      <point x="100" y="0" type="qcurve"/>
      <point x="100" y="-10"/>
      <point x="108" y="-17" type="qcurve"/>
      <point x="115" y="-25"/>
      <point x="125" y="-25" type="qcurve"/>
      <point x="380" y="-25" type="line"/>
      <point x="390" y="-25"/>
      <point x="398" y="-17" type="qcurve"/>
      <point x="405" y="-10"/>
      <point x="405" y="0" type="qcurve"/>
      <point x="405" y="10"/>
      <point x="398" y="18" type="qcurve"/>
      <point x="390" y="25"/>
      <point x="380" y="25" type="qcurve"/>
      <point x="196" y="25" type="line"/>
      <point x="207" y="33"/>
      <point x="229" y="48" type="qcurve"/>
      <point x="250" y="63"/>
      <point x="262" y="72" type="qcurve"/>
      <point x="274" y="81"/>
      <point x="292" y="96" type="qcurve"/>
      <point x="309" y="110"/>
      <point x="323" y="125" type="qcurve"/>
      <point x="350" y="152"/>
      <point x="373" y="185" type="qcurve"/>
      <point x="405" y="229"/>
      <point x="405" y="280" type="qcurve"/>
      <point x="405" y="313"/>
      <point x="391" y="352" type="qcurve"/>
      <point x="380" y="383"/>
      <point x="359" y="404" type="qcurve"/>
      <point x="327" y="436"/>
    </contour>
  </outline>
</glyph>
<glyph name="underscore.1" format="2">
  <advance width="698"/>
  <outline>
    <contour>
      <point x="75" y="-168" type="line"/>
      <point x="70" y="-168"/>
      <point x="70" y="-173" type="qcurve"/>
      <point x="70" y="-178"/>
      <point x="75" y="-178" type="qcurve"/>
      <point x="618" y="-184" type="line"/>
      <point x="623" y="-184"/>
      <point x="623" y="-179" type="qcurve"/>
      <point x="623" y="-174"/>
      <point x="618" y="-174" type="qcurve"/>
    </contour>
  </outline>
</glyph>
<glyph name="v.1" format="2">
  <advance width="498"/>
  <outline>
    <contour>
      <point x="35" y="93" type="qcurve"/>
      <point x="35" y="95" type="line"/>
      <point x="40" y="102"/>
      <point x="42" y="117" type="qcurve"/>
      <point x="43" y="132"/>
      <point x="45" y="137" type="qcurve"/>
      <point x="48" y="158"/>
      <point x="54" y="198" type="qcurve"/>
      <point x="60" y="238"/>
      <point x="61" y="244" type="qcurve"/>
      <point x="63" y="254"/>
      <point x="67" y="277" type="qcurve"/>
      <point x="70" y="300"/>
      <point x="72" y="312" type="qcurve"/>
      <point x="74" y="334"/>
      <point x="78" y="350" type="qcurve"/>
      <point x="78" y="349"/>
      <point x="79" y="349" type="qcurve"/>
      <point x="89" y="334"/>
      <point x="90" y="317" type="qcurve"/>
      <point x="92" y="310"/>
      <point x="95" y="291" type="qcurve"/>
      <point x="98" y="272"/>
      <point x="103" y="263" type="qcurve"/>
      <point x="107" y="243"/>
      <point x="121" y="207" type="qcurve"/>
      <point x="135" y="171"/>
      <point x="139" y="159" type="qcurve"/>
      <point x="140" y="154"/>
      <point x="148" y="127" type="qcurve"/>
      <point x="150" y="99"/>
      <point x="154" y="22" type="qcurve"/>
      <point x="164" y="2" type="line"/>
      <point x="181" y="-32"/>
      <point x="199" y="-33" type="qcurve"/>
      <point x="211" y="-34"/>
      <point x="212" y="-34" type="qcurve"/>
      <point x="223" y="-32"/>
      <point x="233" y="-22" type="qcurve"/>
      <point x="269" y="14" type="line"/>
      <point x="277" y="22"/>
      <point x="289" y="41" type="qcurve"/>
      <point x="300" y="60"/>
      <point x="302" y="63" type="qcurve"/>
      <point x="312" y="84"/>
      <point x="333" y="122" type="qcurve"/>
      <point x="350" y="153"/>
      <point x="354" y="163" type="qcurve"/>
      <point x="361" y="154"/>
      <point x="406" y="101" type="qcurve"/>
      <point x="417" y="70" type="line"/>
      <point x="425" y="48"/>
      <point x="448" y="48" type="qcurve"/>
      <point x="462" y="48"/>
      <point x="472" y="58" type="qcurve"/>
      <point x="481" y="68"/>
      <point x="481" y="81" type="qcurve"/>
      <point x="481" y="87"/>
      <point x="476" y="101" type="qcurve"/>
      <point x="440" y="143" type="line"/>
      <point x="400" y="194" type="line"/>
      <point x="397" y="202"/>
      <point x="386" y="213" type="qcurve"/>
      <point x="370" y="229" type="line"/>
      <point x="372" y="240"/>
      <point x="374" y="263" type="qcurve"/>
      <point x="375" y="285"/>
      <point x="375" y="289" type="qcurve"/>
      <point x="373" y="363" type="line"/>
      <point x="366" y="384" type="line"/>
      <point x="358" y="408"/>
      <point x="331" y="419" type="qcurve"/>
      <point x="324" y="422"/>
      <point x="313" y="430" type="qcurve"/>
      <point x="301" y="437"/>
      <point x="291" y="441" type="qcurve"/>
      <point x="280" y="445"/>
      <point x="268" y="445" type="qcurve"/>
      <point x="261" y="444"/>
      <point x="256" y="440" type="qcurve"/>
      <point x="221" y="405" type="line"/>
      <point x="215" y="398"/>
      <point x="215" y="384" type="qcurve"/>
      <point x="215" y="382"/>
      <point x="218" y="357" type="qcurve"/>
      <point x="220" y="331"/>
      <point x="241" y="298" type="qcurve"/>
      <point x="258" y="270"/>
      <point x="289" y="238" type="qcurve"/>
      <point x="300" y="228" type="line"/>
      <point x="295" y="192" type="line"/>
      <point x="291" y="176"/>
      <point x="276" y="147" type="qcurve"/>
      <point x="236" y="72"/>
      <point x="232" y="63" type="qcurve"/>
      <point x="228" y="58"/>
      <point x="223" y="50" type="qcurve"/>
      <point x="222" y="86"/>
      <point x="218" y="127" type="qcurve"/>
      <point x="209" y="159" type="line"/>
      <point x="206" y="171"/>
      <point x="192" y="207" type="qcurve"/>
      <point x="178" y="243"/>
      <point x="173" y="263" type="qcurve"/>
      <point x="169" y="272"/>
      <point x="166" y="291" type="qcurve"/>
      <point x="163" y="310"/>
      <point x="160" y="317" type="qcurve"/>
      <point x="160" y="334"/>
      <point x="149" y="349" type="qcurve"/>
      <point x="149" y="350"/>
      <point x="128" y="382" type="qcurve"/>
      <point x="127" y="383"/>
      <point x="118" y="393" type="qcurve"/>
      <point x="109" y="402"/>
      <point x="107" y="408" type="qcurve"/>
      <point x="102" y="424"/>
      <point x="93" y="434" type="qcurve"/>
      <point x="83" y="443"/>
      <point x="72" y="443" type="qcurve"/>
      <point x="70" y="443"/>
      <point x="68" y="441" type="qcurve"/>
      <point x="32" y="406" type="line"/>
      <point x="31" y="405"/>
      <point x="29" y="402" type="qcurve"/>
      <point x="29" y="402"/>
      <point x="22" y="395" type="qcurve"/>
      <point x="19" y="392"/>
      <point x="17" y="387" type="qcurve"/>
      <point x="14" y="381"/>
      <point x="13" y="378" type="qcurve"/>
      <point x="12" y="375"/>
      <point x="11" y="367" type="qcurve"/>
      <point x="10" y="358"/>
      <point x="10" y="356" type="qcurve"/>
      <point x="3" y="339"/>
      <point x="2" y="312" type="qcurve"/>
      <point x="-1" y="300"/>
      <point x="-4" y="277" type="qcurve"/>
      <point x="-7" y="254"/>
      <point x="-9" y="244" type="qcurve"/>
      <point x="-10" y="238"/>
      <point x="-16" y="198" type="qcurve"/>
      <point x="-23" y="158"/>
      <point x="-25" y="137" type="qcurve"/>
      <point x="-27" y="132"/>
      <point x="-29" y="117" type="qcurve"/>
      <point x="-31" y="102"/>
      <point x="-35" y="95" type="qcurve"/>
      <point x="-35" y="93" type="line"/>
      <point x="-35" y="78"/>
      <point x="-25" y="68" type="qcurve"/>
      <point x="-15" y="58"/>
      <point x="0" y="58" type="qcurve"/>
      <point x="15" y="58"/>
      <point x="25" y="68" type="qcurve"/>
      <point x="35" y="78"/>
    </contour>
    <contour>
      <point x="302" y="365" type="qcurve"/>
      <point x="303" y="363" type="line"/>
      <point x="304" y="310" type="line"/>
      <point x="290" y="335"/>
      <point x="288" y="357" type="qcurve"/>
      <point x="288" y="359"/>
      <point x="288" y="364" type="qcurve"/>
      <point x="287" y="369"/>
      <point x="286" y="372" type="qcurve"/>
      <point x="293" y="370"/>
    </contour>
  </outline>
</glyph>
<glyph name="w.0" format="2">
  <advance width="683"/>
  <outline>
    <contour>
      <point x="393" y="325" type="qcurve"/>
      <point x="392" y="321"/>
      <point x="392" y="317" type="qcurve"/>
      <point x="392" y="271"/>
      <point x="435" y="229" type="qcurve"/>
      <point x="470" y="194" type="line"/>
      <point x="491" y="173"/>
      <point x="523" y="152" type="qcurve"/>
      <point x="516" y="79"/>
      <point x="490" y="36" type="qcurve"/>
      <point x="469" y="24"/>
      <point x="444" y="24" type="qcurve"/>
      <point x="408" y="24"/>
      <point x="367" y="50" type="qcurve"/>
      <point x="387" y="86"/>
      <point x="387" y="149" type="qcurve"/>
      <point x="387" y="172"/>
      <point x="379" y="181" type="qcurve"/>
      <point x="344" y="216" type="line"/>
      <point x="335" y="224"/>
      <point x="316" y="224" type="qcurve"/>
      <point x="307" y="224"/>
      <point x="301" y="218" type="qcurve"/>
      <point x="265" y="183" type="line"/>
      <point x="253" y="170"/>
      <point x="253" y="129" type="qcurve"/>
      <point x="253" y="89"/>
      <point x="292" y="48" type="qcurve"/>
      <point x="274" y="40"/>
      <point x="252" y="40" type="qcurve"/>
      <point x="230" y="40"/>
      <point x="213" y="48" type="qcurve"/>
      <point x="196" y="81"/>
      <point x="188" y="166" type="qcurve"/>
      <point x="185" y="203"/>
      <point x="182" y="217" type="qcurve"/>
      <point x="212" y="281"/>
      <point x="212" y="348" type="qcurve"/>
      <point x="212" y="355"/>
      <point x="211" y="361" type="qcurve"/>
      <point x="210" y="394"/>
      <point x="205" y="399" type="qcurve"/>
      <point x="170" y="434" type="line"/>
      <point x="169" y="435"/>
      <point x="168" y="435" type="qcurve"/>
      <point x="167" y="435"/>
      <point x="166" y="434" type="qcurve"/>
      <point x="131" y="398" type="line"/>
      <point x="123" y="390"/>
      <point x="115" y="344" type="qcurve"/>
      <point x="106" y="298"/>
      <point x="106" y="261" type="qcurve"/>
      <point x="106" y="240"/>
      <point x="109" y="229" type="qcurve"/>
      <point x="110" y="224"/>
      <point x="111" y="217" type="qcurve"/>
      <point x="93" y="179"/>
      <point x="65" y="146" type="qcurve"/>
      <point x="57" y="139"/>
      <point x="14" y="108" type="qcurve"/>
      <point x="3" y="99"/>
      <point x="3" y="85" type="qcurve"/>
      <point x="3" y="73"/>
      <point x="11" y="65" type="qcurve"/>
      <point x="19" y="56"/>
      <point x="31" y="56" type="qcurve"/>
      <point x="40" y="56"/>
      <point x="48" y="62" type="qcurve"/>
      <point x="67" y="75"/>
      <point x="84" y="92" type="qcurve"/>
      <point x="120" y="129"/>
      <point x="121" y="129" type="qcurve"/>
      <point x="130" y="55"/>
      <point x="158" y="27" type="qcurve"/>
      <point x="193" y="-8" type="line"/>
      <point x="215" y="-30"/>
      <point x="252" y="-30" type="qcurve"/>
      <point x="292" y="-30"/>
      <point x="316" y="-6" type="qcurve"/>
      <point x="331" y="8" type="line"/>
      <point x="355" y="-16"/>
      <point x="386" y="-31" type="qcurve"/>
      <point x="417" y="-46"/>
      <point x="444" y="-46" type="qcurve"/>
      <point x="482" y="-46"/>
      <point x="509" y="-20" type="qcurve"/>
      <point x="544" y="15" type="line"/>
      <point x="576" y="47"/>
      <point x="588" y="114" type="qcurve"/>
      <point x="633" y="89"/>
      <point x="640" y="86" type="qcurve"/>
      <point x="677" y="56" type="line"/>
      <point x="685" y="50"/>
      <point x="694" y="50" type="qcurve"/>
      <point x="706" y="50"/>
      <point x="714" y="58" type="qcurve"/>
      <point x="722" y="66"/>
      <point x="722" y="78" type="qcurve"/>
      <point x="722" y="91"/>
      <point x="711" y="100" type="qcurve"/>
      <point x="658" y="142"/>
      <point x="640" y="156" type="qcurve"/>
      <point x="630" y="162"/>
      <point x="595" y="181" type="qcurve"/>
      <point x="595" y="185"/>
      <point x="595" y="189" type="qcurve"/>
      <point x="595" y="220"/>
      <point x="575" y="289" type="qcurve"/>
      <point x="554" y="358"/>
      <point x="525" y="386" type="qcurve"/>
      <point x="490" y="422" type="line"/>
      <point x="475" y="436"/>
      <point x="460" y="436" type="qcurve"/>
      <point x="449" y="436"/>
      <point x="442" y="429" type="qcurve"/>
      <point x="407" y="394" type="line"/>
      <point x="393" y="380"/>
      <point x="393" y="336" type="qcurve"/>
      <point x="393" y="334"/>
      <point x="393" y="331" type="qcurve"/>
      <point x="393" y="327"/>
    </contour>
    <contour>
      <point x="463" y="325" type="qcurve"/>
      <point x="463" y="327"/>
      <point x="463" y="331" type="qcurve"/>
      <point x="463" y="334"/>
      <point x="463" y="336" type="qcurve"/>
      <point x="463" y="353"/>
      <point x="465" y="365" type="qcurve"/>
      <point x="469" y="365"/>
      <point x="472" y="363" type="qcurve"/>
      <point x="504" y="311"/>
      <point x="520" y="224" type="qcurve"/>
      <point x="503" y="236"/>
      <point x="489" y="247" type="qcurve"/>
      <point x="463" y="281"/>
      <point x="463" y="317" type="qcurve"/>
      <point x="463" y="321"/>
    </contour>
  </outline>
</glyph>
<glyph name="w.2" format="2">
  <advance width="683"/>
  <outline>
    <contour>
      <point x="148" y="348" type="qcurve"/>
      <point x="148" y="289"/>
      <point x="125" y="233" type="qcurve"/>
      <point x="123" y="244"/>
      <point x="123" y="261" type="qcurve"/>
      <point x="123" y="293"/>
      <point x="131" y="336" type="qcurve"/>
      <point x="138" y="378"/>
      <point x="145" y="392" type="qcurve"/>
      <point x="147" y="381"/>
      <point x="148" y="361" type="qcurve"/>
      <point x="148" y="355"/>
    </contour>
    <contour>
      <point x="270" y="129" type="qcurve"/>
      <point x="270" y="184"/>
      <point x="293" y="184" type="qcurve"/>
      <point x="314" y="184"/>
      <point x="320" y="174" type="qcurve"/>
      <point x="324" y="167"/>
      <point x="324" y="149" type="qcurve"/>
      <point x="324" y="89"/>
      <point x="305" y="54" type="qcurve"/>
      <point x="270" y="93"/>
    </contour>
    <contour>
      <point x="410" y="325" type="qcurve"/>
      <point x="410" y="327"/>
      <point x="410" y="331" type="qcurve"/>
      <point x="410" y="334"/>
      <point x="410" y="336" type="qcurve"/>
      <point x="410" y="396"/>
      <point x="437" y="396" type="qcurve"/>
      <point x="469" y="396"/>
      <point x="499" y="323" type="qcurve"/>
      <point x="513" y="287"/>
      <point x="523" y="247" type="qcurve"/>
      <point x="532" y="206"/>
      <point x="532" y="189" type="qcurve"/>
      <point x="532" y="181"/>
      <point x="532" y="174" type="qcurve"/>
      <point x="410" y="245"/>
      <point x="410" y="317" type="qcurve"/>
      <point x="410" y="318"/>
      <point x="410" y="321" type="qcurve"/>
      <point x="410" y="324"/>
    </contour>
    <contour>
      <point x="400" y="336" type="qcurve"/>
      <point x="400" y="334"/>
      <point x="400" y="331" type="qcurve"/>
      <point x="400" y="327"/>
      <point x="400" y="325" type="qcurve"/>
      <point x="400" y="321"/>
      <point x="400" y="317" type="qcurve"/>
      <point x="400" y="270"/>
      <point x="436" y="233" type="qcurve"/>
      <point x="472" y="196"/>
      <point x="531" y="162" type="qcurve"/>
      <point x="529" y="133"/>
      <point x="523" y="106" type="qcurve"/>
      <point x="517" y="79"/>
      <point x="505" y="53" type="qcurve"/>
      <point x="493" y="26"/>
      <point x="472" y="10" type="qcurve"/>
      <point x="450" y="-6"/>
      <point x="421" y="-6" type="qcurve"/>
      <point x="395" y="-6"/>
      <point x="366" y="9" type="qcurve"/>
      <point x="336" y="23"/>
      <point x="313" y="47" type="qcurve"/>
      <point x="334" y="84"/>
      <point x="334" y="149" type="qcurve"/>
      <point x="334" y="169"/>
      <point x="328" y="179" type="qcurve"/>
      <point x="320" y="194"/>
      <point x="293" y="194" type="qcurve"/>
      <point x="260" y="194"/>
      <point x="260" y="132" type="qcurve"/>
      <point x="260" y="132"/>
      <point x="260" y="131" type="qcurve"/>
      <point x="260" y="129"/>
      <point x="260" y="129" type="qcurve"/>
      <point x="260" y="87"/>
      <point x="300" y="45" type="qcurve"/>
      <point x="276" y="10"/>
      <point x="229" y="10" type="qcurve"/>
      <point x="206" y="10"/>
      <point x="189" y="20" type="qcurve"/>
      <point x="172" y="30"/>
      <point x="163" y="43" type="qcurve"/>
      <point x="154" y="56"/>
      <point x="148" y="81" type="qcurve"/>
      <point x="141" y="105"/>
      <point x="139" y="121" type="qcurve"/>
      <point x="137" y="137"/>
      <point x="135" y="166" type="qcurve"/>
      <point x="132" y="202"/>
      <point x="129" y="217" type="qcurve"/>
      <point x="158" y="280"/>
      <point x="158" y="348" type="qcurve"/>
      <point x="158" y="379"/>
      <point x="154" y="394" type="qcurve"/>
      <point x="152" y="404"/>
      <point x="145" y="404" type="qcurve"/>
      <point x="141" y="404"/>
      <point x="138" y="401" type="qcurve"/>
      <point x="136" y="398"/>
      <point x="134" y="392" type="qcurve"/>
      <point x="129" y="381"/>
      <point x="125" y="360" type="qcurve"/>
      <point x="113" y="307"/>
      <point x="113" y="261" type="qcurve"/>
      <point x="113" y="239"/>
      <point x="116" y="228" type="qcurve"/>
      <point x="117" y="223"/>
      <point x="118" y="218" type="qcurve"/>
      <point x="84" y="146"/>
      <point x="22" y="101" type="qcurve"/>
      <point x="20" y="100"/>
      <point x="20" y="97" type="qcurve"/>
      <point x="20" y="92"/>
      <point x="25" y="92" type="qcurve"/>
      <point x="27" y="92"/>
      <point x="28" y="93" type="qcurve"/>
      <point x="86" y="135"/>
      <point x="121" y="201" type="qcurve"/>
      <point x="123" y="190"/>
      <point x="125" y="165" type="qcurve"/>
      <point x="127" y="144"/>
      <point x="128" y="134" type="qcurve"/>
      <point x="129" y="123"/>
      <point x="133" y="102" type="qcurve"/>
      <point x="136" y="81"/>
      <point x="140" y="70" type="qcurve"/>
      <point x="144" y="59"/>
      <point x="152" y="44" type="qcurve"/>
      <point x="160" y="28"/>
      <point x="170" y="20" type="qcurve"/>
      <point x="180" y="12"/>
      <point x="195" y="6" type="qcurve"/>
      <point x="210" y="0"/>
      <point x="229" y="0" type="qcurve"/>
      <point x="280" y="0"/>
      <point x="307" y="38" type="qcurve"/>
      <point x="332" y="14"/>
      <point x="363" y="-1" type="qcurve"/>
      <point x="394" y="-16"/>
      <point x="421" y="-16" type="qcurve"/>
      <point x="453" y="-16"/>
      <point x="477" y="1" type="qcurve"/>
      <point x="500" y="17"/>
      <point x="513" y="45" type="qcurve"/>
      <point x="526" y="72"/>
      <point x="532" y="99" type="qcurve"/>
      <point x="538" y="126"/>
      <point x="541" y="157" type="qcurve"/>
      <point x="551" y="151"/>
      <point x="577" y="138" type="qcurve"/>
      <point x="602" y="124"/>
      <point x="614" y="117" type="qcurve"/>
      <point x="651" y="88" type="line"/>
      <point x="652" y="87"/>
      <point x="654" y="87" type="qcurve"/>
      <point x="659" y="87"/>
      <point x="659" y="92" type="qcurve"/>
      <point x="659" y="94"/>
      <point x="657" y="96" type="qcurve"/>
      <point x="620" y="125" type="line"/>
      <point x="607" y="133"/>
      <point x="581" y="147" type="qcurve"/>
      <point x="554" y="161"/>
      <point x="541" y="168" type="qcurve"/>
      <point x="542" y="179"/>
      <point x="542" y="189" type="qcurve"/>
      <point x="542" y="207"/>
      <point x="533" y="249" type="qcurve"/>
      <point x="523" y="290"/>
      <point x="508" y="326" type="qcurve"/>
      <point x="476" y="406"/>
      <point x="437" y="406" type="qcurve"/>
      <point x="400" y="406"/>
    </contour>
  </outline>
</glyph>
<glyph name="y.2" format="2">
  <advance width="415"/>
  <outline>
    <contour>
      <point x="145" y="346" type="qcurve"/>
      <point x="145" y="345"/>
      <point x="144" y="345" type="qcurve"/>
      <point x="142" y="319"/>
      <point x="135" y="293" type="qcurve"/>
      <point x="128" y="334" type="line"/>
      <point x="125" y="409" type="line"/>
      <point x="125" y="409"/>
      <point x="126" y="409" type="qcurve"/>
      <point x="133" y="409"/>
      <point x="138" y="388" type="qcurve"/>
      <point x="145" y="366"/>
    </contour>
    <contour>
      <point x="300" y="260" type="qcurve"/>
      <point x="300" y="261"/>
      <point x="300" y="264" type="qcurve"/>
      <point x="300" y="267"/>
      <point x="300" y="268" type="qcurve"/>
      <point x="300" y="277"/>
      <point x="299" y="297" type="qcurve"/>
      <point x="297" y="316"/>
      <point x="296" y="324" type="qcurve"/>
      <point x="296" y="347"/>
      <point x="296" y="348" type="qcurve"/>
      <point x="296" y="384"/>
      <point x="305" y="405" type="qcurve"/>
      <point x="309" y="393"/>
      <point x="311" y="358" type="qcurve"/>
      <point x="312" y="349"/>
      <point x="313" y="347" type="qcurve"/>
      <point x="316" y="328"/>
      <point x="316" y="307" type="qcurve"/>
      <point x="316" y="267"/>
      <point x="303" y="232" type="qcurve"/>
      <point x="300" y="248"/>
    </contour>
    <contour>
      <point x="299" y="201" type="qcurve"/>
      <point x="304" y="172"/>
      <point x="304" y="160" type="qcurve"/>
      <point x="304" y="159"/>
      <point x="305" y="159" type="qcurve"/>
      <point x="312" y="127"/>
      <point x="316" y="66" type="qcurve"/>
      <point x="318" y="42"/>
      <point x="318" y="15" type="qcurve"/>
      <point x="318" y="8"/>
      <point x="318" y="1" type="qcurve"/>
      <point x="292" y="-34"/>
      <point x="275" y="-61" type="qcurve"/>
      <point x="269" y="-72"/>
      <point x="251" y="-92" type="qcurve"/>
      <point x="239" y="-105"/>
      <point x="233" y="-112" type="qcurve"/>
      <point x="227" y="-119"/>
      <point x="221" y="-132" type="qcurve"/>
      <point x="214" y="-146"/>
      <point x="214" y="-159" type="qcurve"/>
      <point x="214" y="-163"/>
      <point x="214" y="-166" type="qcurve"/>
      <point x="213" y="-171"/>
      <point x="213" y="-177" type="qcurve"/>
      <point x="213" y="-216"/>
      <point x="270" y="-216" type="qcurve"/>
      <point x="284" y="-216"/>
      <point x="305" y="-213" type="qcurve"/>
      <point x="305" y="-213"/>
      <point x="310" y="-214" type="qcurve"/>
      <point x="321" y="-214"/>
      <point x="321" y="-199" type="qcurve"/>
      <point x="321" y="-196"/>
      <point x="320" y="-192" type="qcurve"/>
      <point x="320" y="-158"/>
      <point x="324" y="-94" type="qcurve"/>
      <point x="327" y="-31"/>
      <point x="328" y="-3" type="qcurve"/>
      <point x="336" y="7"/>
      <point x="355" y="33" type="qcurve"/>
      <point x="356" y="33"/>
      <point x="356" y="34" type="qcurve"/>
      <point x="380" y="79" type="line"/>
      <point x="390" y="93" type="line"/>
      <point x="390" y="94"/>
      <point x="390" y="96" type="qcurve"/>
      <point x="390" y="101"/>
      <point x="385" y="101" type="qcurve"/>
      <point x="383" y="101"/>
      <point x="381" y="99" type="qcurve"/>
      <point x="371" y="85" type="line"/>
      <point x="371" y="85"/>
      <point x="371" y="84" type="qcurve"/>
      <point x="347" y="39" type="line"/>
      <point x="333" y="20"/>
      <point x="328" y="14" type="qcurve"/>
      <point x="328" y="14"/>
      <point x="328" y="15" type="qcurve"/>
      <point x="328" y="43"/>
      <point x="326" y="66" type="qcurve"/>
      <point x="322" y="128"/>
      <point x="314" y="161" type="qcurve"/>
      <point x="314" y="172"/>
      <point x="308" y="205" type="qcurve"/>
      <point x="308" y="209"/>
      <point x="306" y="215" type="qcurve"/>
      <point x="326" y="256"/>
      <point x="326" y="307" type="qcurve"/>
      <point x="326" y="329"/>
      <point x="322" y="349" type="qcurve"/>
      <point x="322" y="350"/>
      <point x="321" y="359" type="qcurve"/>
      <point x="318" y="402"/>
      <point x="312" y="413" type="qcurve"/>
      <point x="309" y="419"/>
      <point x="303" y="419" type="qcurve"/>
      <point x="300" y="419"/>
      <point x="299" y="416" type="qcurve"/>
      <point x="286" y="391"/>
      <point x="286" y="348" type="qcurve"/>
      <point x="286" y="319"/>
      <point x="289" y="295" type="qcurve"/>
      <point x="290" y="276"/>
      <point x="290" y="268" type="qcurve"/>
      <point x="290" y="264"/>
      <point x="290" y="260" type="qcurve"/>
      <point x="290" y="244"/>
      <point x="296" y="216" type="qcurve"/>
      <point x="262" y="147"/>
      <point x="187" y="147" type="qcurve"/>
      <point x="173" y="147"/>
      <point x="164" y="162" type="qcurve"/>
      <point x="154" y="177"/>
      <point x="150" y="197" type="qcurve"/>
      <point x="138" y="271" type="line"/>
      <point x="151" y="307"/>
      <point x="154" y="343" type="qcurve"/>
      <point x="155" y="344"/>
      <point x="155" y="346" type="qcurve"/>
      <point x="155" y="367"/>
      <point x="148" y="391" type="qcurve"/>
      <point x="140" y="419"/>
      <point x="126" y="419" type="qcurve"/>
      <point x="114" y="419"/>
      <point x="114" y="412" type="qcurve"/>
      <point x="118" y="334" type="line"/>
      <point x="119" y="333" type="line"/>
      <point x="119" y="329"/>
      <point x="123" y="307" type="qcurve"/>
      <point x="126" y="284"/>
      <point x="128" y="272" type="qcurve"/>
      <point x="99" y="190"/>
      <point x="22" y="99" type="qcurve"/>
      <point x="20" y="97"/>
      <point x="20" y="94" type="qcurve"/>
      <point x="20" y="85"/>
      <point x="27" y="85" type="qcurve"/>
      <point x="32" y="85"/>
      <point x="32" y="90" type="qcurve"/>
      <point x="32" y="93"/>
      <point x="30" y="94" type="qcurve"/>
      <point x="101" y="177"/>
      <point x="131" y="252" type="qcurve"/>
      <point x="141" y="195" type="line"/>
      <point x="144" y="173"/>
      <point x="156" y="155" type="qcurve"/>
      <point x="167" y="137"/>
      <point x="187" y="137" type="qcurve"/>
      <point x="261" y="137"/>
    </contour>
    <contour>
      <point x="311" y="-199" type="qcurve"/>
      <point x="311" y="-204"/>
      <point x="310" y="-204" type="qcurve"/>
      <point x="309" y="-204"/>
      <point x="308" y="-203" type="qcurve"/>
      <point x="306" y="-203"/>
      <point x="305" y="-203" type="qcurve"/>
      <point x="283" y="-206"/>
      <point x="270" y="-206" type="qcurve"/>
      <point x="223" y="-206"/>
      <point x="223" y="-177" type="qcurve"/>
      <point x="223" y="-172"/>
      <point x="224" y="-167" type="qcurve"/>
      <point x="224" y="-166"/>
      <point x="224" y="-166" type="qcurve"/>
      <point x="224" y="-165"/>
      <point x="224" y="-162" type="qcurve"/>
      <point x="224" y="-160"/>
      <point x="224" y="-159" type="qcurve"/>
      <point x="224" y="-148"/>
      <point x="230" y="-136" type="qcurve"/>
      <point x="235" y="-125"/>
      <point x="241" y="-118" type="qcurve"/>
      <point x="247" y="-111"/>
      <point x="258" y="-98" type="qcurve"/>
      <point x="277" y="-78"/>
      <point x="284" y="-67" type="qcurve"/>
      <point x="297" y="-44"/>
      <point x="318" y="-17" type="qcurve"/>
      <point x="317" y="-38"/>
      <point x="314" y="-98" type="qcurve"/>
      <point x="310" y="-159"/>
      <point x="310" y="-192" type="qcurve"/>
      <point x="310" y="-193"/>
      <point x="311" y="-195" type="qcurve"/>
      <point x="311" y="-198"/>
    </contour>
  </outline>
</glyph>
<glyph name="z.2" format="2">
  <advance width="432"/>
  <outline>
    <contour>
      <point x="193" y="385" type="qcurve"/>
      <point x="217" y="385"/>
      <point x="258" y="399" type="qcurve"/>
      <point x="299" y="412"/>
      <point x="319" y="413" type="qcurve"/>
      <point x="328" y="414"/>
      <point x="347" y="417" type="qcurve"/>
      <point x="365" y="419"/>
      <point x="375" y="419" type="qcurve"/>
      <point x="373" y="412"/>
      <point x="364" y="396" type="qcurve"/>
      <point x="354" y="379"/>
      <point x="352" y="371" type="qcurve"/>
      <point x="334" y="318"/>
      <point x="283" y="259" type="qcurve"/>
      <point x="273" y="245"/>
      <point x="240" y="205" type="qcurve"/>
      <point x="207" y="165"/>
      <point x="193" y="141" type="qcurve"/>
      <point x="192" y="140"/>
      <point x="192" y="140" type="qcurve"/>
      <point x="190" y="133"/>
      <point x="181" y="117" type="qcurve"/>
      <point x="168" y="95"/>
      <point x="168" y="87" type="qcurve"/>
      <point x="168" y="74"/>
      <point x="185" y="74" type="qcurve"/>
      <point x="192" y="74"/>
      <point x="198" y="75" type="qcurve"/>
      <point x="214" y="79"/>
      <point x="229" y="79" type="qcurve"/>
      <point x="262" y="79"/>
      <point x="288" y="64" type="qcurve"/>
      <point x="314" y="49"/>
      <point x="326" y="22" type="qcurve"/>
      <point x="303" y="7"/>
      <point x="283" y="-1" type="qcurve"/>
      <point x="275" y="-5"/>
      <point x="261" y="-14" type="qcurve"/>
      <point x="246" y="-24"/>
      <point x="237" y="-27" type="qcurve"/>
      <point x="237" y="-27"/>
      <point x="237" y="-28" type="qcurve"/>
      <point x="222" y="-36"/>
      <point x="200" y="-56" type="qcurve"/>
      <point x="198" y="-57"/>
      <point x="194" y="-60" type="qcurve"/>
      <point x="190" y="-64"/>
      <point x="188" y="-66" type="qcurve"/>
      <point x="152" y="-99"/>
      <point x="152" y="-143" type="qcurve"/>
      <point x="152" y="-147"/>
      <point x="152" y="-152" type="qcurve"/>
      <point x="152" y="-153"/>
      <point x="152" y="-153" type="qcurve"/>
      <point x="152" y="-154"/>
      <point x="152" y="-155" type="qcurve"/>
      <point x="152" y="-155"/>
      <point x="152" y="-156" type="qcurve"/>
      <point x="152" y="-158"/>
      <point x="152" y="-159" type="qcurve"/>
      <point x="152" y="-171"/>
      <point x="153" y="-178" type="qcurve"/>
      <point x="153" y="-186"/>
      <point x="156" y="-197" type="qcurve"/>
      <point x="159" y="-209"/>
      <point x="167" y="-215" type="qcurve"/>
      <point x="174" y="-221"/>
      <point x="186" y="-221" type="qcurve"/>
      <point x="198" y="-221"/>
      <point x="223" y="-219" type="qcurve"/>
      <point x="247" y="-217"/>
      <point x="259" y="-217" type="qcurve"/>
      <point x="277" y="-217"/>
      <point x="288" y="-208" type="qcurve"/>
      <point x="298" y="-199"/>
      <point x="307" y="-183" type="qcurve"/>
      <point x="315" y="-167"/>
      <point x="321" y="-161" type="qcurve"/>
      <point x="345" y="-136"/>
      <point x="345" y="-83" type="qcurve"/>
      <point x="345" y="-75"/>
      <point x="345" y="-58" type="qcurve"/>
      <point x="344" y="-41"/>
      <point x="344" y="-33" type="qcurve"/>
      <point x="344" y="-30"/>
      <point x="344" y="-24" type="qcurve"/>
      <point x="344" y="-19"/>
      <point x="344" y="-16" type="qcurve"/>
      <point x="344" y="2"/>
      <point x="338" y="19" type="qcurve"/>
      <point x="348" y="25"/>
      <point x="367" y="39" type="qcurve"/>
      <point x="385" y="53"/>
      <point x="394" y="60" type="qcurve"/>
      <point x="395" y="61"/>
      <point x="396" y="62" type="qcurve"/>
      <point x="408" y="92" type="line"/>
      <point x="408" y="93"/>
      <point x="408" y="94" type="qcurve"/>
      <point x="408" y="99"/>
      <point x="403" y="99" type="qcurve"/>
      <point x="400" y="99"/>
      <point x="398" y="96" type="qcurve"/>
      <point x="387" y="67" type="line"/>
      <point x="378" y="61"/>
      <point x="361" y="48" type="qcurve"/>
      <point x="343" y="34"/>
      <point x="335" y="28" type="qcurve"/>
      <point x="321" y="57"/>
      <point x="293" y="73" type="qcurve"/>
      <point x="264" y="89"/>
      <point x="229" y="89" type="qcurve"/>
      <point x="213" y="89"/>
      <point x="196" y="85" type="qcurve"/>
      <point x="192" y="84"/>
      <point x="185" y="84" type="qcurve"/>
      <point x="178" y="84"/>
      <point x="178" y="86" type="qcurve"/>
      <point x="178" y="86"/>
      <point x="178" y="87" type="qcurve"/>
      <point x="178" y="92"/>
      <point x="189" y="112" type="qcurve"/>
      <point x="199" y="128"/>
      <point x="202" y="136" type="qcurve"/>
      <point x="216" y="159"/>
      <point x="249" y="199" type="qcurve"/>
      <point x="281" y="239"/>
      <point x="291" y="253" type="qcurve"/>
      <point x="343" y="313"/>
      <point x="362" y="368" type="qcurve"/>
      <point x="362" y="369" type="line"/>
      <point x="364" y="376"/>
      <point x="373" y="393" type="qcurve"/>
      <point x="386" y="414"/>
      <point x="386" y="424" type="qcurve"/>
      <point x="386" y="429"/>
      <point x="381" y="429" type="qcurve"/>
      <point x="369" y="429"/>
      <point x="348" y="426" type="qcurve"/>
      <point x="326" y="423"/>
      <point x="319" y="423" type="qcurve"/>
      <point x="298" y="422"/>
      <point x="257" y="409" type="qcurve"/>
      <point x="216" y="395"/>
      <point x="193" y="395" type="qcurve"/>
      <point x="192" y="395"/>
      <point x="191" y="395" type="qcurve"/>
      <point x="190" y="395"/>
      <point x="189" y="395" type="qcurve"/>
      <point x="183" y="395"/>
      <point x="177" y="395" type="qcurve"/>
      <point x="173" y="433"/>
      <point x="144" y="433" type="qcurve"/>
      <point x="136" y="433"/>
      <point x="128" y="431" type="qcurve"/>
      <point x="105" y="424"/>
      <point x="95" y="418" type="qcurve"/>
      <point x="86" y="412"/>
      <point x="86" y="405" type="qcurve"/>
      <point x="86" y="399"/>
      <point x="93" y="395" type="qcurve"/>
      <point x="100" y="392"/>
      <point x="113" y="390" type="qcurve"/>
      <point x="134" y="386"/>
      <point x="168" y="385" type="qcurve"/>
      <point x="168" y="385"/>
      <point x="168" y="384" type="qcurve"/>
      <point x="168" y="374"/>
      <point x="166" y="363" type="qcurve"/>
      <point x="166" y="362"/>
      <point x="166" y="362" type="qcurve"/>
      <point x="166" y="359"/>
      <point x="167" y="353" type="qcurve"/>
      <point x="167" y="346"/>
      <point x="167" y="343" type="qcurve"/>
      <point x="167" y="261"/>
      <point x="130" y="192" type="qcurve"/>
      <point x="92" y="122"/>
      <point x="23" y="99" type="qcurve"/>
      <point x="20" y="98"/>
      <point x="20" y="94" type="qcurve"/>
      <point x="20" y="89"/>
      <point x="25" y="89" type="qcurve"/>
      <point x="26" y="89"/>
      <point x="27" y="89" type="qcurve"/>
      <point x="76" y="106"/>
      <point x="111" y="147" type="qcurve"/>
      <point x="146" y="188"/>
      <point x="162" y="239" type="qcurve"/>
      <point x="177" y="289"/>
      <point x="177" y="343" type="qcurve"/>
      <point x="177" y="352"/>
      <point x="176" y="362" type="qcurve"/>
      <point x="178" y="373"/>
      <point x="178" y="384" type="qcurve"/>
      <point x="178" y="384"/>
      <point x="178" y="385" type="qcurve"/>
      <point x="181" y="385"/>
    </contour>
    <contour>
      <point x="144" y="423" type="qcurve"/>
      <point x="164" y="423"/>
      <point x="167" y="395" type="qcurve"/>
      <point x="140" y="396"/>
      <point x="121" y="399" type="qcurve"/>
      <point x="100" y="402"/>
      <point x="96" y="406" type="qcurve"/>
      <point x="96" y="405" type="line"/>
      <point x="96" y="406"/>
      <point x="100" y="409" type="qcurve"/>
      <point x="109" y="415"/>
      <point x="130" y="421" type="qcurve"/>
      <point x="138" y="423"/>
    </contour>
    <contour>
      <point x="162" y="-155" type="qcurve"/>
      <point x="162" y="-152"/>
      <point x="162" y="-148" type="qcurve"/>
      <point x="162" y="-145"/>
      <point x="162" y="-143" type="qcurve"/>
      <point x="162" y="-104"/>
      <point x="194" y="-74" type="qcurve"/>
      <point x="232" y="-42"/>
      <point x="241" y="-37" type="qcurve"/>
      <point x="251" y="-33"/>
      <point x="265" y="-23" type="qcurve"/>
      <point x="279" y="-14"/>
      <point x="287" y="-11" type="qcurve"/>
      <point x="307" y="-2"/>
      <point x="330" y="13" type="qcurve"/>
      <point x="334" y="-1"/>
      <point x="334" y="-16" type="qcurve"/>
      <point x="334" y="-19"/>
      <point x="334" y="-24" type="qcurve"/>
      <point x="334" y="-30"/>
      <point x="334" y="-33" type="qcurve"/>
      <point x="334" y="-41"/>
      <point x="335" y="-58" type="qcurve"/>
      <point x="335" y="-75"/>
      <point x="335" y="-83" type="qcurve"/>
      <point x="335" y="-132"/>
      <point x="313" y="-155" type="qcurve"/>
      <point x="308" y="-161"/>
      <point x="299" y="-176" type="qcurve"/>
      <point x="290" y="-192"/>
      <point x="282" y="-199" type="qcurve"/>
      <point x="274" y="-207"/>
      <point x="259" y="-207" type="qcurve"/>
      <point x="247" y="-207"/>
      <point x="223" y="-209" type="qcurve"/>
      <point x="199" y="-211"/>
      <point x="187" y="-211" type="qcurve"/>
      <point x="187" y="-211"/>
      <point x="186" y="-211" type="qcurve"/>
      <point x="175" y="-211"/>
      <point x="170" y="-202" type="qcurve"/>
      <point x="164" y="-194"/>
      <point x="163" y="-184" type="qcurve"/>
      <point x="162" y="-175"/>
      <point x="162" y="-159" type="qcurve"/>
      <point x="162" y="-158"/>
      <point x="162" y="-156" type="qcurve"/>
      <point x="162" y="-155"/>
    </contour>
  </outline>
</glyph>
<glyph name="zero.0" format="2">
  <advance width="298"/>
  <outline>
    <contour>
      <point x="117" y="340" type="qcurve"/>
      <point x="100" y="281"/>
      <point x="100" y="205" type="qcurve"/>
      <point x="100" y="129"/>
      <point x="117" y="70" type="qcurve"/>
      <point x="132" y="21"/>
      <point x="155" y="-2" type="qcurve"/>
      <point x="174" y="-21"/>
      <point x="197" y="-21" type="qcurve"/>
      <point x="220" y="-21"/>
      <point x="239" y="-2" type="qcurve"/>
      <point x="262" y="21"/>
      <point x="277" y="70" type="qcurve"/>
      <point x="294" y="129"/>
      <point x="294" y="205" type="qcurve"/>
      <point x="294" y="281"/>
      <point x="277" y="340" type="qcurve"/>
      <point x="262" y="389"/>
      <point x="239" y="412" type="qcurve"/>
      <point x="220" y="431"/>
      <point x="197" y="431" type="qcurve"/>
      <point x="174" y="431"/>
      <point x="155" y="412" type="qcurve"/>
      <point x="132" y="389"/>
    </contour>
    <contour>
      <point x="165" y="85" type="qcurve"/>
      <point x="150" y="137"/>
      <point x="150" y="205" type="qcurve"/>
      <point x="150" y="273"/>
      <point x="165" y="325" type="qcurve"/>
      <point x="176" y="362"/>
      <point x="190" y="377" type="qcurve"/>
      <point x="195" y="381"/>
      <point x="197" y="381" type="qcurve"/>
      <point x="199" y="381"/>
      <point x="204" y="377" type="qcurve"/>
      <point x="218" y="362"/>
      <point x="229" y="325" type="qcurve"/>
      <point x="244" y="273"/>
      <point x="244" y="205" type="qcurve"/>
      <point x="244" y="137"/>
      <point x="229" y="85" type="qcurve"/>
      <point x="218" y="48"/>
      <point x="204" y="33" type="qcurve"/>
      <point x="199" y="29"/>
      <point x="197" y="29" type="qcurve"/>
      <point x="195" y="29"/>
      <point x="190" y="33" type="qcurve"/>
      <point x="176" y="48"/>
    </contour>
  </outline>
</glyph>
